<svg data-name="Layer 1" xmlns="http://www.w3.org/2000/svg" viewBox="0 0 1000 1000"><path d="M987.81 851.06l-435.88-755c-28.56-49.47-75.3-49.47-103.87 0l-435.87 755C-16.37 900.54 7 941 64.13 941h871.75c57.12 0 80.5-40.46 51.93-89.94zM501.3 805.47h-.65c-28 0-48.88-20.84-48.88-51.47 0-29.32 20.86-50.82 49.53-50.82s49.53 21.5 49.53 50.82c0 30.63-20.83 51.47-49.53 51.47zm45.62-365.54C534.54 509.65 524.76 580 515 655c-2 7.82-28.67 8.49-30 0-9.76-74.92-20.18-145.3-32.58-215-3.9-24.75-5.86-36.5-5.86-47.56 0-15.65 11.09-28 53.44-28h.64c40.41 0 52.78 12.37 52.78 28 .01 10.99-2.59 22.74-6.5 47.49z"/></svg>