<svg id="Layer_1" data-name="Layer 1" xmlns="http://www.w3.org/2000/svg" viewBox="0 0 1000 1000"><title>australia</title><path d="M749.5,37a7.91,7.91,0,0,0-3,.69l-12.48,5.56A8,8,0,0,0,729.32,50L727.41,76.1l-9.66,12.67A8,8,0,0,0,719.32,100a7.9,7.9,0,0,0,2.71,1.34l-12.76,27a7.88,7.88,0,0,0-.65,4.83l5.12,28.87-27.17,63-16.69-2.26-14.69-16.52a8,8,0,0,0-2.72-2L593.21,177.7l-27.56-24.11,15.62-28.34a8,8,0,0,0,.39-7h.94a8,8,0,0,0,8-7.6l.5-9.4,10.14-7.46a8,8,0,0,0,1.86-11l-9-13.18a8,8,0,0,0-11.14-2.07,7.85,7.85,0,0,0-.73.56l-6.62,5.75a8,8,0,0,0-7.27-2l-14.51,3.34L542.14,67a8,8,0,0,0-8.24-.65l-9.22,4.6-1-3.64a8,8,0,0,0-9.07-5.86l-10.27,1.71L466.93,48a8,8,0,0,0-8.79,13L471.48,74.9,445.42,78h-9.94a8,8,0,0,0-2.82.53l-11.11,4.16a8,8,0,0,0-5.12,6.43A8,8,0,0,0,408,96.7a8.6,8.6,0,0,0,.17,2.08l2.69,12.56-10.74,3.89a8,8,0,0,0-4.25,3.55l-11.09,19.43A8,8,0,0,0,387.57,149l10.5,6.46-2.15,2.82-25-9.18a8,8,0,0,0-4.34-.34l-4.88,1-15.61-20.53a8,8,0,0,0-6-3.14l-18.65-1a8,8,0,0,0-5.42,1.74l-8.46,6.75-6.15,1.54a8,8,0,0,0-5.66,5.25l-.76,2.3-1.26-.76a8,8,0,0,0-10.31,1.78l-13.73,16.69a8,8,0,0,0-.63,9.28l-2.87,1.07a8,8,0,0,0-3.9,3.14l-10.81,16.69a8,8,0,0,0,.59,9.49l1.34,1.62L242,196.45A8,8,0,0,0,230.71,205l1.08,7a8,8,0,0,0-8.63,1.78l-20.62,20.6a8,8,0,0,0-2.13,7.55l4.89,20.38-27.48,30.05-47.65,22.9a8.44,8.44,0,0,0-1,.54L90.52,341.59l-10.7-1.52a8,8,0,0,0-6.08,1.61L24.67,380a8,8,0,0,0-2.86,4.47l-1.43,6a8,8,0,0,0-9.31.19l-7.86,5.88A8,8,0,0,0,0,403v62.8a8.09,8.09,0,0,0,.78,3.45l19.62,41-5.32,8a8,8,0,0,0,.48,9.51l34.61,42.32,19,43.64,7.7,27A8,8,0,0,0,78,643.09l22.61,32,4.3,20.08-12.48,6.92a8,8,0,0,0-4.08,6.21l-2,19.64a8,8,0,0,0,5,8.22l49.06,19.64a8.11,8.11,0,0,0,4.19.48l25.52-3.93a8,8,0,0,0,5.23-3.17l31-42,78.52-1.87a8,8,0,0,0,7.46-5.62L303,666.14l40.93-16L454.8,627.18l61.95,24.09-.36,1.57a8,8,0,0,0,3.51,8.59l12.54,7.94,15.72,38.85a8,8,0,0,0,3.36,3.88l10.79,6.38a8,8,0,0,0,12-5.53l1.57-8.92,28.3-30.19-.11,5.75-10.42,15.19a8.13,8.13,0,0,0-1.37,3.87l-.67,8.16-4.73,3.49a8,8,0,0,0,4.06,14.43l16,1.39a8,8,0,0,0,5.42-1.52l.55-.39-.59,2.5a8,8,0,0,0,4.47,9.11l21.42,9.85,2.39,28A8,8,0,0,0,642.3,778l21.5,26.37a8.13,8.13,0,0,0,3.48,2.47l65.23,23.59a8,8,0,0,0,7.88-1.39l23.26-19.47,17.15,23.59a8,8,0,0,0,10.72,2.09l31.22-19.43a7.64,7.64,0,0,0,1-.71l7.81-6.71,44.69-4.6a8,8,0,0,0,6.92-5.86l15-55.23L920.64,703l43.51-40.8a8.05,8.05,0,0,0,2-3l33.31-86a8.1,8.1,0,0,0,.48-3.9l-5.43-42,5.4-39.18a7.89,7.89,0,0,0-.76-4.68l-30.53-61.07a8,8,0,0,0-2.58-3l-11.94-8.36-14.36-35.29a8,8,0,0,0-8.32-4.94l-5.38.58-12.28-54.08a8.06,8.06,0,0,0-3.34-4.86l-60.87-41-7.14-51.25a8.06,8.06,0,0,0-2.13-4.43l-11.57-12.13L830,166.05a8,8,0,0,0-2.17-5.75L807,138.1a8,8,0,0,0-7.86-2.28L786.76,139l-3.3-35.72a7.8,7.8,0,0,0-.62-2.47l-25.68-59A8,8,0,0,0,749.5,37Z"/><path d="M750.46,865.49A8,8,0,0,0,743,872l-3.92,20.12a8,8,0,0,0,.88,5.49l9.1,16.08,1.78-1.19a8,8,0,0,0-2.63,10.44l8.18,15.43,4.78,11a8,8,0,0,0,3.77,4l17.67,8.83a8,8,0,0,0,10.75-3.59,6,6,0,0,0,.42-1L798,945.2l5.12,5.1a8,8,0,0,0,11.34,0,7.9,7.9,0,0,0,1.92-3.09l10.31-30.42a8,8,0,0,0,.41-2.21l1.48-33.38a8,8,0,0,0-10.39-8l-29.87,9.36-34-16.3a8,8,0,0,0-3.08-.78A5.34,5.34,0,0,0,750.46,865.49Z"/></svg>