<svg xmlns="http://www.w3.org/2000/svg" viewBox="0 0 1000 1000"><title>bahrain</title><path d="M434.34,102a8,8,0,0,0-6.93,3.55l-9.52,14.3L358,118.48a8,8,0,0,0-5.83,2.35l-26.91,26.91a7.94,7.94,0,0,0-1.93,8.15l1.47,4.43,8.31,26.28-10,42.73a8,8,0,0,0,.57,5.21l36.84,78.14,10,75.4-36.11,65a8,8,0,0,0-.8,5.62L347,518.52a8,8,0,0,0,2.72,4.43l57.2,46.91L440,627.41l16.19,69.14a8,8,0,0,0,13.32,3.9l55.32-53.83a8,8,0,0,0,2.36-4.71l31.4-246.75a8,8,0,0,0-2.28-6.64l-9.22-9.22,5.53-45.51a8,8,0,0,0,0-2.13l-3.78-25.12,12.55-9.14a8,8,0,0,0,3-8.66L555.64,259c2.94-1.67,5.18-3,10.83-6,4.25-2.32,8.68-4.67,12.32-6.49s7.3-3.2,6.75-3.06l.89-.26a8.89,8.89,0,0,0,.93-.35,6.56,6.56,0,0,0,1.15-.63,7.69,7.69,0,0,0,1.2-.95,25,25,0,0,0,1.86-2.78l-.08-6.14-3.09-3.56s-1.47-.75-1.93-.89a6.66,6.66,0,0,0-1-.24,5.94,5.94,0,0,0-1.54-.11,8.29,8.29,0,0,0-1,.07c-1,.1-2.18.26-3.84.52-3.31.5-8.17,1.3-13.23,2.15-6.53,1.08-9.49,1.61-13.52,2.3l-8.79-39a8,8,0,0,0-9.52-6,8.1,8.1,0,0,0-2.7,1.16L508.9,203.57a8,8,0,0,0-3.09,9.33l5.1,14.15-29.42-20.16-5.77-25,48.76,4.88a8,8,0,0,0,8.61-9.48l-6-29.93a7.78,7.78,0,0,0-.67-2l-17.95-35.89a8,8,0,0,0-10.69-3.56,7.07,7.07,0,0,0-.76.43l-21.75,14.06-37.86-17.6A7.86,7.86,0,0,0,434.34,102Z"/><path d="M601.82,0a8,8,0,0,0-7.17,4.91L589.06,18.3c-.09.21-.17.43-.24.65l-2.37,7.46-17.4-9a8,8,0,0,0-8.07.41L543.79,29.12,517.94,16.84a8,8,0,0,0-10.62,3.78,8.4,8.4,0,0,0-.64,2l-1.49,8.23a8,8,0,0,0,3.12,7.85l7.75,5.69c-.09,1.89-.1,2.82-.29,5.71-.15,2.5-.36,5-.56,6.87-.1.93-.22,1.7-.28,2,0,.18-.06.25,0,.07s-.07-.53,1.06-2a9.23,9.23,0,0,0-.78,9.61,14,14,0,0,0,2.43,3.61,27.08,27.08,0,0,0,3,2.92,8,8,0,0,0,8.29,1.18l4.42-1.93L540,89.08a8,8,0,0,0,7.1,5s2.59.11,5.49.07c1.45,0,3-.09,4.51-.26s2.46.77,6.32-2.13a6.87,6.87,0,0,0,1.45-1.52,7.9,7.9,0,0,0,4,.39l7.62-1.21.74,17.25a8,8,0,0,0,5.68,7.29l-.54,1.19a8,8,0,0,0-.63,4.39l6.1,43.37a8,8,0,0,0,6.23,6.69l23.3,5a8,8,0,0,0,9.46-6.14,7.85,7.85,0,0,0-.15-3.91l-6.6-22.26.31-3.13.78-.15.22,2.11a8,8,0,0,0,.86,2.9l6.36,12a8,8,0,0,0,10.78,3.31l.22-.12,7.86-4.49a7.3,7.3,0,0,0,1.32-1l7.1,4.78a8,8,0,0,0,7.16.87l13.45-4.84a8,8,0,0,0,4.79-10.21c-.09-.24-.18-.48-.29-.71L662.29,104a8,8,0,0,0-6.14-4.49l-27.56-3.69V95a8,8,0,0,0-8-8H617l2.22-49.85,10.63-12.89A8,8,0,0,0,628.76,13a7.74,7.74,0,0,0-1.4-.93L605.68.89A8.08,8.08,0,0,0,601.82,0ZM581.53,228a3.29,3.29,0,0,0-.63.24l-.31.15C580.91,228.26,581.2,228.08,581.53,228Z"/><path d="M272.93,198.84a8,8,0,0,0-6.34,3.86l-3.16,5.3a8,8,0,0,0-.65,6.81l-.44-1-9.11,5.45a7.92,7.92,0,0,0-3.5,4.36l-6.33,19.29a8,8,0,0,0,.93,6.92l3,4.56.39,6.32a8,8,0,0,0,2.69,5.46l2.08,1.85v.13l-.78.91a8,8,0,0,0,.93,11.24,8.11,8.11,0,0,0,3.24,1.65l15.84,4a8,8,0,0,0,3.73,0l10.66-2.43,15.19,4.43a8,8,0,0,0,9.89-5.4,7.86,7.86,0,0,0,0-4.43l-2-6.88,2.39-7.18a8,8,0,0,0-4.65-9.94l-2.34-.93V235.12l5-10a8,8,0,0,0,0-7.12l-5.82-11.63a8,8,0,0,0-8.16-4.34l-12.93,1.69-4.56-3.36a7.94,7.94,0,0,0-4.45-1.56Z"/><path d="M748.75,784.13a6.35,6.35,0,0,0-.76.13l-15.87,2.11a8,8,0,0,0-6.75,6.2l-.8,3.67-7-2.19a8,8,0,0,0-8.89,3l-27.5,39.13c-.14.2-.27.4-.39.61l-10,17.44a8,8,0,0,0-1.07,3.56L668.11,889a8,8,0,0,0,3,6.66l9,7.12L676.68,923a8,8,0,0,0,0,3l2.15,10.33L666,968.43a8,8,0,0,0,3.6,10L707.69,999a8,8,0,0,0,9.44-12.65l-11.72-11.71,2.56-4.84a8,8,0,0,0,.83-2.54l1.19-8,13-12.95a8,8,0,0,0-6.7-13.54l-5.19.71-1-2.95,4.62-9.89,5.84-2.06a8,8,0,0,0,4.86-10.18,3.12,3.12,0,0,0-.15-.39l-6.34-15.32a7.84,7.84,0,0,0-1.58-2.43l-7.51-8-2.64-11.21.26-.22-.31-.22a8,8,0,0,0,7.9.54l18.21-8.83,13.41-5.16a8,8,0,0,0,2.21-13.59l-11.17-9.24,8.57-8.59a8.07,8.07,0,0,0,2-3.32l8.47-28a8,8,0,0,0-5.34-9.93,7.79,7.79,0,0,0-2.58-.33Z"/></svg>
