<svg xmlns="http://www.w3.org/2000/svg" viewBox="0 0 1000 1000"><title>colombia</title><path d="M571.84,0a8.24,8.24,0,0,0-5.42,2L541.29,23.52a8.3,8.3,0,0,0-.78.79L527.12,39.37,505.07,51.24a8.08,8.08,0,0,0-1.35.89l-27,22.24L443.37,63.24a8.31,8.31,0,0,0-5.67.17l-17.94,7.16a8.26,8.26,0,0,0-5.19,7.67v6.29L395,77.65a8.26,8.26,0,0,0-8.12,1.52l-39.49,34.11a8.25,8.25,0,0,0-2.7,4.67l-9,46.68q-.06.31-.09.63L334.14,179l-4.25,5.1-4.17-.82a8.22,8.22,0,0,0-8.11,3l-12.48,16L287.42,223.2l-16.84,3.06a8.25,8.25,0,0,0-6.71,9.2L269,273.9l-2.43-1.22L239,238.2a8.24,8.24,0,0,0-14.54,6.71l6.49,34-11.41,14.26-8.27,6.62a8.23,8.23,0,0,0-3.06,7.05L210,330.13a8.18,8.18,0,0,0,.56,2.43l17.88,44.7,10,28.76-3.17-.35a8.25,8.25,0,0,0-9.09,7.3,8.33,8.33,0,0,0,.06,2.23l7,42.23-1.75,40.43a8.3,8.3,0,0,0,.86,4l10.16,20.33,1.15,8L217,568.65l-11.16,14-16.77-2.78a8.23,8.23,0,0,0-8,3.17l-21.53,28.73a8.21,8.21,0,0,0-1.51,6.36l3.75,21.38-23,1.28a8.24,8.24,0,0,0-4.66,14.67L238.22,738a8.24,8.24,0,0,0,6,1.74l62.12-6.9,93.31,48.37,97.7,111.9a8.27,8.27,0,0,0,7.3,2.75l79.64-10.63,60.09,8.35,16.19,21.55-31.29,52.72a8.23,8.23,0,0,0,5.23,12.21l22,5.1,22.18,13.63a8.23,8.23,0,0,0,11.33-2.71,8.32,8.32,0,0,0,1.06-2.71l32.31-165.13a8.27,8.27,0,0,0-.45-4.69l-16-39-5.25-19.27a8.26,8.26,0,0,0-4.25-5.19l-16.75-8.37,1.34-29.78L706.2,707.2,718,715.05a8.24,8.24,0,0,0,12.7-8.2l-3.6-21.55a8.25,8.25,0,0,0-7.64-6.86L695.65,677l-3.45-24,15.13-4.65,68.42,5.25a8.23,8.23,0,0,0,7.08-3.06l2.58-3.25,8.14,5.1a8.25,8.25,0,0,0,9.2-.33l24.65-17.79,24.29,45.51A8.24,8.24,0,0,0,867,677.51l1.8-9a8.08,8.08,0,0,0-.24-4.08l-19.72-62.82a8.28,8.28,0,0,0-2.43-3.71l-23.16-20.27,20.88-29.84a8.24,8.24,0,0,0,0-9.44L832,521l-25.72-56.58,3.1-37.13,9.47-6.75a8.26,8.26,0,0,0,3.23-4.86l4.71-20.4,4.77-3.58A8.23,8.23,0,0,0,834,381.45l-5.38-10.76a8.24,8.24,0,0,0-5.88-4.43L803,362.66a8.1,8.1,0,0,0-2.69,0L720.13,374.6l-47.29-49a8.25,8.25,0,0,0-5.16-2.49L630,319.54a8.08,8.08,0,0,0-2.14.11l-21.18,3.53-41.37,3.19-9.92-15.58a8.15,8.15,0,0,0-4.34-3.38l-6.85-2.3L536,280.54l8.53-12.8a8.24,8.24,0,0,0-1-10.4l-22.7-22.72v-23.5a8.24,8.24,0,0,0-5.36-7.71l-20.92-7.85,6-15.59c0-.11.07-.23.11-.34l12.56-37.7a8.06,8.06,0,0,0,.35-1.43l3.21-22.57,25.16-26.8c.2-.22.4-.46.58-.7l20.1-26.8,49.8-18.9a8.24,8.24,0,0,0,5.21-9L614,14.13a8.24,8.24,0,0,0-6.42-6.71L573.47.24a8.05,8.05,0,0,0-1.63-.17Z"/></svg>
