<svg xmlns="http://www.w3.org/2000/svg" viewBox="0 0 1000 1000"><title>copy-to-clipboard</title><path d="M747.71,138.23c.45.88.62,1.89,1,2.78a93.49,93.49,0,0,1,4.85,13c.65,2.15,1.49,4.18,2,6.4a94.87,94.87,0,0,1-92.52,116H336.93a94.37,94.37,0,0,1-92.52-116c.5-2.22,1.34-4.25,2-6.4a93.49,93.49,0,0,1,4.85-13c.42-.89.59-1.9,1-2.78H137.14V1000H862.86V138.23ZM638.23,664.15H525.92V776.47a25.92,25.92,0,1,1-51.84,0V664.15H361.77a25.92,25.92,0,1,1,0-51.84H474.08V500a25.92,25.92,0,1,1,51.84,0V612.31H638.23a25.92,25.92,0,0,1,0,51.84Z"/><path d="M336.93,224.63H663.07a43.2,43.2,0,0,0,0-86.4H622a25.92,25.92,0,0,1-25.91-25.92V34.56A34.61,34.61,0,0,0,561.56,0H438.44a34.61,34.61,0,0,0-34.56,34.56v77.75A25.92,25.92,0,0,1,378,138.23h-41a43.2,43.2,0,1,0,0,86.4Z"/></svg>
