<svg data-name="Layer 1" xmlns="http://www.w3.org/2000/svg" viewBox="0 0 1000 1000"><path d="M934.74 0H312.63a65.59 65.59 0 0 0-65.26 65.26v128.42h440a120 120 0 0 1 120 120v439h127.37a65.59 65.59 0 0 0 65.26-65.31V65.26A65.59 65.59 0 0 0 934.74 0z"/><path d="M687.37 248.42H65.26C29.47 248.42 0 276.84 0 312.63v622.11A65.59 65.59 0 0 0 65.26 1000h622.11a65.59 65.59 0 0 0 65.26-65.26V312.63c0-35.79-29.47-64.21-65.26-64.21zM571.58 651.58H403.16V819c0 14.73-12.63 27.37-27.37 27.37s-27.37-12.69-27.37-27.37V651.58H181.05c-14.73 0-27.37-12.63-27.37-27.37s12.64-27.37 27.37-27.37h167.37V428.42c0-14.74 12.63-27.37 27.37-27.37s27.37 12.63 27.37 27.37v167.37h167.37c14.73 0 27.36 12.63 27.36 27.37s-11.57 28.42-26.31 28.42z"/></svg>