<svg id="Layer_1" data-name="Layer 1" xmlns="http://www.w3.org/2000/svg" viewBox="0 0 1000 1000"><title>dominican-republic</title><path d="M68.54,233.62c-4.45,4.46,5.57,8.91,6.69,12.26,2.23,6.68-4.46,11.13-1.12,18.93,2.23,4.46,5.57,7.8,7.8,12.26,1.12,2.22,1.12,5.57,2.23,7.79,0,1.12,3.34,2.23,3.34,2.23,1.12,3.34-1.11,4.46-1.11,7.8s1.11,5.57,1.11,8.91c1.12,6.69-2.23,11.14-2.23,17.83s1.12,6.68-5.57,7.79c-7.79,2.23-13.36,6.69-20.05,10,2.23,2.23,4.46,3.34,6.69,6.68,1.11,3.34,1.11,7.8,5.57,7.8,0,2.23,0,3.34,1.11,4.46,1.11-1.12,1.11-2.23,2.23-4.46,5.57,4.46,6.68,11.14,15.59,12.25,3.35,1.12,6.69,0,8.92,2.23s1.11,6.69,4.45,5.57c-3.34,1.12-4.45,4.46-1.11,5.57-1.12,1.12-2.23,1.12-4.46,2.23l2.23,2.23c-2.23,0-3.34,1.11-2.23,2.23,0,1.11,0,3.34,1.12,4.45-1.12,1.12-3.35,1.12-4.46,1.12,8.91,4.45-3.34,6.68-6.68,7.79,0,0,0,2.23-1.12,2.23A4.07,4.07,0,0,0,84.14,403c-4.46,4.45,0,1.11-1.11,5.57H79.68c0,1.11,2.23,2.22,2.23,2.22-1.11,3.35-7.8,6.69-10,8.91-2.23,1.12-3.35,2.23-5.57,3.35,0,2.22-1.12,3.34-3.34,2.22-1.12,1.12-2.23,2.23-1.12,4.46-5.57,0,0,4.46-3.34,6.68-1.11,0-1.11-3.34-2.23-3.34-2.23,0-3.34,2.23-5.57,2.23S48.49,433,46.27,433s-2.23,2.23-3.35,4.46c-4.45,3.34-7.79,5.57-8.91,12.25,2.23-1.11,7.8-1.11,5.57-4.45,0-1.12,4.46,1.11,5.57,1.11-2.23-4.46,14.48,0,16.71,4.46,1.12,2.22,0,5.57,2.23,7.79,1.11,2.23,4.45,3.35,6.68,5.57,1.12,1.12,6.69,5.57,6.69,4.46,2.22,4.46,0,15.6,0,20.05,0,6.68,0,18.94-5.57,24.51-3.35,3.34-7.8,3.34-11.14,5.57-2.23,1.11-5.57,6.68-6.69,8.91-1.11,3.34,1.12,7.8-1.11,10-3.34,3.34-7.8,1.11-11.14,1.11-7.8,0-13.37-2.23-20-3.34-6.69,0-16.71-3.34-21.17,4.45-2.23,5.57,2.23,3.35,6.69,6.69,5.57,3.34,4.45,7.8,5.57,13.37,3.34,8.91,14.48,14.48,22.28,18.93-5.57,3.34-2.23,1.12-1.12,1.12-3.34,1.11-6.68,1.11-10,2.22,2.22,5.57,4.45,7.8,10,11.14,5.57,1.12,7.8,5.57,12.26,10,10,8.91,24.5,13.37,36.76,18.94-5.57,10-13.37,20.05-17.83,30.08C63,656.93,57.41,667,59.63,671.41c1.12,2.23,8.91,5.57,8.91,6.69,1.12,2.22,0,8.91,1.12,11.14,2.23,8.91-1.12,12.25-4.46,20,7.8,3.34,20,12.25,24.51,18.94,3.34,4.45,4.46,8.91,2.23,13.36s-4.46,2.23-1.12,7.8c2.23,5.57,12.26,14.48,7.8,21.17-2.23,2.22-5.57,4.45-7.8,6.68-2.22,3.34-3.34,5.57-7.79,6.68,7.79,6.69,17.82,1.12,26.73,1.12,7.8,0,15.6,2.23,21.17,7.8s6.68,13.36,10,20c4.46,6.68,12.26,12.25,14.48,20.05,11.14-14.48,15.6-30.08,22.28-46.79,2.23-5.57,4.46-11.14,10-14.48,2.23-1.11,4.46,0,5.57-3.34,1.11-1.12-1.11-4.46,0-5.57a2.4,2.4,0,0,1,2.23,2.23c5.57-8.92,13.37-12.26,18.94-21.17,3.34-5.57,6.68-11.14,10-15.6s7.8-7.79,10-12.25c5.57-8.91,13.36-17.82,17.82-26.73,2.23-4.46,4.46-11.14,2.23-15.6s-7.8-7.8-7.8-13.37c5.57,0-1.11-6.68-1.11-7.8-2.23-4.45-3.35-8.91,0-13.36,4.45-5.57,12.25-7.8,18.93-6.69,8.92,0,8.92,5.57,13.37,11.14,7.8,10,20,1.12,25.62-6.68,3.34-4.46,4.46-10,7.8-13.37,2.23-2.23,6.68-3.34,5.57,1.12,1.11,0,2.23-1.12,2.23-3.35,3.34,2.23,4.45-2.22,4.45-4.45,7.8,4.45,18.94,6.68,25.63-2.23,2.22-3.34,2.22-8.91,4.45-12.25,6.69-10,29-3.35,33.42,4.45,3.34,6.69,2.23,15.6,0,22.28-2.23,8.91-3.34,12.26,4.46,17.83,2.22,2.22,11.14,5.56,12.25,8.91,1.11,5.57-11.14,4.45-8.91-2.23-3.34,1.11-3.34,4.45-5.57,5.57,1.11,2.23,11.14,3.34,13.37,3.34,7.79,2.23,13.36-1.11,20.05-4.46,7.8-4.45,13.37-5.57,22.28-5.57,8.91,1.12,17.82-2.22,26.73-1.11,3.34,0,5.57,2.23,7.8,2.23,3.34,0,6.68-1.12,10-1.12,5.57,0,11.14,1.12,15.59-3.34s6.69-11.14,11.14-15.59a141.65,141.65,0,0,0,14.48-21.17c3.35-5.57,5.57-11.14,11.14-13.37s11.14-2.22,16.71-5.57c6.69-3.34,12.26-7.79,18.94-8.91s14.48,0,22.28,0c11.14,0,24.51-1.11,31.19,8.91,2.23,3.35,5.57,11.14,11.14,10,6.68-1.11,1.11-10,6.68-13.37s12.26,4.46,15.6,7.8c6.68,4.46,12.25,4.46,20.05,2.23,8.91-2.23,18.94-4.46,27.85-4.46,3.34,0,8.91,1.12,12.25,0,4.46-2.23,3.35-5.57,6.69-7.8-1.12,7.8,12.25,4.46,16.71,3.35,6.68-1.12,12.25-4.46,16.71,1.11,0,1.11-1.12,1.11-1.12,2.23,5.57,5.57,15.6,6.68,23.4,7.8,10,2.22,20.05,3.34,30.07,1.11,7.8-1.11,11.14-5.57,17.83-4.46,8.91,1.12,17.82,4.46,24.51,11.14,13.36,11.14,20,27.85,25.62,43.45,1.11,1.11,0,4.45,2.22,4.45,4.46,0-1.11-3.34,0-4.45,2.23-1.12,6.69,1.11,2.23,3.34,1.12,0,7.8-2.23,10-2.23,4.45,0,11.14-2.23,16.71,1.12,1.11-4.46,0-8.91,1.11-12.26,1.12-5.57,3.34-7.79,5.57-12.25,2.23-3.34,4.46-7.8,3.34-12.25-1.11-3.35-4.45-5.57-2.22-8.92,3.34-4.45,10,1.12,13.36,2.23,6.69,3.34,14.48,7.8,21.17,6.69,8.91-1.12,10-7.8,11.14-15.6,1.11-10,4.45-12.25,10-18.94s8.92-14.48,13.37-22.28c3.34-5.57,7.8-13.36,6.69-20-1.12-8.91-7.8-13.37-15.6-16.71-8.91-4.45-13.37-11.14-21.17-17.82-13.36-10-26.73-17.82-39-30.08-14.49-14.48-26.74-29-45.68-39-8.91-4.45-17.82-4.45-26.73-6.68-6.69-2.23-12.26-8.91-18.94-10-3.34,0-6.68,1.12-10,2.23-1.11,0-1.11,1.11-2.22,2.23-1.12,0-3.35-1.12-5.57,0-4.46,3.34,1.11,10-8.92,11.14-6.68,0-14.48-4.46-20-8.91-2.23-2.23-11.14-13.37-13.36-6.69,5.57-4.45,8.91,10,3.34,11.14-1.12,0-5.57-3.34-8.91-4.45-2.23,0-5.57,1.11-7.8,1.11-2.23-1.11-3.34-3.34-5.57-3.34-5.57-2.23-11.14,0-16.71-2.23a47.35,47.35,0,0,0-13.37-4.46c-3.34-1.11-18.94-4.45-13.37-10-7.79-5.57-17.82-7.8-26.73-2.23,1.11,0,16.71-2.23,10,4.46-2.22,2.22-12.25-2.23-14.48-2.23-3.34,0-6.68,1.11-11.14,1.11s-6.68-2.22-11.14-1.11c-10,1.11-13.37,3.34-20.05-5.57,11.14,1.11,1.11-26.74,8.91-32.31,5.57-3.34,17.83,1.12,24.51,2.23,10,1.12,22.28,2.23,32.31,7.8,0,0,8.91-3.34,10-3.34a60.24,60.24,0,0,1,20.05,0c12.26,2.23,18.94,7.8,24.51-5.57,2.23-4.46,3.34-6.69,7.8-11.14,2.23-2.23,7.8-6.69,8.91-10,1.11-10-21.17,1.12-27.85-2.23,1.11-2.22,16.71-20.05,6.68-20.05-3.34,0-2.22,2.23-3.34,3.34-2.23,1.12-3.34,1.12-5.57,2.23-3.34,2.23-8.91,4.46-12.25,6.69-2.23,2.22-4.46,10-6.69,10-3.34,1.12-4.45-3.34-6.68-4.45s-5.57-1.12-7.8-2.23c-1.11,0-2.23-1.12-3.34-1.12,1.11,0-1.11-1.11-2.23-1.11s-2.22,1.11-4.45,1.11c-1.12,0-2.23-2.22-4.46-2.22h-4.45c-5.57,0-11.14-1.12-16.71-1.12-12.26,1.12-21.17,8.91-33.42,11.14-11.14,1.12-20.06,5.57-31.19,1.12a49.26,49.26,0,0,1-12.26-8.92,134.38,134.38,0,0,0-11.14-15.59c-6.68-8.91-8.91-20.05-8.91-32.31,0-11.14-10-14.48-6.68-25.62,1.11-4.45,4.45-8.91,2.22-14.48S565.38,250.33,562,247c-4.45-3.34-6.68-6.68-12.25-6.68-5.57-1.12-11.14,0-16.71,1.11-10,2.23-11.14,13.37-21.16,14.48-12.26,2.23-25.63-3.34-36.77-5.57-22.27-3.34-29-20.05-44.55-34.53-8.92-7.8-16.71-8.91-25.63-2.23-6.68,5.57-25.62,4.46-33.41,0-8.92-4.46-16.71-12.25-25.63-17.82-4.45-2.23-10,1.11-13.36-1.12s0-6.68-4.46-6.68c0-1.12,0-1.12,1.11-1.12-3.34-3.34-6.68-6.68-10-8.91-4.46-3.34-4.46-3.34-11.14-3.34-3.34,0-22.28-4.45-15.6,3.34-1.11-1.11-7.79,0-6.68-3.34,1.11,1.11,2.23,0,3.34,0-8.91-10-26.73-10-34.53,0-4.46,5.57-4.46,10-12.26,11.14C239,186.83,229,184.61,226.73,188c2.23,2.23,2.23-3.34,4.45,0-1.11,0-5.57,6.68-6.68,4.45,5.57,0-5.57-7.79-7.8-7.79-2.22,4.45,0,8.91-6.68,10-4.46,2.23-10,0-14.48-2.23-10-3.34-21.17-4.45-30.08-8.91s-16.71-11.14-27.85-11.14c-7.8-1.11-23.39-3.34-30.08,2.23-2.22,2.23-1.11,4.46-4.45,4.46s-4.46-5.57-7.8-3.35c-2.23,2.23,2.23,4.46,2.23,6.69,0,4.45-5.57,7.8-8.91,10-2.23,1.12-34.54,16.71-24.51,22.28-1.12-1.11,4.45-7.79,5.57-8.91,4.45,6.69,4.45,20,8.91,24.51-1.11,6.68-8.91-3.34-10,3.34Z"/></svg>