<svg data-name="Layer 1" xmlns="http://www.w3.org/2000/svg" viewBox="0 0 1000 1000"><path d="M702.63 479.46v455.28A15.66 15.66 0 0 1 687.37 950H65.26A15.66 15.66 0 0 1 50 934.74V312.63c0-7.83 6.85-14.21 15.26-14.21H520l50-50H65.26C29.47 248.42 0 276.84 0 312.63v622.11A65.59 65.59 0 0 0 65.26 1000h622.11a65.59 65.59 0 0 0 65.26-65.26V429.46z"/><path d="M435.65 450.22l-4.42 4.42a65 65 0 0 0-18.31 37.89l-12.63 90.92a14.67 14.67 0 0 0 16.41 16.42l90.3-12a65.14 65.14 0 0 0 37.89-18.31l4.42-4.42zm554.4-375.71l-64.4-63.78A35.43 35.43 0 0 0 900.39 0a34 34 0 0 0-25.26 10.73L813.88 72 457.75 428.12 572 542.41 917.44 197l72.61-72.62c13.27-13.25 13.27-35.98 0-49.87zM968 102.93l-39.78 39.14L858.08 72l39.78-39.8a4.86 4.86 0 0 1 3.14-1.26c1.26 0 1.9.63 3.16 1.26l64.41 64.41a4.84 4.84 0 0 1 1.26 3.16c-.61 1.23-1.24 1.89-1.83 3.16z"/></svg>