<svg xmlns="http://www.w3.org/2000/svg" viewBox="0 0 1000 1000"><title>external</title><path d="M948.75,324.14,879.25,221,676.59,423.64a20.76,20.76,0,0,1-29.26,0l-73.16-73.16a20.76,20.76,0,0,1,0-29.27L776.82,118.56l-101-67.31c-16.83-11-8.78-36.58,11-37.31L978.74,0c12.44-.73,22,8.78,21.22,21.22l-13.9,291.9C984.6,333.65,959.72,341,948.75,324.14Z"/><path d="M826.32,355.25V810.53a15.67,15.67,0,0,1-15.27,15.26H189a15.67,15.67,0,0,1-15.27-15.26V188.42c0-7.83,6.85-14.21,15.27-14.21H643.67l50-50H189c-35.79,0-65.27,28.42-65.27,64.21V810.53c0,35.79,29.48,65.26,65.27,65.26h622.1c35.79,0,65.27-29.47,65.27-65.26V305.25Z"/></svg>
