<svg id="Layer_1" data-name="Layer 1" xmlns="http://www.w3.org/2000/svg" viewBox="0 0 1000 1000"><title>file-zip</title><path d="M670.62,781.61h-28v53.3h28c21.13,0,31.2-10.07,31.2-26.65S691.75,781.61,670.62,781.61Z"/><path d="M547.93,578.5H449.26c-7.28,0-15.8,4.78-15.8,12v13.53c0,7.26,8.52,13.42,15.8,13.42h98.67c7.28,0,15.53-6.16,15.53-13.42V590.55C563.46,583.28,555.21,578.5,547.93,578.5Z"/><path d="M515.66,0a14,14,0,1,1,0,27.94H438.73a14,14,0,1,1,0-27.94H100V1000H900V0Zm-27,43.27h77a14,14,0,0,1,0,27.92h-77a14,14,0,1,1,0-27.92Zm77,203h-77a14,14,0,1,1,0-27.93h77a14,14,0,0,1,0,27.93Zm12.48,74.39a14,14,0,0,1-14,14h-77a14,14,0,0,1,0-27.94h77A14,14,0,0,1,578.07,320.69ZM565.59,158.74h-77a14,14,0,1,1,0-27.94h77a14,14,0,0,1,0,27.94ZM438.73,87.59h76.93a14,14,0,1,1,0,27.91H438.73a14,14,0,1,1,0-27.91Zm0,87.56h76.93a14,14,0,1,1,0,27.93H438.73a14,14,0,1,1,0-27.93Zm-1.52,88.37h77a13.95,13.95,0,1,1,0,27.89h-77a13.95,13.95,0,1,1,0-27.89Zm0,87.54h77a14,14,0,1,1,0,27.94h-77a14,14,0,0,1,0-27.94ZM429.8,950h-209V902.83l104-120.89H224.08V722.46H424.6v47.13l-104,120.9H429.8Zm99.13,0h-76.7V722.46h76.7Zm-91-300c-8.94,0-17.42-7.77-17.42-16.71V439c0-8.95,8.48-16.52,17.42-16.52H559.3c9,0,17.16,7.57,17.16,16.52V633.29c0,8.94-8.21,16.71-17.16,16.71ZM675.5,894.06H642.67V950H566V722.46H675.5c63.37,0,103.67,33.15,103.67,85.8S738.87,894.06,675.5,894.06Z"/></svg>