<svg id="Layer_1" data-name="Layer 1" xmlns="http://www.w3.org/2000/svg" viewBox="0 0 1000 1000"><title>file-csv</title><path d="M100,1000H900V752H100ZM632,786.57l41.75,102.25L716.5,786.57h58l-74,175h-58l-74-175Zm-217,55c0-32.5,27.25-59,81.5-59,23.5,0,47.75,5,66,15.25l-17.75,42.75c-17.25-8.75-33.5-13-48.75-13-17.25,0-22.75,5-22.75,11,0,21,96.75,3.5,96.75,68,0,32-27.25,59-81.5,59-29.25,0-58.75-7.25-76.25-18l19-43c16.5,9.75,38.5,16,57.75,16,16.75,0,22.75-3.5,22.75-9.5C511.75,889.07,415,906.82,415,841.57Zm-84.75-59c34.25,0,61.25,12.5,78.5,35L371.5,850.82c-10.25-13-22.5-20.5-38.25-20.5-24.5,0-41,17-41,43.75s16.5,43.75,41,43.75c15.75,0,28-7.5,38.25-20.5l37.25,33.25c-17.25,22.5-44.25,35-78.5,35-56.25,0-97.5-37.75-97.5-91.5S274,782.57,330.25,782.57Z"/><path d="M100,0V742H900V0ZM266.67,691.71H150V575H266.67Zm0-175H150V400H266.67Zm0-175H150V225H266.67Zm0-175H150V50H266.67Zm291.66,525H325V575H558.33Zm0-175H325V400H558.33Zm0-175H325V225H558.33Zm0-175H325V50H558.33ZM850,691.71H616.67V575H850Zm0-175H616.67V400H850Zm0-175H616.67V225H850Zm0-175H616.67V50H850Z"/></svg>