<svg id="Layer_1" data-name="Layer 1" xmlns="http://www.w3.org/2000/svg" viewBox="0 0 1000 1000"><title>file-zip</title><path d="M100,1000H900V752H100ZM550.75,785.3H635c48.75,0,79.75,25.5,79.75,66s-31,66-79.75,66H609.75v43h-59Zm-87.5,0h59v175h-59Zm-178,138.75,80-93h-77.5V785.3H442v36.25l-80,93h84V960.3H285.25Z"/><path d="M655.25,851.3c0-12.75-7.75-20.5-24-20.5h-21.5v41h21.5C647.5,871.8,655.25,864.05,655.25,851.3Z"/><path d="M548.92,590.42H448.21c-7.43,0-16.12,4.88-16.12,12.3v13.81c0,7.41,8.69,13.7,16.12,13.7H548.92c7.43,0,15.85-6.29,15.85-13.7V602.72C564.77,595.3,556.35,590.42,548.92,590.42Z"/><path d="M516,0a14.26,14.26,0,1,1,0,28.52H437.46a14.26,14.26,0,1,1,0-28.52H100V742H900V0ZM437.46,89.4H516a14.25,14.25,0,1,1,0,28.49H437.46a14.25,14.25,0,1,1,0-28.49Zm0,89.36H516a14.26,14.26,0,1,1,0,28.51H437.46a14.26,14.26,0,1,1,0-28.51ZM435.92,269h78.56a14.24,14.24,0,1,1,0,28.47H435.92a14.24,14.24,0,1,1,0-28.47Zm0,89.34h78.56a14.26,14.26,0,1,1,0,28.52H435.92a14.26,14.26,0,0,1,0-28.52ZM578,646.34c0,9.13-8.39,17.06-17.51,17.06H436.6c-9.13,0-17.78-7.93-17.78-17.06V448.07c0-9.14,8.65-16.86,17.78-16.86H560.53c9.12,0,17.51,7.72,17.51,16.86ZM565.43,341.57H486.87a14.26,14.26,0,0,1,0-28.52h78.56a14.26,14.26,0,0,1,0,28.52ZM567,251.38H488.39a14.26,14.26,0,1,1,0-28.51H567a14.26,14.26,0,0,1,0,28.51ZM567,162H488.39a14.26,14.26,0,1,1,0-28.51H567A14.26,14.26,0,0,1,567,162Zm0-89.35H488.39a14.25,14.25,0,1,1,0-28.5H567a14.25,14.25,0,0,1,0,28.5Z"/></svg>