<svg id="Layer_1" data-name="Layer 1" xmlns="http://www.w3.org/2000/svg" viewBox="0 0 1000 1000"><title>file-csv</title><path d="M100,0V1000H900V0ZM616.67,50H850V150H616.67Zm0,150H850V300H616.67Zm0,150H850V450H616.67Zm0,150H850V600H616.67ZM325,50H558.33V150H325Zm0,150H558.33V300H325Zm0,150H558.33V450H325Zm0,150H558.33V600H325ZM150,50H266.67V150H150Zm0,150H266.67V300H150Zm0,150H266.67V450H150Zm0,150H266.67V600H150ZM278.51,892.89c20.48,0,36.4-9.75,49.73-26.65l48.42,43.22C354.24,938.71,319.14,955,274.61,955c-73.12,0-126.75-49.07-126.75-119s53.63-118.94,126.75-118.94c44.53,0,79.63,16.25,102.05,45.5l-48.42,43.22c-13.33-16.9-29.25-26.65-49.73-26.65-31.85,0-53.3,22.1-53.3,56.87S246.66,892.89,278.51,892.89ZM480.34,955c-38,0-76.38-9.42-99.13-23.4l24.7-55.9c21.45,12.68,50,20.8,75.08,20.8,21.77,0,29.57-4.55,29.57-12.35,0-28.6-125.77-5.52-125.77-90.34,0-42.25,35.42-76.7,106-76.7,30.55,0,62.07,6.5,85.8,19.82l-23.08,55.57c-22.42-11.37-43.55-16.89-63.37-16.89-22.43,0-29.58,6.5-29.58,14.3,0,27.3,125.78,4.55,125.78,88.39C586.29,919.86,550.86,955,480.34,955Zm275.6-5.2h-75.4l-96.2-227.49h82.55l54.27,132.92,55.58-132.92h75.4Z"/></svg>