<svg data-name="Layer 1" xmlns="http://www.w3.org/2000/svg" viewBox="0 0 1000 1000"><path d="M500 0C224.21 0 0 224.21 0 500s224.21 500 500 500 500-224.21 500-500S775.79 0 500 0zm426.32 500c0 40-6.32 79-16.85 115.79-64.21-7.37-132.63-12.63-203.15-15.79 3.15-33.68 4.21-66.32 4.21-100s-1.06-66.32-4.21-100c71.57-3.16 138.94-8.42 203.15-15.79C920 421.05 926.32 460 926.32 500zM500 926.32c-42.11 0-98.95-95.79-124.21-255.79 82.1-2.11 166.32-2.11 249.47 0C600 830.53 542.11 926.32 500 926.32zM73.68 500c0-40 6.32-78.95 16.85-115.79 64.21 7.37 131.58 12.63 203.15 15.79-3.15 33.68-4.21 66.32-4.21 100s1.06 66.32 4.21 100c-71.57 3.16-140 8.42-204.21 15.79C80 579 73.68 540 73.68 500zM500 73.68c42.11 0 99 95.79 124.21 255.79-82.1 2.11-167.37 2.11-248.42 0 25.26-160 82.1-255.79 124.21-255.79zM636.84 500c0 33.68-1.05 66.32-4.21 96.84-87.37-2.1-178.95-2.1-266.31 0-2.11-30.52-4.21-63.16-4.21-96.84s1.05-66.32 4.21-96.84c44.21 1 88.42 2.1 133.68 2.1s89.47-1.05 133.68-2.1c2.11 30.52 3.16 63.16 3.16 96.84zm245.27-187.37c-59 6.32-120 10.53-184.22 13.69-13.68-90.53-37.89-174.74-72.63-233.69a423.81 423.81 0 0 1 256.85 220zm-507.37-220c-34.74 60-58.95 143.16-72.63 234.74-64.22-3.16-126.32-7.37-185.27-13.69 51.58-105.26 144.21-186.31 257.9-221.05zm-257.9 593.69c58.95-6.32 120-10.53 185.27-13.69 13.68 91.58 37.89 174.74 72.63 234.74-113.69-34.74-206.32-115.79-257.9-221.05zm508.42 221c34.74-60 59-143.16 72.63-233.69 64.22 3.16 125.27 7.37 184.22 13.69a423.81 423.81 0 0 1-256.85 220.05z"/></svg>