<svg data-name="Layer 1" xmlns="http://www.w3.org/2000/svg" viewBox="0 0 1000 1000"><path d="M500 50a450.13 450.13 0 0 1 175.15 864.66 450.13 450.13 0 0 1-350.3-829.32A447.21 447.21 0 0 1 500 50m0-50C223.86 0 0 223.86 0 500s223.86 500 500 500 500-223.86 500-500S776.14 0 500 0z"/><path d="M607 291.38q25.9-24.11 25.9-58.45T607 174.38q-25.9-24.33-62.34-24.38c-24.22 0-45.17 8.16-62.54 24.38s-26 35.71-26 58.55 8.73 42.38 26 58.45 38.32 24.12 62.54 24.12 45.08-8.06 62.34-24.12zm-39.8 537.18c31.17-14.58 47.65-42 31.47-54.52-9.33-7.21-21.55 4.72-30.47 4.72-19.16 0-32.67-3.13-40.41-9.45s-11.61-18.16-11.61-35.57c0-7 1.09-17.15 3.47-30.64s5.17-25.62 8.14-36.16l37-131.13a218.49 218.49 0 0 0 7.44-39.64c1.29-14.53 2-24.58 2-30.25q0-41.42-29.09-67.41c-19.25-17.25-46.85-26-82.58-26a191.29 191.29 0 0 0-63.13 10.59c-43.38 15.22-33.75 53-24.12 53 19.55 0 32.65 3.33 39.6 9.95s10.52 18.26 10.52 35.12a165.55 165.55 0 0 1-3.43 30.96c-2.29 11.25-5 23.23-8.34 35.82l-37.24 131.62q-4.77 20.74-7.15 37.21a239.86 239.86 0 0 0-2.18 32.29q0 40.51 29.87 66.9c20 17.66 50.63 34 86.56 34 23.33.03 56.68-8.67 83.68-21.41z"/></svg>