<svg id="Layer_1" data-name="Layer 1" xmlns="http://www.w3.org/2000/svg" viewBox="0 0 1000 1000"><title>menu</title><path d="M0,167.37H0a87.16,87.16,0,0,0,87.37,87.37H912.63A87.16,87.16,0,0,0,1000,167.37h0A87.16,87.16,0,0,0,912.63,80H87.37A87.16,87.16,0,0,0,0,167.37Z"/><path d="M87.37,587.37H912.63A87.16,87.16,0,0,0,1000,500h0a87.16,87.16,0,0,0-87.37-87.37H87.37A87.16,87.16,0,0,0,0,500H0A87.16,87.16,0,0,0,87.37,587.37Z"/><path d="M87.37,920H912.63A87.16,87.16,0,0,0,1000,832.63h0a87.16,87.16,0,0,0-87.37-87.37H87.37A87.16,87.16,0,0,0,0,832.63H0A87.16,87.16,0,0,0,87.37,920Z"/></svg>