<svg data-name="Layer 1" xmlns="http://www.w3.org/2000/svg" viewBox="0 0 1000 1000"><path d="M0 167.37a87.16 87.16 0 0 0 87.37 87.37h825.26a87.16 87.16 0 0 0 87.37-87.37A87.16 87.16 0 0 0 912.63 80H87.37A87.16 87.16 0 0 0 0 167.37zM87.37 587.37h825.26A87.16 87.16 0 0 0 1000 500a87.16 87.16 0 0 0-87.37-87.37H87.37A87.16 87.16 0 0 0 0 500a87.16 87.16 0 0 0 87.37 87.37zM87.37 920h825.26a87.16 87.16 0 0 0 87.37-87.37 87.16 87.16 0 0 0-87.37-87.37H87.37A87.16 87.16 0 0 0 0 832.63 87.16 87.16 0 0 0 87.37 920z"/></svg>