<svg xmlns="http://www.w3.org/2000/svg" viewBox="0 0 1000 1000"><title>morocco</title><path d="M735.33,17.16a8.55,8.55,0,0,0-3.15.67L697.65,32.61a8.3,8.3,0,0,0-4.81,5.65l-12,48.13-38,64-37,25.44-53.3,19.4a8.3,8.3,0,0,0-3.21,2.1L510,239.15a8.43,8.43,0,0,0-2,3.77l-9.22,38.89-29.4,20.27a8.34,8.34,0,0,0-3.59,6.42L463.49,352l-7.22,26.35a8.32,8.32,0,0,0,5.82,10.23,8.65,8.65,0,0,0,2.21.29h11.43v15.91l-23,29.8a7.8,7.8,0,0,0-.67,1l-21,37.39-39.91,23.61-.13.11-62.28,38.26-47.18,2.38a8.35,8.35,0,0,0-6.86,4.24L229.2,623l-51.78,23.44A8.34,8.34,0,0,0,172.8,652l-17.25,66.43-6.53,22L96.72,783.1l-.37.28L69.29,808.14a8.31,8.31,0,0,0-1,11.18l4.12,5.44-28.78,51L9.91,909.33a8.38,8.38,0,0,0-2.37,4.78L.08,968.38a8.32,8.32,0,0,0,7.11,9.39c.32,0,.64.07,1,.08l261.38,5a8.33,8.33,0,0,0,8.48-8.16V876.89l3.89-16,17.68-13.74h29.21a8.32,8.32,0,0,0,8.29-7.57L351.17,684.7l189.43,2.24a8.34,8.34,0,0,0,8.38-7.86l9.74-173.18,66-43.27,101.19-4.86a8.33,8.33,0,0,0,5.92-2.91l29-33.9,90.67-70.9a8.32,8.32,0,0,0-2.19-14.34c0-.11-.57.4.15-2.41v-.11c.77-3.1,4.29-10.6,7.55-16.51,2.53-4.6,3.89-6.75,4.82-8.25L893.53,297a8.32,8.32,0,0,0,5.43-9l-1.33-9.05,49.48-8.34,42.76,9.59a8.32,8.32,0,0,0,9.93-6.31,8.16,8.16,0,0,0,.2-1.78V232.55a8.3,8.3,0,0,0-3.54-6.79L974.2,210.09l-16.15-50.57-4.88-60.65a8.34,8.34,0,0,0-2.67-5.45L920.94,66.19a8.28,8.28,0,0,0-3.77-2l-28.82-6.58-8-12a8.32,8.32,0,0,0-11.53-2.37,8.11,8.11,0,0,0-1.29,1.05L848.78,63l-12.6-3.52a8.32,8.32,0,0,0-2.72-.28l-40,2.21-22.88-9.09h0l-21-8.29-6.17-20.86a8.33,8.33,0,0,0-8.11-6Z"/></svg>
