<svg xmlns="http://www.w3.org/2000/svg" viewBox="0 0 1000 1000"><title>oman</title><path d="M493.39,0a8.24,8.24,0,0,0-8.16,7.07L478,57.44a8.09,8.09,0,0,0-.07,1.63l1.85,34.05a8.24,8.24,0,0,0,8.22,7.79h12.59l3.38,7.34-43.2,1.45a8.25,8.25,0,0,0-8,8.51,8.7,8.7,0,0,0,.41,2.32l8,24L426.5,224.18a8.45,8.45,0,0,0-.63,2.43l-5.38,52.08a8.33,8.33,0,0,0,.93,4.8l41.52,76L395,587.64,66.47,704.85a8.24,8.24,0,0,0-5,10.53c.07.17.13.34.21.51L182.47,995a8.23,8.23,0,0,0,10.74,4.32l31.4-13.13,23.57,1.15a8.25,8.25,0,0,0,6.25-2.43l12.28-12.41,21.55-5.65,66.19-9.44,4.6,5.45a8.24,8.24,0,0,0,6.3,2.93h21.72a8.25,8.25,0,0,0,5-1.69l36.81-28a8.28,8.28,0,0,0,3-4.67l6.31-26.65a8.23,8.23,0,0,0-.67-5.62l-4.93-9.74,17.23-16.13a8.2,8.2,0,0,0,2.57-5.18l.65-6.62,48-10,47.74-2.6a8.25,8.25,0,0,0,5.73-2.74l20.34-22.8a8.3,8.3,0,0,0,1.93-4l8.4-44.87,16.84-20.23,29.16-17.56,62.89-9.85,18.73-1.22a8.24,8.24,0,0,0,7.7-8.75,8.39,8.39,0,0,0-.23-1.49l-19.64-77.23,42.9-99,2-.41-3.34,5.21a8.23,8.23,0,0,0,2.46,11.39,8,8,0,0,0,2.94,1.17L781.8,563a8.23,8.23,0,0,0,8.83-4.3L842.93,458l39.72-21.75a8.3,8.3,0,0,0,3.17-3.08l35.57-61a8.14,8.14,0,0,0,.49-1l16.5-39.28a8.29,8.29,0,0,0,.63-3.19V298.18a8.25,8.25,0,0,0-6.9-8.14l-35-5.79-95.55-117.6a8.18,8.18,0,0,0-4.21-2.74L636.31,119.58l-42.92-49.7L554.13,7.55A8.24,8.24,0,0,0,542.76,5,8,8,0,0,0,541,6.51L525.31,24.35,519.06,5.62A8.24,8.24,0,0,0,511.25,0Z"/></svg>
