<svg xmlns="http://www.w3.org/2000/svg" viewBox="0 0 1000 1000"><title>panama</title><path d="M21.89,290.4l-3.37,42.09,1.68,57.24,37,26.94L26.94,433.5l-5.05,16.84L35.35,463.8,30.3,499.16,0,510.94l3.37,13.47,26.93,37,1.69-37L53.87,516l57.24,11.79,79.12,18.52,37,11.78,25.26,62.29,55.55,18.52,6.73-47.14,25.26,6.73L362,702.86l77.44,1.69,16.84-35.36h55.55l-8.41-35.35L457.91,580,439.39,566.5l-10.1-25.25,8.42-15.16,33.67-1.68,85.86-58.92-3.37-37,37-15.15,23.57-13.47h57.24l42.09,33.67,50.5,25.25,25.25,65.66,16.84-33.67L835,509.26l-32,40.4-6.73,11.79H782.83l-3.37,21.88,20.2,16.84,6.74,25.25,26.93,35.36L867,709.6l13.47-45.46,18.52-5-1.68-43.77,26.93,42.09,28.62-35.36,16.84-1.68L963,598.49,973.06,585l26.94-1.69-47.14-92.59,1.68-32-21.88-8.42-30.3-28.62L873.74,378l-35.36-21.89-79.12-28.62-58.92-1.68L665,322.39l-3.36-13.47H617.85l-26.94-10.1H572.39l-53.87,48.82-40.41,26.94-69,13.47L373.74,415l-52.19,20.2-69,6.73-60.61-65.66L197,391.41l20.2,25.26-57.24-6.74-32-10.1-5-23.57s60.6-5.05,52.18-5.05-52.18-5-52.18-5l-11.79-18.52-1.68-16.83L74.07,307.24,62.29,319,48.82,307.24Z"/></svg>
