<svg xmlns="http://www.w3.org/2000/svg" viewBox="0 0 1000 1000"><title>peru</title><path d="M491.1,0A8.18,8.18,0,0,0,483,7.68l-2.45,39.15L457,110.39l-110.11,44a8.11,8.11,0,0,0-4,3.47L287,253.39,264.06,236.2a8.22,8.22,0,0,0-3.9-1.59l-34.07-4.25-6.75-51.74a8.19,8.19,0,0,0-14.67-3.84l-53,70.62a8.18,8.18,0,0,0-.86,8.42l21.24,44.86-11.46,32.11a8.21,8.21,0,0,0,5,10.47l.46.15,57.55,16.77,46.27,73.07a7.91,7.91,0,0,0,1.37,1.63l31.61,29.19,127.3,267.1,2.41,28.77a8.22,8.22,0,0,0,1.87,4.56L484.87,823a8,8,0,0,0,2.33,1.91l176,98.05,95.33,75.26A8.2,8.2,0,0,0,770,996.88l0,0,73.13-93.31a8.18,8.18,0,0,0,.76-8.94l-31.16-57.54,16.56-54.38,10-24.91a8.48,8.48,0,0,0,.54-2.22l5-50.13,5-27.4a8.11,8.11,0,0,0-.65-4.95L808.81,587.3a8.18,8.18,0,0,0-7.73-4.68l-58.44,2.17,8.86-68.6a8.19,8.19,0,0,0-11.44-8.55l-44.29,19.7-31.95,4L658,508.09a8.19,8.19,0,0,0-5.54-5.83l-28.75-8.86L615,467.14a8.11,8.11,0,0,0-.43-1.06l-33.31-66.6L593.51,379l14.43-14.41a8.1,8.1,0,0,0,2.19-4l5-22.33L634,279l116.1-50.81h21a8.17,8.17,0,0,0,8.19-8.18,8.08,8.08,0,0,0-.86-3.67l-13.15-26.3L790.82,146a8.18,8.18,0,0,0-3-11.18,7.31,7.31,0,0,0-1.33-.62l-63-22.7a8.16,8.16,0,0,0-3.17-.48l-52.95,2.54a8.08,8.08,0,0,0-2.58.54l-39.65,15.41L588.48,81.4l-.22-.26-63-75.67a8.18,8.18,0,0,0-5.56-2.91L491.91,0q-.41,0-.81,0Z"/></svg>
