<svg data-name="Layer 1" xmlns="http://www.w3.org/2000/svg" viewBox="0 0 1000 1000"><path d="M500 0C224.21 0 0 224.21 0 500s224.21 500 500 500 500-224.21 500-500S775.79 0 500 0zm232.63 500c0 31.58-26.31 57.89-57.89 57.89H557.89v116.85c0 31.58-26.31 57.89-57.89 57.89-31.58 0-57.89-26.31-57.89-57.89V557.89H325.26c-31.58 0-57.89-26.31-57.89-57.89 0-31.58 26.31-57.89 57.89-57.89h116.85V325.26c0-31.58 26.31-57.89 57.89-57.89 31.58 0 57.89 26.31 57.89 57.89v116.85h116.85c31.58 0 57.89 26.31 57.89 57.89z"/></svg>