<svg id="Layer_1" data-name="Layer 1" xmlns="http://www.w3.org/2000/svg" viewBox="0 0 1000 1000"><title>question</title><path d="M500,50A450.13,450.13,0,0,1,675.15,914.66,450.13,450.13,0,0,1,324.85,85.34,447.21,447.21,0,0,1,500,50m0-50C223.86,0,0,223.86,0,500s223.86,500,500,500,500-223.86,500-500S776.14,0,500,0Z"/><path d="M525,381c0-30.44-29.46-46.15-65.78-46.15-42.22,0-81.5,25.53-102.11,66.77L182.3,314.24C232.37,220,331.54,155.18,488.63,155.18c154.15,0,269,64.81,269,187.54,0,150.22-157.09,176.73-157.09,252.33H398.3C398.3,476.25,525,440.9,525,381Z"/><path d="M390.91,745.64c0-55.37,44.63-97.52,109.09-97.52s109.09,42.15,109.09,97.52c0,54.55-44.63,99.18-109.09,99.18S390.91,800.19,390.91,745.64Z"/></svg>