<svg id="Layer_1" data-name="Layer 1" xmlns="http://www.w3.org/2000/svg" viewBox="0 0 1000 1000"><title>save</title><path d="M533.33,211.11h88.89a22.22,22.22,0,0,0,22.22-22.22V22.22A22.22,22.22,0,0,0,622.22,0H533.33a22.22,22.22,0,0,0-22.22,22.22V188.89A22.23,22.23,0,0,0,533.33,211.11Z"/><path d="M992.14,158.81,841.19,7.86C836.87,3.53,828.33,0,822.22,0H744.44a22.29,22.29,0,0,0-22.22,22.22V211.11a66.68,66.68,0,0,1-66.66,66.67H344.44a66.68,66.68,0,0,1-66.66-66.67V22.22A22.29,22.29,0,0,0,255.56,0H111.11A111.12,111.12,0,0,0,0,111.11V888.89A111.13,111.13,0,0,0,111.11,1000H888.89A111.14,111.14,0,0,0,1000,888.89V177.78C1000,171.66,996.47,163.13,992.14,158.81ZM816.67,794.44a22.24,22.24,0,0,1-22.23,22.23H205.56a22.24,22.24,0,0,1-22.23-22.23V472.22A22.22,22.22,0,0,1,205.56,450H794.44a22.22,22.22,0,0,1,22.23,22.22Z"/><path d="M700,616.67H300A16.67,16.67,0,1,0,300,650H700a16.67,16.67,0,1,0,0-33.33Z"/><path d="M700,705.56H300a16.67,16.67,0,1,0,0,33.33H700a16.67,16.67,0,1,0,0-33.33Z"/><path d="M700,527.78H300a16.67,16.67,0,1,0,0,33.33H700a16.67,16.67,0,1,0,0-33.33Z"/></svg>