<svg id="Layer_1" data-name="Layer 1" xmlns="http://www.w3.org/2000/svg" viewBox="0 0 1000 1000"><title>settings</title><path d="M967.4,394.32H902.21c-13.67,0-26.29-9.46-30.5-22.08a278.53,278.53,0,0,0-18.92-44.16c-6.31-12.62-4.21-27.34,5.25-36.81L904.31,245a31.74,31.74,0,0,0,0-45.22L800.21,95.69a31.74,31.74,0,0,0-45.22,0L708.73,142c-9.47,9.46-24.19,11.56-36.81,5.25a397,397,0,0,0-44.16-18.92c-13.67-4.21-22.08-16.83-22.08-30.5V32.6A32.76,32.76,0,0,0,573.08,0H426.92a32.76,32.76,0,0,0-32.6,32.6V97.79c0,13.67-9.46,26.29-22.08,30.5a278.53,278.53,0,0,0-44.16,18.92c-12.62,6.31-27.34,4.21-36.81-5.25L245,95.69a31.74,31.74,0,0,0-45.22,0L95.69,199.79a31.74,31.74,0,0,0,0,45.22L142,291.27c9.46,9.47,11.56,25.24,5.25,36.81a397,397,0,0,0-18.92,44.16c-4.21,13.67-16.83,22.08-30.5,22.08H32.6A32.76,32.76,0,0,0,0,426.92V573.08a32.76,32.76,0,0,0,32.6,32.6H97.79c13.67,0,26.29,9.46,30.5,22.08a278.53,278.53,0,0,0,18.92,44.16c6.31,12.62,4.21,27.34-5.25,36.81L95.69,755a31.74,31.74,0,0,0,0,45.22l104.1,104.1a31.74,31.74,0,0,0,45.22,0L291.27,858c9.47-9.46,24.19-11.56,36.81-5.25a397,397,0,0,0,44.16,18.92c13.67,4.21,22.08,16.83,22.08,30.5V967.4a32.76,32.76,0,0,0,32.6,32.6H573.08a32.76,32.76,0,0,0,32.6-32.6V902.21c0-13.67,9.46-26.29,22.08-30.5a278.53,278.53,0,0,0,44.16-18.92c12.62-6.31,27.34-4.21,36.81,5.25L755,904.31a31.74,31.74,0,0,0,45.22,0l104.1-104.1a31.74,31.74,0,0,0,0-45.22L858,708.73c-9.46-9.47-11.56-24.19-5.25-36.81a397,397,0,0,0,18.92-44.16c4.21-13.67,16.83-22.08,30.5-22.08H967.4a32.76,32.76,0,0,0,32.6-32.6V425.87C1000,408,985.28,394.32,967.4,394.32ZM500.53,760.25c-144.06,0-260.78-116.72-260.78-260.77S356.47,238.7,500.53,238.7,761.3,355.42,761.3,499.48,644.58,760.25,500.53,760.25Z"/></svg>