<svg data-name="Layer 1" xmlns="http://www.w3.org/2000/svg" viewBox="0 0 1000 1000"><path d="M664.39 693.84c-7.37 0-15.8-1.05-22.12-3.16v74.76c0 25.27-21 46.33-46.32 46.33H150.57c-25.27 0-46.33-21.06-46.33-46.33V429.56c0-25.27 21.06-46.33 46.33-46.33h129.5c29.49-36.85 63.18-72.65 101.08-104.24H150.57A150.54 150.54 0 0 0 0 429.56v335.88A150.53 150.53 0 0 0 150.57 916h444.32a150.53 150.53 0 0 0 150.57-150.56V652.78l-26.32 21.05c-15.8 12.64-34.75 20.01-54.75 20.01z"/><path d="M992.89 339L676 88.42c-12.64-10.53-31.59-1.06-31.59 15.79V240C429.59 252.67 290.6 467.46 224.27 602.24c-9.48 20 14.74 37.9 30.53 23.16 74.76-66.33 205.32-150.57 389.58-155.83v134.77c0 16.85 19 25.27 31.59 15.8l316.92-250.6c9.48-8.42 9.48-23.16 0-30.54z"/></svg>