<svg xmlns="http://www.w3.org/2000/svg" viewBox="0 0 1000 1000"><title>share</title><path d="M664.39,609.84c-7.37,0-15.8-1.05-22.12-3.16v74.76c0,25.27-21,46.33-46.32,46.33H150.57c-25.27,0-46.33-21.06-46.33-46.33V345.56c0-25.27,21.06-46.32,46.33-46.32h129.5c29.49-36.86,63.18-72.66,101.08-104.24H150.57A150.53,150.53,0,0,0,0,345.56V681.44A150.54,150.54,0,0,0,150.57,832H594.89A150.54,150.54,0,0,0,745.46,681.44V568.78l-26.32,21.06C703.34,602.47,684.39,609.84,664.39,609.84Z"/><path d="M992.89,255,676,4.42c-12.64-10.53-31.59-1-31.59,15.79V156C429.59,168.67,290.6,383.47,224.27,518.24c-9.48,20,14.74,37.91,30.53,23.16,74.76-66.33,205.32-150.56,389.58-155.83V520.35c0,16.84,19,25.27,31.59,15.79L992.89,285.55C1002.37,277.12,1002.37,262.38,992.89,255Z"/></svg>
