<svg xmlns="http://www.w3.org/2000/svg" viewBox="0 0 1000 1000"><title>south-korea</title><path d="M577.12,0a8.2,8.2,0,0,0-7.78,5.74L560.7,33.1,536.8,51.69l-121-3.06a8.25,8.25,0,0,0-2.87.45l-50.2,17.25a8.29,8.29,0,0,0-4,3l-39.21,54.9A8.16,8.16,0,0,0,318,129v13.75H287a7.92,7.92,0,0,0-1.61.16l-23.53,4.71a8.2,8.2,0,0,0-6.44,9.66,9,9,0,0,0,.26,1l12.55,37.64a8.2,8.2,0,0,0,13.79,3l12.54-13.44,9.75,29.26a8.24,8.24,0,0,0,1.22,2.33L317,232.45l-6.49,19.45a8.21,8.21,0,0,0,1,7.27l14.12,20.39a8.19,8.19,0,0,0,3.31,2.78l32.39,15-14.1,22.92-22.53-28.46a8.23,8.23,0,0,0-8.43-2.86L253.6,304.57a8.23,8.23,0,0,0-6.09,6.47l-7.84,42.36a8.21,8.21,0,0,0,8.84,9.67l41.07-3.85-1.42,86.52a8.32,8.32,0,0,0,1.41,4.74l33.57,49.62-11.59,27-18.91,16a8.21,8.21,0,0,0,3,14.16l4.32,1.23-14.29,9a8.26,8.26,0,0,0-3.07,3.5l-18.82,40.79a8.18,8.18,0,0,0-.49,5.51l9.11,34.91-1.53,41.15a8.23,8.23,0,0,0,7.91,8.51,7.9,7.9,0,0,0,1.81-.14L298,698.54l2.18,9.25-43.28,1.27a8.21,8.21,0,0,0-7.63,5.85l-9.41,31.37a8.21,8.21,0,0,0,5.51,10.22,7.73,7.73,0,0,0,1,.23l31.48,5.47,10.88,28.58a8.21,8.21,0,0,0,13.48,2.88l15.15-15.15,31.55-2.87A8.19,8.19,0,0,0,355,772l21.3-31.95L393,726.16l-2.54,9.34a8.22,8.22,0,0,0,3,8.73l25.1,18.82a8.2,8.2,0,0,0,11-1l18.83-20.39A8.22,8.22,0,0,0,450,733.4L439.44,703l4.32-3.24,7.83,29.07a8.21,8.21,0,0,0,15,2.1L476,715.22a8.13,8.13,0,0,0,1.12-3.32l1.57-14.12,0-.36,1.14-17.14L519.71,673l6.5,10.82a8.24,8.24,0,0,0,5.52,3.85l50.2,9.41a8.21,8.21,0,0,0,9.55-6.4L599,654.47l8.55-13.89,55.21,15.57a8.2,8.2,0,0,0,4.83-.11l32.94-11a8.23,8.23,0,0,0,4.53-3.71l37.65-65.89a8.09,8.09,0,0,0,.84-2.12l18.83-76.87a8.85,8.85,0,0,0,.16-.87l3.14-23.53a8.22,8.22,0,0,0-11.81-8.43l-7.68,3.84h-7.51l-5.62-20.24,5.77-26,9.35-32.71a8.17,8.17,0,0,0-.77-6.32l-4.79-8.4,7.32-41a8.32,8.32,0,0,0-.08-3.26l-15.68-69a8.35,8.35,0,0,0-.8-2.1L684.78,169a8.38,8.38,0,0,0-1-1.47l-63.4-72.67L584.8,5.19A8.2,8.2,0,0,0,577.11,0Z"/><path d="M349.13,919.25v0a5.89,5.89,0,0,0-.84,0L305,922.59a8,8,0,0,0-2.37.54l-51,20a8.14,8.14,0,0,0-4.27,3.84l-12.2,23.28a8.2,8.2,0,0,0,2.13,10.22l22.2,17.76a8.2,8.2,0,0,0,9,.84l14.41-7.7,18.58,1.95a8.21,8.21,0,0,0,4.12-.63l41-17.75a8.28,8.28,0,0,0,3-2.21l18.86-22.18a8.23,8.23,0,0,0,.33-10.25l-13.33-17.75A8.2,8.2,0,0,0,349.13,919.25Z"/></svg>
