<svg id="Layer_1" data-name="Layer 1" xmlns="http://www.w3.org/2000/svg" viewBox="0 0 1000 1000"><title>trash</title><path d="M151.46,174.27l48,753.22c2.33,40.93,38.59,72.51,80.7,72.51H719.88c43.28,0,78.37-31.58,80.7-72.51l48-753.22ZM641.52,653.8a44.48,44.48,0,0,1,0,63.16c-8.19,9.36-19.88,12.86-31.58,12.86s-22.22-4.67-31.58-12.86L500,637.43l-79.53,78.36c-8.19,9.36-19.89,12.86-31.58,12.86a45.17,45.17,0,0,1-31.58-12.86,44.48,44.48,0,0,1,0-63.16l78.36-78.36-78.36-79.53a44.66,44.66,0,1,1,63.16-63.16L500,511.11l78.36-78.36a44.66,44.66,0,1,1,63.16,63.16l-78.36,79.53Z"/><path d="M873.1,57.31H667.25l-7-39.77A20.21,20.21,0,0,0,640.35,0H363.16c-10.53,0-18.72,8.19-21.05,18.71l-5.85,38.6H126.9A26,26,0,0,0,101.17,83v30.41a26,26,0,0,0,25.73,25.73H873.1a26,26,0,0,0,25.73-25.73V83A26,26,0,0,0,873.1,57.31Z"/></svg>