<svg data-name="Layer 1" xmlns="http://www.w3.org/2000/svg" viewBox="0 0 1000 1000"><path d="M500 0C223.86 0 0 223.86 0 500s223.86 500 500 500 500-223.86 500-500S776.14 0 500 0zm212.2 619a66.42 66.42 0 0 1 0 94.31C700 727.26 682.51 732.5 665 732.5s-33.18-7-47.15-19.21l-117-118.76-118.76 117c-12.22 14-29.69 19.21-47.15 19.21a67.47 67.47 0 0 1-47.16-19.21 66.42 66.42 0 0 1 0-94.31l117-117-117-118.76a66.69 66.69 0 0 1 94.31-94.31l118.78 118.76 117-117a66.69 66.69 0 1 1 94.33 94.29L595.18 502z"/></svg>