<svg xmlns="http://www.w3.org/2000/svg" viewBox="0 0 1000 1000"><path d="M74.72 337.77a18.4 18.4 0 0 1 .4-6.14c-11.2-1.07-17.16-.27-28.74 5.18 3.62 5.06 7.88 10.24 12.14 15.19 3.89-6.68 7.16-8.82 15-9.66 1.04-.18 1.48-.18 1.2-4.57zm33 36.5a9.62 9.62 0 0 0-4.84-1.12c-6.31 0-13.56 4-19.35 10.59-.29.33-1 1.18-1.86 2.3.68 8.38 4.22 21.6 18.89 28.13 1 .44 1.76.83 2.6 1.29v-.11l10-18.06c4.26-7.65-1.16-20.29-5.46-23.02zm2.81-4.6c5 3.09 9.68 12.65 9.5 21.48 6.14-1 11.31 1.24 14.52 7 2.54 4.49.74 8.09-.34 10.22-.22.52-.62 1.24-.68 1.53a14.6 14.6 0 0 0 1.35.73c1.8.84 3.33 1.13 4.17.74a1.65 1.65 0 0 0 .79-.85 19.17 19.17 0 0 0 .39-2.65c1-12.2 8-14.85 10.91-15.47 0-.95-2.07-5.9-3.09-8.27-.51-1.23-1-2.47-1.4-3.42a12.6 12.6 0 0 1 2.25-11.77c.23-.27.5-.5.73-.73-3.83-13.33-9.23-28.07-11.59-29.76a16.32 16.32 0 0 0-3.78 2c-3.48 2.07-8.77 5.28-17.54 5.28h-.11c-5.29 0-8.56-1.12-10.24-3.37a5.79 5.79 0 0 1-1.13-3c-9.85 1.24-14.3-1.35-18.52-3.83a27.3 27.3 0 0 0-6.17-2.92c-.62.67-.68 2.13-.51 4.89.16 3.32.51 9.45-6 10.19s-8.22 1.85-11.42 7.76l-.46.89C70.46 365.73 78 374 80.47 379c6.75-7.15 14.79-11.37 22.28-11.37a16 16 0 0 1 7.76 2.04zM265 409.33c2.71-9.85 1.59-13.34-.16-18.57-.56-1.74-1.24-3.65-1.8-6-1.74-7-3.94-17-4.95-21.66-.51.06-1 .12-1.53.17-5.46.78-12.87 1.85-19.74.22-5.29-1.24-8.77-1.12-10.57.23-1.42 1.07-2.15 3.1-2.31 6.24-.17 3.44.78 8 1.69 12.32 1.62 7.88 3.31 16-.45 21.32-2.09 2.94-2.42 5.3-2.82 7.93a20.85 20.85 0 0 1-3.76 10.53c-2.77 3.82-2.15 5.23 2 12.88 1.36 2.53 3 5.57 4.84 9.34l1.41 2.58c9.28 3.1 17.22 2.31 32.12-7.47a64.47 64.47 0 0 1 9.12-5l-.74-1.24c-4.35-6.89-6.01-10.27-2.35-23.82zm-120 21.54c-3-.85-6.35-1.74-7.3-5-.91-3-.18-5.9.66-8.88h-.22a12.73 12.73 0 0 1-5.51-1.41 7.24 7.24 0 0 1-4.17-3.93c-.73-2.19.23-4.1 1-5.63 1-2 1.53-3.26.45-5.17-.89-1.57-3.6-6.31-10.74-4a16.4 16.4 0 0 1-1.24 3.14l-10 18v.06c11.36 6.75 15.46 14.13 22 22.34a33.87 33.87 0 0 0 19.35 11.75c-1.06-2.52 0-4.94.85-6.92a16.94 16.94 0 0 0 1.92-8.71c-.31-3.45-2.5-4.4-7.05-5.64zM214.25 419a15.32 15.32 0 0 0 2.8-8.11 20.09 20.09 0 0 1 3.78-10.34c2.36-3.33.95-10.3-.45-17.05-.06-.29-.11-.62-.17-.91-6.3-4.78-8.77-4.44-13.17-3.76-1.74.22-3.6.5-5.9.62-6.08 0-8.55-3.72-10.41-6.58-1.75-2.65-2.36-3.33-3.93-3.1h-.62a10.38 10.38 0 0 1-7.43-2.3c-1.46-1.08-2.08-1.59-5.29 0-8.44 4.1-10.12 4-16 3.31a3.38 3.38 0 0 0-.74-.06 4.32 4.32 0 0 0-3.48 1.69 7.46 7.46 0 0 0-1.36 6.53c.34.95.8 2 1.3 3.2 2.07 5 4.22 10 2.48 13.28a4.81 4.81 0 0 1-3.33 2.42c-3.77.73-6.08 4.51-6.64 10.63-.11 1.08-.27 2-.44 2.92 0 .12.05.17.05.29s-.11.27-.17.5a56.85 56.85 0 0 1-1.35 5.69c-.78 2.75-1.4 4.73-.84 6.47.33.45 2.36 1 3.6 1.35 4.16 1.13 10.4 2.87 10.92 10.46a21.35 21.35 0 0 1-2.42 11.3c-1.18 2.6-1.14 2.65-.4 3.22l3.15 1.85a29.64 29.64 0 0 0 14.17-5.4c15.25-10.63 35.44-7 47.43-2.86-1.29-2.54-2.48-4.78-3.43-6.59-4.25-7.67-6.5-11.91-1.71-18.67zM169 117.35c.35-2.87.79-6.8 1.08-9.39.84-8.39 13.94-11 25.54-13.4 4.5-.89 8.72-1.74 11.19-2.81 5.18-2.07 12.09-5.61 18.23-8.77 4.1-2.09 7.76-3.94 10.07-5 4.06-1.8 9.4-8 12.89-12.16.83-1 1.68-2 2.36-2.75 2.7-3.07 7.64-2.54 12.26-2.07 3.66.34 7.88.73 9.29-.78.95-1.08.62-2.36-1.07-6.37-1.64-3.81-3.65-8.59-2.53-14.46 1.35-6.63-.62-8.54-4.95-12.87-1.19-1.18-2.54-2.54-3.88-4.05l-2.32-2.26a28 28 0 0 1-6.35-1.57c-20.42-8.27-21.6-11-28.18-1.35s-14.85 19.3-25.32 22c-18.18 4.55-22.78 14.51-27 27.5s2 24.3-23.8 32.74c-15.46 5-21.51 8.87-25.59 13.47 12.32 1.12 33.07 2.92 41.45 3.19a35.19 35.19 0 0 1 6.63 1.16zm104.7-76.74c-.85 4.17.68 7.77 2.19 11.27 1.64 3.87 3.55 8.26.12 12.08-3.26 3.6-8.83 3-13.79 2.53-2.86-.27-6.85-.67-7.76.41-.67.72-1.47 1.68-2.3 2.63-4.05 4.73-9.68 11.25-14.85 13.57-2.26 1-5.8 2.81-9.79 4.82-6.25 3.16-13.28 6.76-18.62 9-2.93 1.24-7.44 2.13-12.16 3.08-8.27 1.7-20.81 4.22-21.26 8.67-.34 3.55-1.08 9.57-1.35 12.1a.67.67 0 0 0 .23.22 5.77 5.77 0 0 1 .89 3.27c8.83 7.82 67.52 59.58 81.4 69 9.74 6.58 23.4 19.63 34.38 30.1 6.13 5.85 11.48 11 13.9 12.72a25.41 25.41 0 0 1 4.84 5c3.25 4.06 5.84 7.26 17.77 4.95 16.08-3.15 24.31-8.65 34.66-15.7l3.54-2.36c10.81-7.2 42.86-27.17 62.28-36.9a22.69 22.69 0 0 1-3.83-6.19c-2-4.45-3.49-7.14-7.32-7.43-5.56-.33-11-4.32-14.9-11-3.1-5.24-5.29-12.5-3.26-16.88 2.58-5.46 9.95-30-.68-51-.11-.17 0-.4-.05-.62s-.23-.23-.23-.4S395.28 72 378.69 59c-5.17-4.05-7.59-7.82-7.49-11.53.23-5.18 5.07-8.44 9.73-11.54 3-2 6.14-4.11 7-6.14 1-2.3 1.18-6.06 1.41-10.06.35-6.14.85-13.28 4.45-18-6.55 2.27-13.36 5.2-21.79 3.9-17.89-2.71-32.64-4.28-50.8.16-9.06 2.2-35.32 14.46-56 15.19.68.68 1.42 1.53 2 2.09 4.71 4.44 8.37 8.1 6.45 17.54zm110.3-.39c-3.54 2.37-7.26 4.84-7.37 7.26-.05 1.8 1.8 4.28 5.4 7.09 14.89 11.71 19.38 31.43 20.62 39.16 1.92-.56 4.61-1.36 7.82-2.25 1.63-.46 2.42-4.57 3-7.82.89-4.72 2-10.14 6.41-11.42 5.4-1.58 8.38-7.1 8.32-15.53 0-.23-.06-1-.06-2-.5-.4-.95-.62-1.51-1.06-15.83-12.13-8.73-13.81-3.63-19.22s10.18-19.58-6-31.06A23 23 0 0 0 410 0c-2.59.85-5.34 1.57-7 2-6.86 1.24-7.76 7.88-8.27 17.83-.21 4.45-.5 8.67-1.8 11.87-1.41 3.51-5.24 6.05-8.93 8.52zm-108.66 334.9a36.38 36.38 0 0 1-3.1-7.64c-2.24-1.8-6-4.17-8.65-4.63 1.06 4.9 3.09 14 4.72 20.66a53.83 53.83 0 0 0 1.69 5.57c1.91 5.73 3.37 10.24.28 21.66-3.27 11.81-2 13.78 1.75 19.69l1 1.51.28.45c1.91-.67 3.82-1.34 5.79-1.91-2.53-6-1.29-13.39.12-21.27 1.18-6.64 2.42-13.49 1.51-19.63-.94-5.58-3.3-10.29-5.39-14.46zM103 184.13a2.6 2.6 0 0 1 1.41-2.13l14.12-7.82 6.81-31.57a2.71 2.71 0 0 1 2.65-2.13h38l3.6-15.88s.11-.1.11-.15 0-.23.06-.35c-.33-.68-1.63-2.07-7.53-2.3-9.46-.34-33.59-2.48-45.12-3.55-1.18 1.75-2.42 3.6-4 5.68-7.92 10.64-19.4 15.36-25.3 30.72S61.56 176.59 55.65 198c0 .29-.11.45-.16.74l46.13 4.9zM77.31 326.4a27.69 27.69 0 0 1 12.22 4.39c3.93 2.31 7.47 4.34 16.41 2.93.12-.35.18-.74.29-1.07a26.43 26.43 0 0 0 .9-3.66c.28-2.14-1.75-4.83-3.49-7.2-2.3-3.09-4.72-6.3-3.2-9.73 1.34-3-.34-16.49-10.8-24.2a75.25 75.25 0 0 1-11.59-10.51c-3.16-3.38-5.23-5.57-8.73-6.64-2.69-.79-5.34.27-8.94 1.74a40.65 40.65 0 0 1-13.05 3.49c-.89 5.51-1.3 10.24-9.06 16.76-3.93 3.33-5.17 8.17-4.78 13.57a31.62 31.62 0 0 0 9.56 1.86 15.74 15.74 0 0 0 2.42-.18 12.92 12.92 0 0 0 4.45-1.95c3.16-1.92 7.59-3.83 14.46-1.51l2 .66c7.82 2.59 17.55 5.8 18.34 12.89a6.16 6.16 0 0 1-1.33 4.96c-1.3 1.46-3.37 2.19-6.25 2.19a41.48 41.48 0 0 1-7.86-1l-.91-.17a35.13 35.13 0 0 1-5.29-1.47c-3-1-5.45-1.8-6.92-.5a13.4 13.4 0 0 1-9.51 3.38A40.87 40.87 0 0 1 41 325c-.74-.12-1.24-.23-1.86-.35.56 1.13 1.12 2.31 1.74 3.43.79 1.35 1.63 2.76 2.54 4.16l.21-.1c13.43-6.41 20.52-7.09 33.68-5.74zM421.39 77.47c-1.24.39-2.09 4.49-2.6 7.2-1 5-2 10.63-6.85 12L404 99c9.39 21.72 2.81 45.74-.5 52.72-.73 1.58-.12 6.52 3 11.82 2.92 5 6.91 8.09 10.57 8.32 7.2.45 9.91 6.3 11.87 10.52s2.59 5.84 5.07 5.69c5.67-.24 11.53 3.37 17.32 6.74 4.22 2.47 8.56 5 11.14 5 4.5 0 15-6.92 20.65-11.25a2.74 2.74 0 0 1 2.92-.29c.74.4 71.84 37.3 102.5 52.44V238a2.74 2.74 0 0 1 2.71-2.69h10.18l-1.63-25.44-7.33-135.21c-11.66-.56-20.66-.17-28.36-6.19-12.11-9.47-34.44.33-30.37 11.47s-5.07 25.71-24 11.54-18.58-5.07-26-8.44-3.39-16.2-23.29-20.93c-16.43-3.88-18.06 1-27-3.94-.37 10.12-4.65 17.17-12.06 19.3zM70.79 265.64c4.9 1.47 7.82 4.51 11.13 8.11a71.31 71.31 0 0 0 10.86 9.84 33.17 33.17 0 0 1 10.64 13.56c.39-.73.72-1.52 1.07-2.36 1.45-3.54 3.37-8.44 10.12-7.88a13.9 13.9 0 0 1 7.94 3c1.8 1.3 3.37 2.42 9.06 2.19l7.42-.27c3.88-.17 3.88-.17 6.07-.17h.06c2.81 0 35.21 1.35 44.11 1.68l2.13-7.93-3-2.47a2.74 2.74 0 0 1-.95-2.14l2.25-119a2.69 2.69 0 0 1 2.69-2.64h14.52c-14.06-12.15-27.12-23.63-33.14-29l-3 13.56a2.65 2.65 0 0 1-2.63 2.08h-38l-6.64 30.6a2.88 2.88 0 0 1-1.35 1.8l-13.89 7.71-1.58 20.81a2.65 2.65 0 0 1-1 1.86 2.84 2.84 0 0 1-1.74.61h-.29L54.2 204c-3 16.43 2.48 21.6 3.09 31.45.67 11-1.69 20.42-7.1 31.05a23.39 23.39 0 0 0-1.62 4 37.17 37.17 0 0 0 9.73-2.92c4.05-1.71 7.94-3.28 12.49-1.94zm-18.33 52.55c3.08-2.82 7.7-2.14 12.19-.62a38.57 38.57 0 0 0 4.63 1.3l.89.16a44.35 44.35 0 0 0 6.87.91 4.1 4.1 0 0 0 2.25-.39s.11-.18 0-.74c-.39-3.66-9.35-6.58-14.69-8.32l-2.08-.68c-4.72-1.58-7.08-.68-9.91 1a17.34 17.34 0 0 1-6.29 2.65 22.56 22.56 0 0 1-3.33.27 30.93 30.93 0 0 1-8.59-1.35 49.07 49.07 0 0 0 2 6.36c1.47.34 3.16.68 5.36 1 4.24.58 8.24.7 10.7-1.55zm598.33 623.72c-1.74 1-4.38.79-6.46.46-.12 0-.16-.06-.28-.06-.11.22-.23.56-.34.78-.9 2.14-2.48 5.74-7 6.36l-.74.06c-2 0-3.87-1-5.84-3.15-3.49-3.72-7.59-12-7.43-14.23.17-2.6 2.53-3.55 4.27-4.28 1.59-.68 3.27-1.35 4.28-2.92 5.29-8.11 10.69-9.51 14.35-9.85l.9-.06c6.08 0 14.74 6.13 15.35 9.91s-8.8 15.8-11.06 16.98zm36.12-36.63h-.78c-7.43 0-12.71-3.66-13.62-9.39-1-6.35 5-12.66 8.27-16l.73-.73c2.82-3 6.08-2.48 8.79-1.12.05-.18 0-.29.05-.51l.57-2.2c1.39-5.73 3.14-12.82 0-19.29s-5-15.13-5.75-19.29a36 36 0 0 1-14.4-2.09c-2.48-.84-4.22-1.36-6.3-1.18-1.64.23-1.85.56-2.47 1.58-1.47 2.25-3.21 4.21-9.06 4.44-3.33.11-4.16 1.52-5.75 4s-3.64 5.81-8.71 7.49c-3.37 1.13-5 4.11-6.7 7.32-2 3.66-4.22 7.88-9.39 8.65-3.54.57-5 3.39-6.64 7.38a12.13 12.13 0 0 1-2.59 4.61c-2.69 2.47-6.91 2.47-14.52 2.36-1.62 0-3.48-.06-5.5-.06-6.92 0-9-2.3-10.58-4.72-.62-.9-.62-.9-1.4-.9-2 0-2 0-3.56 2.7a88.13 88.13 0 0 1-5.28 8.32c-5.46 7.72-13.67 9.58-20 9.58a27.38 27.38 0 0 1-8.11-1.14 4 4 0 0 1-2.54-2.3c-.77-1.92.12-3.82 1.07-5.85a13.59 13.59 0 0 0 1.7-5.29c.1-2.92-2.26-6.3-5-8.32v40.84a2.74 2.74 0 0 1-.9 2 2.87 2.87 0 0 1-2.08.68c.12 0-2.08.17-6.46 3.48a25.64 25.64 0 0 1-18.57 4.45 14.58 14.58 0 0 1-10-6.87c-2-3.31-3.54-4.28-4-4-.91.12-2.65 2.25-3.95 7.49l-.72 2.81a63.08 63.08 0 0 1 6.24 16.53c1.8 9 14.4 15.31 13.51 23.41s-7.61 19.58 5.85 29.26c7.2 5.17 11.24 9.89 23 3.37s37.36-7.43 46.36-4.51 14.62-4.49 18.9-5.4 16.65 4.51 41.63-20.92 37.81-39.61 45.22-45.23c4.4-3.32 8.33-11.42 10.86-19a30.12 30.12 0 0 1-7.82-2 11.43 11.43 0 0 1-9.6 5.56zm272-570c-.62.11-1.18.34-1.8.46l-.39 1.45c-1.58 6.7-27.35 59.8-42.2 77.53-2.86 3.37-5.46 6.64-7.82 9.62-10 12.49-17.21 21.54-27.62 21.54h-.45c-7.37 0-15.87 5.64-22 9.74a66.76 66.76 0 0 1-7 4.33 16.06 16.06 0 0 1-2.81 1 24.67 24.67 0 0 1-10.18 15.53v42.32c0 12.15.85 13.27 6.91 18 6.64-9.1 12.61-17.1 16-21 10.34-11.94 72-59.64 80.78-90.92s26.32-55.57 25-68.18 6.87-23.43-6.41-21.41zM795.83 678.45c-5.57 0-9.11 1.8-12.54 3.55-2.92 1.47-6 3-9.74 3a17.42 17.42 0 0 1-8.94-2.42 10.2 10.2 0 0 0-5.4-1.63 22.92 22.92 0 0 0-6.19 1.3 42.93 42.93 0 0 1-1.8 4.27c-1.86 3.83-4 8.21-3.16 15.41a36.66 36.66 0 0 0 3.21 11.48 13.57 13.57 0 0 1 1.57 5.57c3.1 2 6.59 5.62 5.58 10.4a19.72 19.72 0 0 0 .23 5.92c.5 4.16 1.24 10.46-4.39 11.47-1.3.23-2.81 3.15-3.84 5.06-1.51 2.81-3.14 6-6.17 6a4.71 4.71 0 0 1-.91-.11c-3-.62-8.6-4.34-10.8-9.45a11.07 11.07 0 0 1 1-10.63c2.87-4.45 2.64-8.9 1.24-11.14a2.89 2.89 0 0 0-3-1.57c-5.8.62-9-2.48-11.26-4.73-.51-.5-1-.85-1.4-1.24-5.4 1.57-25.49 7.42-33.48 10.52-3.55 1.41-4.22 2-4.32 2.26a16.06 16.06 0 0 1 1 1.84 34 34 0 0 1 1.91 4.74c.06.16-.06.27-.06.45s.18.21.18.39v4.56l8.26-.52a3 3 0 0 1 1.92.62c3 2.54 9.06 6.58 12.6 6.81 3.37.23 6.58 2.31 8.89 5.74a16.45 16.45 0 0 1 2 14.4c-3.95 11.32-5.24 18.29-3.89 20.82a13.84 13.84 0 0 1 1.12 10.52 9.41 9.41 0 0 1-4.43 5.63c-2.32 1.18-3.6 3.25-4 6.35-.39 3.32-3 6.93-8.6 12.15a103.68 103.68 0 0 0-7.93 8.44c.56 3.27 2.36 12.6 5.46 19 4 8.22 1.9 16.72.39 22.95l-.51 2.15c-.67 2.81-.11 5.23.45 7.82a25.12 25.12 0 0 1 .79 7c.39.95 4.44 2.3 9.06 2.81a33.2 33.2 0 0 0 1.12-7.65c-.23-7 2.81-12.37 27.22-21.6 11.94-4.51 9.68-13.51 10.59-25s-11.71-36.68-3.39-43.66 38-32.41 48-35.78 35.54-14.63 35.77-31.51c.23-16.3 1.24-56.31-1.74-64.85-5.95 5.01-17.43 12.09-27.67 12.09zm-105.71 206c-3.48-2.57-4.22-2.13-4.72-1.57l-.73.78c-2.19 2.32-7.38 7.72-6.82 11.48.74 4.84 7.61 4.9 8.9 4.78a5.74 5.74 0 0 0 5.45-3.7 5 5 0 0 1-.78-3 20.92 20.92 0 0 0-.68-5.46 31.11 31.11 0 0 1-.62-3.35zm141-365.61v-43.91a2.65 2.65 0 0 1 1.52-2.42 18.45 18.45 0 0 0 8.49-10.92 29 29 0 0 1-8-2.59l-2.59-1.12c-2.86-1.13-8.83 5.07-11.75 8.09-2.65 2.71-4 4.06-5.46 4.51-2 .67-3.66-.06-5.07-.62a17.75 17.75 0 0 0-8.67-1.47c-6.85.17-15.06-3.7-22.72-7.59-2.93-1.45-5.79-2.92-8.6-4.1-7.61-3.22-14.13-2.81-19.92-2.48-1.35.06-2.65.17-4 .17s-2.36.95-3.64 2.81a64.84 64.84 0 0 0 3.93 6.93c4.4 7 9.85 15.68 9 23.85-.67 6.35-3.93 11.81-7.14 17.15a56.12 56.12 0 0 0-5.34 10.92c4.27 1.46 7.82 4 7.93 7.43.05 1.23-.4 4.27-5.57 5.56a9.46 9.46 0 0 0-3.66 1.74l48.43 28.14a2.65 2.65 0 0 1 1.36 2.3v5.62c3.31 2.48 13.61 10 21.72 16 .11-.23.21-.45.33-.68 2.2-3.49 15.93-23.4 28.53-41-7.33-5.7-9.13-7.96-9.13-22.36zM635.73 927.85a13.77 13.77 0 0 1-6.73 4.95c-.23.11-.5.22-.73.34 1.12 3 5.69 10.85 7.7 11 1.42-.17 1.92-1.12 2.77-3.15.62-1.52 1.34-3.22 3.14-3.94a6.38 6.38 0 0 1 1.47-.28 17.14 17.14 0 0 1 2 .23 11.62 11.62 0 0 0 2.86.15c1.63-1.12 7.09-8.82 8.1-11.42-1.3-1.62-6.35-5.34-9.84-5.34-3.15.37-6.81 1.44-10.74 7.46zM445.86 756.32c6.13 0 8.32 2.58 9.95 4.56 1.13 1.35 1.7 2 3.77 2h55.81a21.45 21.45 0 0 1 12.09 3.82c1.42.9 2.54 1.58 3.43 1.58 8.73 0 32-.91 45.3-4.57-1.13-1.18-2.31-2.42-3.49-3.6-6.75-6.85-8.94-9.27-8.94-11.58V705a2.72 2.72 0 0 1 2.69-2.69h14.63c4.16 0 11.19-1.3 11.19-9.79V678.8c-2.81.22-6.13.73-9.62 1.3-2.24.33-4.61.72-7 1.06-2.65.39-5.63.51-7.2-1.52s-.67-4.56.16-6.8a12.11 12.11 0 0 0 1.14-5c-.29-2.6-2-4.11-3.72-5.58s-3.21-2.81-3.21-5v-31c-2.92 0-7.76-.1-12-.1-1.74 0-5.34 0-5.9-3.72-.24 0-1-.23-2.6-.45s-4-.28-5.17.67-1.47 2.94-1.68 5.24c-.29 2.58-2.77 11-24.43 10.07a17 17 0 0 1-12.43-6.2c-6.29-7.2-7.64-18.56-7.43-20.86s0-3.61-.66-4.28a2.93 2.93 0 0 0-2.09-.62h-55.82c5.13 9.29 9.57 18.39 11.71 25 5.56 17.55-4.06 14.86 7.25 39.16s-20.93 31.22-19.75 52c.91 16-11.36 20.64-9.16 36.51h.56a80.74 80.74 0 0 0 11.48-1.24 57.33 57.33 0 0 1 11.14-1.12zM380.54 430c-1.41.12-3.38 1.41-5.12 2.6-2.58 1.74-5 3.37-7.59 2.53a5.21 5.21 0 0 1-3.22-3.54c-1.06-3-4.21-5.85-6.46-5.91-1.24 0-2.31 1.13-3.16 3.37-3.93 10.69-11.92 19.36-20.46 22.61 3.08 4.06 6.85 6.7 12.7 5.63 16-2.8 25.21-6 30.55-3.54.06-.91.11-1.86.17-2.71.39-6.91.91-13.61 6.37-19.51a5 5 0 0 0-3.78-1.53zm-30.6-2.75c2.19-6 6.08-6.91 8.21-6.91h.06c5.07 0 9.9 4.94 11.53 9.5a20.35 20.35 0 0 0 2.7-1.68c2.3-1.58 4.89-3.33 7.76-3.5a9.59 9.59 0 0 1 8.16 3.5c3.82-2.71 9-5.24 16.38-7.43-.74-1.74-1.47-3.54-2.26-5.07-3.72-7.88-6.92-14.62-3.82-26.33a16 16 0 0 0-1.41-12c-5.07.35-9.89-2.13-14.17-4.49-3.78-2.09-7.2-4.06-10.64-4-6.8.18-8.95 2.26-14.06 7.2l-2 2c-4.22 4-10.69 5.73-17.33 5.73a39 39 0 0 1-16.43-3.6 20.7 20.7 0 0 1-7.92-7.14c-14.34 20.26-13.73 33.08-12.83 47.77.11 2.24.29 4.55.39 6.91v.17a97 97 0 0 1 10.91.85c9.62 1.4 13.73 10.75 18.29 18.45l.84-.23c7.11-2.47 14.15-10.23 17.64-19.68zm69.76 143.13a8.44 8.44 0 0 0 1.46.18c.23-.9-1.07-3.6-1.75-5.06-1.57-3.33-3.31-7-2-10.47a7.38 7.38 0 0 1 4.4-4.16 42.64 42.64 0 0 0 7.64-4.16c2.09-1.41 3.89-2.6 6.76-2.6 3.37 0 4.84 3 5.79 5 1.29 2.71 1.58 2.59 2.42 2.42a15.32 15.32 0 0 1 7.54.11 5.24 5.24 0 0 0 1.24.22s.28-.39.74-1.34c2.52-5.34 9.39-19.86 3.08-22.9-4.94-2.42-7.42-5.18-7.53-8.32s2.08-6.2 6.81-9.06c1.57-1 1.51-1.92 1.24-2.65a5.43 5.43 0 0 0-5.25-3.16c-.89.12-1.8.35-2.63.52-2.77.62-5.63 1.24-7.76-.79-1.86-1.74-2.32-4.67-1.47-10.07a14.37 14.37 0 0 1 .56-1.64H419.7v13.84A2.74 2.74 0 0 1 417 509h-26.62c-1.69 8.55-3.76 18.79-7.65 21.77-6.23 4.73 17.73 27.34 26 37.81.89 1.12 2 2.64 3.21 4.32 2.58-3.18 5.9-2.79 7.76-2.52zM311.75 367.69a68 68 0 0 1-4.18-16 8.87 8.87 0 0 1 0-1.63c-4.67-3.83-7.36-4.45-8.77-4.22s-2.75 1.63-4.05 4.11c-2.48 4.66-6 6.69-9.85 8.88a42 42 0 0 0-6.7 4.45 2.24 2.24 0 0 0-.95 2.31c.18 1.8 1.41 4.28 2.87 7.14 2.2 4.28 4.84 9.62 5.8 16.15 1 7-.28 14.28-1.58 21.37-1.3 7.37-2.54 14.3-.5 18.5l.44.62a73.7 73.7 0 0 1 12.49-1.37c-.1-2.48-.22-4.67-.39-6.82-.89-15.68-1.69-30.42 15.37-53.49zM506 915.08a9.21 9.21 0 0 0 6.41 4.33 19.46 19.46 0 0 0 14.23-3.41 24.59 24.59 0 0 1 7.37-4.16v-82.5a2.74 2.74 0 0 1 2.71-2.71h11.13v-46.46a2.77 2.77 0 0 1 2.3-2.7l31.73-4.38a2.92 2.92 0 0 1 2 .56l3.83 2.92c2.75-2.47 9-6.13 19.24-6.19-1.29-1.57-2.59-2.63-3.66-2.69a17.2 17.2 0 0 1-5.74-1.3c-3.31-1.18-6.76-2.36-15.58 1.07-15.36 6.07-50.8 6.13-51.15 6.13-2.41 0-4.37-1.18-6.23-2.36-2.42-1.47-5-3-9.29-3h-55.78a9.17 9.17 0 0 1-7.93-3.94c-1.28-1.57-2.13-2.58-5.79-2.58a50.51 50.51 0 0 0-10.24 1 79.9 79.9 0 0 1-11.75 1.29 66.35 66.35 0 0 0 5.19 12.23c17.21 31.9 31.05 46.59 33.76 59.25s-3 15 2.69 26.32 2.21 25.32 6.93 33.59 6.47 10.18 8.95 12.72a64.75 64.75 0 0 1 7.53 9.62c2.14-6.82 5.24-9 7.66-9.41 3.4-.32 6.61 1.86 9.48 6.76zM443.88 584a6.77 6.77 0 0 1 5.29.95 7.49 7.49 0 0 1 6.87-2.81 7.22 7.22 0 0 1 5.51 5.34 7.4 7.4 0 0 0 2.93.29 8.78 8.78 0 0 0 6.64-4.33c4.1-7.26 8.32-9.74 12-11.31.5-1.24.68-5.12.79-8 .27-7.14.62-15.25 4.61-19 7.93-7.49 19.74-21.6 19.74-29.93v-2.82c-.05-9.39-.17-19.13 7.32-29 1.86-2.42 2.59-6.7 2.92-11a53.82 53.82 0 0 1-6.69-.39c-5.91-.62-13.34-1.3-17.72 1.57-4.56 3-5.18 7.26-5.86 11.75-.56 4.12-1.24 8.78-5.73 11-3.6 1.8-9.85-.68-17.67-4.1a39.57 39.57 0 0 0-4.67-1.86l-1.51-.29c-2.48-.5-7.71-1.57-10.59.46a6.2 6.2 0 0 0-2.3 4.32c-.68 4.39-.12 5.36-.12 5.4.24 0 1.81-.39 2.83-.62a28.42 28.42 0 0 1 3-.56 10.7 10.7 0 0 1 11.07 6.7c1.24 3.54-.11 7-3.54 9.06-3.16 1.91-4.28 3.42-4.22 4.16s1.24 2.14 4.51 3.77c11 5.4 2.8 22.9-.35 29.48-2.59 5.52-5.34 5.29-8.27 4.73a10.07 10.07 0 0 0-5.12-.12c-5.29 1.3-7.36-3-8.49-5.28a7.68 7.68 0 0 0-1.13-2c-.95.06-1.57.45-3.49 1.75a43 43 0 0 1-8.54 4.66 2.78 2.78 0 0 0-1.47 1.14c-.5 1.24.79 4 1.86 6.18 1.45 3.15 3 6.42 1.74 9.29-1.8 4.16-5.51 3.54-7.31 3.21-2-.35-2.37-.35-3.1.72l-.62 1c2.2 3.26 4.57 6.86 7.1 10.86 3.82-4 10.34-7.72 15.74-7.31a8.91 8.91 0 0 1 6.04 2.94zm-6.41 2.42c-3.77-.45-9 2.81-11.86 6l-.57.68c1.52 2.47 3 5 4.44 7.53h3.72c-.74-4.25-1.52-10.49 4.27-14.26zm217.95-379.34c25-1.35 52.88-.9 60.3 0 3.15.23 10-5.45 16.37-11.19 3.54-3.15 7.53-6.54 11.59-9.56-.28-.35-.56-.58-.85-.91-10.35-12.15-10.8-25.65-31.05-54s6.2 2.24 8.56-17.33S716 82 710.55 77s-15.2 7.09-22.61 2.37-17.94-7.13-28.36-1.73-20.25 6.74-44.22.33a95 95 0 0 0-17.44-2.92l7 132.09c7.56.33 30.69 1.01 50.5-.06zM445 486c4.78-3.31 11.47-1.91 14.74-1.29.5.11.89.17 1.18.23 1.18.17 2.8.85 6.13 2.3 3 1.36 11.19 4.9 13.11 4.22 1.86-.95 2.24-3.15 2.81-6.91.17-1.08.34-2.21.56-3.39-8.38-6.07-21-17.83-22.61-34.93-1.24-13.5 3.6-24.3 12.93-30.44a2.45 2.45 0 0 1-.45-1.35c.29-4.67-5.46-10.34-10.57-15.41-5.28-5.28-9.91-9.85-9.68-14.57.34-7.65 10.57-9.39 16.44-9.78a132.91 132.91 0 0 1-3.78-13.34 45.25 45.25 0 0 1-8 6.53 41.73 41.73 0 0 0-6.81 5.4c-2 2.13-3.37 7-4.73 11.7-2 7.21-4.16 14.74-9.62 17.55-4 2.08-8.44 11-11.63 17.55-2.93 6-4.57 9.23-6.47 10.57-3.83 2.83-6.75-.89-8-2.46-1.8-2.32-2.48-2.82-3.66-2.42-22.51 6.52-23 14.62-23.58 25.77-.05 1.39-.15 2.86-.27 4.32v2.7c2.42 3 4.44 6.35 9.39 9.39 4.55 2.77 4.84 11.6 3.77 19.07h47.88c.31-.39.48-.78.92-1.01zM295.76 341.25a7.42 7.42 0 0 1 2.09-.68c3.09-.62 6.52.52 10.57 3.33a32.27 32.27 0 0 1 5.34-10.53 31.14 31.14 0 0 1 21.89-12.31c13.79-1.3 18.34 5.79 21.09 10 .73 1.12 1.75 2.71 2.32 2.82 1.06.16 1.85-.17 3.75-1.41 2.6-1.63 6.08-3.93 12.33-3.66a15 15 0 0 1 9.57 3.27c2.07 1.51 4.16 2.92 10.74 3.2a41.71 41.71 0 0 0 5.28-2.64c5.52-3 11.83-6.48 17.62-4.62a20.75 20.75 0 0 1 6.65 3.78c2.19 1.69 3.42 2.65 7 2.09 4.56-.73 12.33-4.95 17.32-7.93a8.14 8.14 0 0 1-3.19-4.84c-.68-3.37 1.23-6.87 4.83-11.76 2.76-3.77 5.79-7.15 8.72-10.47 5.69-6.35 11.09-12.37 12.77-19.57 1-4.39 1.13-11.42 1.24-18.29.22-12.21.39-23.67 4.94-27.95.17-.4-.89-1.53-1.63-2.36-3.71-3.95-10.24-11.09-8.38-26.79a17.31 17.31 0 0 1-6 1.41c-4.05 0-8.77-2.81-13.84-5.8-4.72-2.81-10.13-6-14-6-18.21 8.44-54.51 31.07-66 38.77l-3.49 2.37c-10.45 7-19.46 13.16-36.62 16.47l-1.13.17a96.52 96.52 0 0 0 .51 12.1c.91 11.09 1.8 22.56-3 28.63-4.55 5.75-14 7.77-23.17 9.68-5.35 1.12-10.42 2.19-13.85 3.89-6.19 3-12 1.9-17.61.83l-1.86-.33c-1.74 5.12 2.54 10.42 8 16.21 3.42 3.65 5.69 6.07 4.89 8.82-.44 1.63-.62 2.65-.39 3 .05.12.62.85 3.76 1.24l2.26.29c4.69.46 7.38 1.25 8.68 5.57zm277.41 334.68a10.91 10.91 0 0 0 1.68-.17c2.36-.34 4.73-.68 6.93-1.06a93.64 93.64 0 0 1 13.11-1.47h.1a19.2 19.2 0 0 1 4.17.39c2.25.57 4.38 2 6.86 3.65 3.66 2.48 8.26 5.52 14.75 6.76 7.14 1.35 10.06.06 12.64-1.07a12.82 12.82 0 0 1 4.06-1.29c3.2-.51 5 2.3 6.47 4.5 1.86 2.81 3.83 5.74 8.44 6.12 6.64.57 8.94 6 10.45 9.62 1.7 4.07 2 4 3.21 3.5a10.36 10.36 0 0 1 6.87-.23 44.2 44.2 0 0 0-.11-8.16c-.06-1.13-.17-2.13-.23-3.14-.17.06-.28.11-.45.16-3.09 1.24-8.21 3.27-12-.56-4.51-4.5-3.83-12.49-3.37-18.34.1-1.47.22-2.75.22-3.83 0-4.49 0-13.84-2.54-17.54-.72-1-1.63-3.27.06-6.54 2.76-5.23 12.33-12.25 26.17-14.29-.57-3.42-2.42-5.55-5.13-8.38a38.57 38.57 0 0 1-7.42-10c-5.51-11-5.51-24.08-3.66-41.52.84-7.93-.34-9.85-1.23-11.42-.12-.17-.18-.39-.29-.56a.06.06 0 0 0-.06-.06.07.07 0 0 1 0-.11c-1.24-2.25-1.8-4.55-.27-10.46 2.24-8.88 5.51-11 8.44-12.33a2.28 2.28 0 0 0 .73-.38 63.52 63.52 0 0 0 .66-6.76 124.5 124.5 0 0 1 2.32-18.33c1.74-8.27 8.21-14.19 13.38-19 2.42-2.24 4.72-4.38 5.52-5.84.56-1.13-.12-2.37-1.86-5.12-1.63-2.59-3.72-6.07-4-10.52-3.83-.62-6.42-4.38-8.55-7.93-1.52-2.47-3.1-5.07-5-6.25-1.63-1.06-6.64-.44-10.74 0-7.09.84-14.46 1.69-17.27-3.09-2.25-3.72-9.39-3.78-13.22-3.72h-2.31a19.85 19.85 0 0 1-6.4-1.91c-2.94-1.18-6.87-2.75-7.94-1.46-2.92 3.6-5.13 3.93-8.38 4a26.94 26.94 0 0 0-5 .51 12.5 12.5 0 0 0-5.35 2.76c-2.47 1.86-5.45 4.16-10.74 2.36-4.28-1.52-5.75-.17-9.23 3.1L576 462.1c-3.43 3-5.46 2.75-8.78 2a40.27 40.27 0 0 0-10.6-1.1c-9.16 0-14.11-5.19-17.77-9-1.74-1.85-3.43-3.55-4.67-3.55-4.39 0-10.12 7-10.12 11.15v1.51c0 1.47 0 3.27-.06 5.07a3.57 3.57 0 0 1 0 .8c-.17 6.06-1 13.26-4.22 17.54-6.37 8.38-6.31 16.43-6.19 25.7v2.88c0 13.56-20.6 33-21.43 33.86-2.42 2.25-2.71 9.8-2.93 15.31-.28 6.74-.46 11.19-3.6 12.55s-6.36 3.09-9.85 9.21a14.24 14.24 0 0 1-13.67 7.05c-3-.35-5.17-1.92-5.78-4.17a2 2 0 0 0-1.3-1.52c-.68-.18-1.47.44-2.2 1.52s-1.86 2.52-3.66 2.52a4.43 4.43 0 0 1-2.87-1.68c-.27-.39-.73-1-3.87.17-5.07 1.8-4.78 5.11-3.89 10.36 0 .16.06.27.06.39h49.73a7.86 7.86 0 0 1 6.07 2.33c2.31 2.47 2.25 6 2 8.44-.11 1.62 1.19 11.24 6.3 16.93a11.85 11.85 0 0 0 8.5 4.17c13.27.67 18.5-2.81 18.79-5.23.27-2.59.68-6.48 3.72-8.9 2.18-1.75 5.17-2.36 9.21-1.8 3.66.46 6.31 1.35 7.09 4.12h.73c6.58 0 14.75.15 14.75.15a2.74 2.74 0 0 1 2.64 2.71v33.61c.11-.12.79.5 1.35.95 2 1.74 5 4.39 5.57 9.06.33 2.8-.67 5.45-1.47 7.54-.14.33-.24.78-.41 1.18zM393.32 497.37a26.88 26.88 0 0 0-1.86 6.07h22.78v-11.13h-19.12a23 23 0 0 1-1.8 5.06zM110.73 339.12c.17.23 1.18 1.24 6 1.24h.1c7.26 0 11.42-2.48 14.75-4.51 2.58-1.57 5-3 7.88-2.48 4 .74 9.1 11.6 15.08 32.13a7.44 7.44 0 0 1 3-.17c5.61.73 6.23.79 13.55-2.75 5.67-2.77 8.38-1.35 10.92.5a6.35 6.35 0 0 0 2.07 1.13 123.64 123.64 0 0 1 3.15-15.86c1.47-5.24 4.9-7.37 7.94-9.23 2.87-1.74 5.57-3.43 7.76-7.82 3-6.08 5.52-6.87 9-7.32 2.13-.27 4.55-.62 9-4.61a85.51 85.51 0 0 1 35.83-18.85c5.24-1.18 10-.27 14.57.56 5.17 1 9.62 1.86 14.23-.38 4.06-2 9.41-3.1 15.08-4.28 7.88-1.69 16.76-3.55 20.09-7.76 3.49-4.4 2.58-15.7 1.8-24.82a117.33 117.33 0 0 1-.46-11.92c-.5 0-1.06.11-1.57.11-8.83 0-12.1-4.05-15.08-7.7a21.21 21.21 0 0 0-3.81-4c-2.65-2-7.88-6.87-14.41-13.18-10.24-9.78-24.25-23.17-33.64-29.52-6.81-4.63-23.57-18.68-40.28-33h-18.16l-2.19 115 3.31 2.75a2.67 2.67 0 0 1 .85 2.76l-3.15 11.7a2.69 2.69 0 0 1-2.71 2c-14.85-.62-43.59-1.8-46-1.8-2.13 0-2.13 0-5.91.17l-7.49.27c-7 .23-9.67-1.24-12.42-3.19a9.11 9.11 0 0 0-5.23-2c-2.36-.18-3.1.67-4.67 4.49a19.11 19.11 0 0 1-4 6.59c1 4.56.91 8.6-.12 10.91-.1.67 1.59 3 2.59 4.33 2.25 3 5.13 6.87 4.51 11.19a29.67 29.67 0 0 1-1 4.39c-.65 1.89-1.27 4.19-.76 4.93zM238.1 358.3c5.9 1.36 12.48.39 17.78-.34a38.94 38.94 0 0 1 7.42-.67c3.48.16 7.14 2.31 9.79 4a7.69 7.69 0 0 1 1.69-2.25 46 46 0 0 1 7.49-5c3.37-1.91 6-3.43 7.7-6.69a19.71 19.71 0 0 1 1.07-1.75c-.29-4-.57-4.27-4.79-4.72l-2.3-.29c-3.89-.5-6.31-1.68-7.6-3.66-1.52-2.36-.9-5.22-.39-7a36 36 0 0 0-3.49-4.1c-4.51-4.78-11.59-12.37-9.56-20.6a21.33 21.33 0 0 0-5 .35 80.49 80.49 0 0 0-33.47 17.6c-5.69 5.07-9.23 5.57-11.87 5.9-2.09.29-2.87.41-4.84 4.4-2.86 5.74-6.7 8.1-9.79 10-2.81 1.76-4.67 2.89-5.58 6.08a121.4 121.4 0 0 0-2.92 14.81c2.88.83 4.51 3.37 5.81 5.28 1.8 2.75 2.8 4.28 5.73 4.11a41.47 41.47 0 0 0 5.28-.51c4.4-.67 7.71-.9 12.6 1.8a31.6 31.6 0 0 1-.27-5.4c.22-4.84 1.69-8.21 4.44-10.29 3.26-2.3 7.97-2.69 15.07-1.06zm477-145.87c-7.26-.9-34.6-1.3-59.41 0-8.09.45-16.71.57-24.64.57-11.31 0-21-.29-25.71-.45l1.47 22.78h47.42a2.74 2.74 0 0 1 2.7 2.7v29.71h17.55a2.75 2.75 0 0 1 2.6 1.85l6.29 18.9A2.63 2.63 0 0 1 683 291c-.17.29-4.45 6.37-.29 10.47a23.31 23.31 0 0 0 2.93 2.48c4.27 3.14 4 4.72 1.85 17-2.24 13.27-6 38-7 45.12a22.09 22.09 0 0 1 2.86 1.86c2 1.41 3.54 2.53 6 2.53 5.91 0 11.15-4.95 16-15.14 1.84-3.89 1.39-7.76 1-11.24-.5-4.57-1.23-10.81 6.8-12.27 4.84-.9 8-.45 10.3 1.41 3.38 2.69 3.89 7.76 4.16 14.61.4 8.85 2.26 12.84 9.74 18.86a14.65 14.65 0 0 1 3.09-4.11c1.69-1.68 3-3 3.37-7.2.68-8.16 5.63-13.78 11.37-20.31 1.64-1.85 3.38-3.83 5.07-6 4.33-5.4 4-14.3 3.65-23.8a104.9 104.9 0 0 1 .28-16.26c1.8-14.45 15.08-25 22.95-30.15-1.12-1.08-2.3-2.14-3.65-3.32-9.45-8.1-13.5-4.5-17.55-30.61-3.44-22.16-10.13-26.55-18.46-34.76-4 3-7.92 6.3-11.69 9.62-8.36 7.52-14.72 13.26-20.68 12.64zm-168 677.79c4 .95 14.81 1.63 20.77-6.76 2.52-3.6 3.93-6.07 5-7.87 2.2-3.89 3.33-5.46 8.22-5.46a6.3 6.3 0 0 1 5.91 3.37c.78 1.24 1.45 2.26 6 2.26 2 0 3.87 0 5.56.06 5.4.1 9.67.1 10.75-.91a17.6 17.6 0 0 0 1.24-2.65c1.57-3.82 3.93-9.62 10.8-10.69 2.41-.39 3.6-2.36 5.45-5.84s4.33-8.11 9.79-9.9c3.21-1.08 4.45-3 5.79-5.24 1.76-2.81 4-6.35 10.14-6.58 3.49-.12 4-.84 4.72-2a11.07 11.07 0 0 1 2-2.36 33.93 33.93 0 0 0-7.2-4.38c-4.55-2.26-9.28-4.56-11.48-10.23a11.05 11.05 0 0 1 .35-9.35 1.33 1.33 0 0 1 .21-.45 26.56 26.56 0 0 0-5.28-2c-11.42-3.48-15.08-10.63-17.44-15.35a15.55 15.55 0 0 0-2-3.43 43.94 43.94 0 0 1-3.89-5.9c-.44-.8-1.06-1.75-1.68-2.77a9.6 9.6 0 0 0-1.36-.11c-14-.84-19 5.8-19.24 6.07a2.62 2.62 0 0 1-1.8 1.07 2.58 2.58 0 0 1-2-.5l-4.84-3.71-28.3 3.94v46.8a2.73 2.73 0 0 1-2.69 2.65h-11.13v34.89c5.28 2.3 10.63 8.67 10.35 14.86a18.46 18.46 0 0 1-2.26 7.36 6.53 6.53 0 0 1-.45 1.11zm222.34-600.5a99.18 99.18 0 0 0-.23 15.37c.34 10 .73 20.42-4.84 27.33-1.74 2.19-3.54 4.22-5.23 6.14-5.28 6-9.45 10.8-10 17.21a15.21 15.21 0 0 1-4.84 10.53 8.51 8.51 0 0 0-3 5.22 90.27 90.27 0 0 0-.73 9.23c-.35 8.43-.68 15.75-4.67 18a16.94 16.94 0 0 1-6.08 1.84c-2.2.35-2.86.56-3.26 1.24-1.19 2.26-1.13 3.33-1 3.54s.95.62 3.25.62c6.81 0 11.48 6.58 15.2 12a28.81 28.81 0 0 0 3.88 5c2.08 1.62 3.26 4.33 4.5 7.2 1.74 4.16 3.15 6.92 5.74 7.08a7.87 7.87 0 0 1 6.41 3.33c1.51 2.25 1.69 5.46.74 9.45a36.15 36.15 0 0 1 5.11 1.68c2.92 1.24 5.9 2.77 8.94 4.28 6.87 3.43 13.9 7 19.65 7h.5c6-.16 9 1 11 1.86.74.34 1.18.52 1.35.46.35-.23 2-1.92 3.22-3.16 4.89-5 11.69-11.81 17.71-9.29l2.71 1.19c4.72 2.14 7.31 3.26 11.81 1.08a70.58 70.58 0 0 0 6.41-4c6.75-4.49 16-10.63 25-10.63h.45c7.76 0 14-7.76 23.4-19.51 2.42-3 5.06-6.31 7.94-9.74a118.36 118.36 0 0 0 8.59-12.15c-4.94-.23-13.66-1.41-28.8-5.29-22.55-5.74-26.54-11.76-30.37-17.67a38.2 38.2 0 0 0-3.49-4.72c-5.57-5.91-6.08-10.3-4.33-14.29L840 360.33a2.75 2.75 0 0 1-3.31-1.85 28.87 28.87 0 0 1 0-13.57c1.57-6.18 6.64-11.42 15.29-16.2a189.49 189.49 0 0 0-14.4-12.37c-10.36-8.56-35.1-14.41-38.25-31-2.13-11.32-4.34-17.23-8.44-22.4-10.08 6.24-20.1 16.06-21.44 26.78zm72.28 56.6a23.49 23.49 0 0 0-.5 8.09l15.52-4.16c-1-2.3-1.06-4.55.62-6.46 2.65-3 1.24-6.92-1.91-11-7.91 4.3-12.45 8.63-13.72 13.53zm18.51 21.43a39.89 39.89 0 0 1 4.12 5.46c3.42 5.23 6.64 10.18 27.22 15.36 21.21 5.35 28.68 5.29 30.83 5.06 12-20 25.26-47.25 28.46-55.75-9 4.22-16.92 11.48-30.82 11.13-17.79-.44-27.68 13.74-39.84 14.19-6.91.21-15.19-3.72-20-8.5-4.34 5.07-5.46 7.2.04 13.05zM713.41 705.07c3-2.19 6.58-10.69 7.2-17.44a4.5 4.5 0 0 0-1.45-4.28 8.42 8.42 0 0 1-2.38-7.93 6.31 6.31 0 0 1 4.06-4.94c1.3-.62 3.37-1.75 1.4-15.37a18.37 18.37 0 0 1-3.37-1.24c-2-1-3.87-1.9-5.69-2.81-5.5-2.81-10.28-5.23-14.17-5.67a9.72 9.72 0 0 1-3.72-1.3.93.93 0 0 1-.38-.23 16.42 16.42 0 0 1-4-3.87c-.74-1-1.7-2.15-2.21-2.15-13 0-23.62 5.29-28 10.24-1.47 1.63-1.69 2.65-1.63 2.87 3.14 4.56 3.43 12.94 3.43 20.48 0 1.18-.12 2.65-.23 4.27-.39 4.78-.89 11.37 1.8 14.07 1.18 1.18 3.44.45 6.19-.67 2.25-.91 4.34-1.75 6.14-.46A3.83 3.83 0 0 1 678 692c0 1.35.11 3 .23 4.72.27 4.45.62 8.62-.41 11.25-1.45 3.83-4.66 2.87-5.9 2.59a5.68 5.68 0 0 0-4 0 7.73 7.73 0 0 1-2.81.51c-4.28 0-6.08-4.28-7.26-7-1.58-3.77-2.82-6.08-6-6.37-7.26-.61-10.41-5.4-12.5-8.54a12.15 12.15 0 0 0-1.63-2.2c-.33.17-1.12.51-2.13 1-3 1.34-7.08 3.14-15.93 1.45-7.53-1.45-12.82-5-16.7-7.59a20.9 20.9 0 0 0-5.17-2.92h-.18v13.61c0 11.19-8.55 15.19-16.59 15.19h-11.86v40.8c.41.72 4.45 4.84 7.38 7.82 1.86 1.86 3.71 3.76 5.34 5.62 9.29-3.25 13.9-1.86 17.56-.62a12.13 12.13 0 0 0 4 1c4.17.05 7.55 3.87 10.47 8.32 2 .22 3.93.39 5.58.62 8.59 1.12 11.46 1.51 16.7-5.07 4.22-5.23 9.57-8.71 13.9-11.48 3.93-2.52 7.36-4.72 7.82-6.91 1.34-6.31 8.15-9.85 19.69-10.86-.12-.29-.29-.68-.41-.95-1-2.09-1.9-4.06-1.06-6.25s3.38-3.66 7.31-5.17c7-2.77 22.17-7.26 30.16-9.62-1.64-1.53-2.92-3.27-2.92-5.3a6.1 6.1 0 0 1 2.73-4.58zm-2 54.35c-1.28-2-3.08-3.27-4.72-3.33-5.52-.33-12.43-5.4-14.91-7.37l-10.13.62a2.86 2.86 0 0 1-2-.72 2.66 2.66 0 0 1-.83-2v-4.57c-9.18.68-14.81 3.1-15.58 6.81-1 4.4-5.25 7.15-10.19 10.36-4.22 2.69-9 5.79-12.6 10.35-7.14 8.95-12.6 8.21-21.6 7l-1.24-.17a38.24 38.24 0 0 0 2.87 4.39 20.23 20.23 0 0 1 2.75 4.55c2.26 4.39 5 9.8 14.24 12.66 5.68 1.74 7.92 3 8.89 5.07.83 1.86.11 3.54-.39 4.78a5.94 5.94 0 0 0-.23 5.29c1.41 3.66 4.66 5.28 8.77 7.31 3.6 1.75 7.6 3.82 10.8 7.65a21.4 21.4 0 0 1 7 1.35 30.48 30.48 0 0 0 13.69 1.81 107.42 107.42 0 0 1 8.44-9c4.38-4 6.7-7 6.91-8.79.56-4.84 2.93-8.48 6.87-10.51a4.1 4.1 0 0 0 1.8-2.42 8.62 8.62 0 0 0-.73-6.41c-2.75-5.19.05-15.14 3.54-25.1a11.34 11.34 0 0 0-1.39-9.61zm37.86-36.18a18.81 18.81 0 0 1-2.07.12c-2.93 0-6.93-.62-8.5-3.66-.73-1.47-1.35-4.1-2.3-8.28-1-4.38-2.42-10.46-3.78-12.54-2.69-4.17-.39-9.68 1.24-13.73a22.86 22.86 0 0 0 1.24-3.43c.62-3.09 1.47-7.82-1.12-10.91-3.39-4.11-3.89-9.68-3.66-15.08-.79.06-1.63.11-2.59.11 1.8 13.67-.18 17.56-4.61 19.63-.91.46-.91.46-1 1-.35 1.8.06 2.24 1.12 3.42a9.78 9.78 0 0 1 2.76 8.41c-.73 7.49-4.55 17.72-9.44 21.28-.12 1.18 3.48 3.54 4.66 4.32a20.22 20.22 0 0 1 3.1 2.7c2 2 3.37 3.6 6.85 3.16a8.25 8.25 0 0 1 8.11 4.1c2.81 4.55 2.25 11.31-1.29 16.88a5.58 5.58 0 0 0-.51 5.62 13.67 13.67 0 0 0 6.35 6.13 22.6 22.6 0 0 0 1.75-3c1.69-3.21 3.77-7.14 7.66-7.88.56-.67.16-3.81 0-5.51a25.31 25.31 0 0 1-.12-7.71c.46-2.45-2.58-4.47-3.82-5.15zm-12.2-187.9c-.4 1.24-.85 2.6-1.41 4.34l-.85 2.75a37.15 37.15 0 0 0-1.4 8.77c-.23 3.56-.56 7.94-5 7.94a6.45 6.45 0 0 1-2.75-.62c-6-2.31-9.5-2.19-13.28.4A6.25 6.25 0 0 1 709 560a5.66 5.66 0 0 1-4.94-3.21c-2.09-3.54-2.36-9.33-.62-12.49 1.18-2.14 2.07-6 .73-8.77-3.26-.05-6-.23-8.1-.34a29 29 0 0 0-4.73-.12c4.11 6.64 5.68 11.6 4.5 15.25a7.4 7.4 0 0 1-4.73 4.73 1.48 1.48 0 0 0-.39.17 16.69 16.69 0 0 0 1.24 1.86 21.36 21.36 0 0 1 3.2 5.67c1.7 5.13-3.08 12.27-15.41 23a39 39 0 0 1 3.38 13.28c.22 5.67.22 5.67 2.58 8.49.85.95 1.86 2.25 3.21 4 4.17 5.52 5.29 10.24 7 17.39.68 2.92 1.59 6.46 2.77 10.68.27.12.5.35.77.35 4.84.56 10 3.19 16 6.23 1.8.91 3.66 1.86 5.62 2.81 3.38 1.64 6.3 1.47 9.11 1.24 1-.06 2-.1 3.1-.06h.11a8 8 0 0 1 6.36 2.94l.79 1c3.43 4.16 7.65 9.29 7.59 24 .73-.18 1.68-.51 2.47-.74a29.17 29.17 0 0 1 8.44-1.74 15.22 15.22 0 0 1 7.94 2.24 12.08 12.08 0 0 0 6.41 1.81c2.48 0 4.61-1.07 7.31-2.47 3.66-1.86 8.16-4.16 15-4.16 9.29 0 20.13-7.2 24.64-11.59-4.39-6.25-11.09-14.69-9.62-27.35 1.8-15.53 1.12-18.9-3.37-24.3-3.44-4.1-1.24-14.75 1.57-22-9.91-7.26-23.69-17.38-23.69-17.38a2.82 2.82 0 0 1-1.13-2.2v-5.46zm-329.67-122c1.12 2.36 2.31 4.95 3.43 7.76a15.21 15.21 0 0 1 4 3.66 11.46 11.46 0 0 0 .84 1.06 59.92 59.92 0 0 0 4.45-8.21c3.93-8 8.38-17.09 14-20 3.37-1.74 5.29-8.38 6.91-14.17 1.57-5.58 3-10.8 6-14a50.45 50.45 0 0 1 7.65-6.12c3.1-2.14 6-4.22 8.05-6.93-8.22-2.8-12.21-8.49-11.59-25.37-5 2.92-13 7.26-18.39 8.11-5.81.89-8.61-1.24-11.09-3.16a15.61 15.61 0 0 0-5.06-2.92c-3.5-1.18-8.72 1.68-13.28 4.16a42.76 42.76 0 0 1-6.58 3.21c-2.24.78-4.89 3.82-6.36 7.42-1.57 3.83-1.63 7.6-.28 10.41a35.93 35.93 0 0 0 5 6.76c5.28 6.23 11.81 14 8.77 25.47-2.57 9.96.02 15.36 3.56 22.84zm339.27 270.24a4.25 4.25 0 0 1-2.27-.73 4.12 4.12 0 0 1-1.57-3.55c.29-13.72-3.09-17.77-6.35-21.71l-.79-1c-.11 4 .29 8.09 2.48 10.68 4.22 5.07 2.92 11.81 2.25 15.41a21.42 21.42 0 0 1-1.57 4.51c-1.19 2.92-2.87 6.91-1.69 8.71 1.84 2.93 3.2 8.67 4.49 14.29a53.51 53.51 0 0 0 1.92 7.1c.33.39 1.86.66 3.66.66a22.92 22.92 0 0 0-.91-2.25 41.23 41.23 0 0 1-3.6-13c-1-8.77 1.58-14.12 3.66-18.39a2.12 2.12 0 0 1 .29-.73zm-55.87-134.8c.27-.89.17-3.82-3.6-10.12-1.53 1.85-3.33 3.38-5.69 3.71a5.33 5.33 0 0 1-1 .06 10 10 0 0 1-4.61-1.51 6.94 6.94 0 0 1-2.65 2.13c-1.51.68-3.66 1.63-5.46 8.77a21.94 21.94 0 0 0-.67 3.89 8.11 8.11 0 0 1 6.41.67 4 4 0 0 0 2.47.57c.8-.18 1.7-1.24 2.6-2.37 2-2.36 5-6 10.8-4.56.95-.39 1.29-.84 1.4-1.24zm53-25.71a26 26 0 0 0-7.53-2.81 13.64 13.64 0 0 1-7.08-3.42c-1-.79-1.07-.85-1.53-.85-1.07 0-3.1.67-6 2.09-7.42 3.54-8.44 4.22-9.39 4.89a33 33 0 0 1-3.1 1.8 6.56 6.56 0 0 0-3 3.76 1.59 1.59 0 0 0 .68 1.59c.27.21.33.61.61.89a2.58 2.58 0 0 1 .62.91c3 4.43 2.6 10.68.06 15.23-1.12 2-.11 6.76.89 7.65 5.87-3.82 10.86-4 18.51-1.12.06 0 .12.05.17.05.12-.73.23-1.8.29-2.75a43 43 0 0 1 1.63-10l.85-2.7a44.5 44.5 0 0 1 2.92-8h.06c1.69-3.09 4.05-5.17 8.71-6.35a4.46 4.46 0 0 0 1.67-.86zm-70.77 89.12a33.65 33.65 0 0 0 6.53 8.71c3 3.16 5.74 6.37 6.53 11.6.84-.06 1.63-.17 2.53-.17a5.47 5.47 0 0 1 2.88.84c-.23-1-.52-2.08-.74-3-1.63-7-2.59-10.74-6.08-15.36a47.55 47.55 0 0 0-3-3.76c-3.15-3.72-3.54-4.62-3.88-11.71-.28-6.08-3.43-14.4-8.27-20-1.12 13.66-.78 24.24 3.54 32.85zm75-163.43a66 66 0 0 1 11.88.23c.57-2.42.78-4.45.1-5.4-.1-.23-.56-.85-2.24-.91-6.08-.39-8.56-6.12-10.36-10.34-.89-2.09-1.8-4.28-2.81-5.07a30.36 30.36 0 0 1-5-6.13c-3-4.34-6.68-9.74-10.45-9.74h-.68c-3.66 0-6.13-1.06-7.43-3.14-1.4-2.26-1.12-5.28.85-8.94 1.68-3.16 4.72-3.6 7.14-4a10.44 10.44 0 0 0 4.22-1.23c1.41-1.13 1.74-9.22 2-13.56.11-3 .27-5.79.61-8.26-10.18-7.82-13.1-13.11-13.56-24.26-.22-4.89-.51-9.33-2.13-10.62-1-.74-2.93-.91-6-.35-2.8.52-3 1-2.42 6.37.45 4 1 8.94-1.46 14.17-5.85 12.27-12.66 18.23-20.93 18.23-4.22 0-7-2-9.17-3.6-2.58-1.86-4.27-3.1-8-2a25.1 25.1 0 0 0-6.25 3.37c-6.18 4.12-13.9 9.29-33.64 6.19-16.26-2.54-19.35-8.5-21.2-12-1.13-2.13-1.18-2.25-4.34-1.51-6.08 1.39-13 8.54-15.58 16.31-1.47 4.27-1.3 7.87.39 10 2.71 3.27 5.18 4.49 8 6a37.72 37.72 0 0 1 13.61 11.13c3.83 4.72 9.12 8.55 14.29 12.27 7.31 5.23 14.18 10.24 15.08 17l1.06 8c2.94.91 5.69 2.36 7.43 5.24 1.07 1.75 7.65 1 12 .51 5.69-.68 11.09-1.3 14.29.83 2.82 1.86 4.72 5 6.58 7.94 1.64 2.65 3.49 5.63 5.07 5.63h.06c2-.12 3.48-1.08 5.23-2.15 2.19-1.34 4.6-2.92 8.26-2.92a14.43 14.43 0 0 1 7.49 2 5.45 5.45 0 0 0 2.81.9 19.76 19.76 0 0 0 4.95-1.52c3.43-1.35 7.71-3 12.43-3 2 0 3-1.36 5-4.45s4.27-6.74 9.11-6.86c1.16-.19 2.46-.3 3.74-.36zm.23 38.6c.68-6.31-4.22-14.13-8.15-20.43-1.08-1.74-2.09-3.32-2.94-4.78a8.8 8.8 0 0 1-7 3.49c-3.72 0-7.32 1.41-10.46 2.65-2.59 1-4.84 1.9-6.93 1.9a10.72 10.72 0 0 1-5.28-1.51 9.28 9.28 0 0 0-5-1.36c-2.08 0-3.55.91-5.35 2.09a20.66 20.66 0 0 1-3.93 2c.12 3.27 1.63 5.86 3.2 8.34 1.91 3 4.12 6.46 2.09 10.45-1.18 2.36-3.72 4.73-6.64 7.43-4.61 4.28-10.42 9.57-11.81 16.15a125.11 125.11 0 0 0-2.21 17.55c-.1 1.69-.21 3-.33 4.27 1.75 1.24 2.75 1.52 3.26 1.41.85-.12 1.91-1.12 3.44-3.26a8.81 8.81 0 0 1 1.57-1.64c.11-.11.11-.27.23-.39s.11 0 .17 0c2.75-2.31 6-2.19 10.4-1.8 1.35.11 2.87.17 4.67.23a6 6 0 0 1-.22-2.42c.5-3.78 3.76-6.76 5.85-7.82a22.13 22.13 0 0 0 2.59-1.53c1.18-.78 2.3-1.57 10.07-5.29 8.55-4.1 11.3-2.19 13.33-.38a10.07 10.07 0 0 0 3.1 1.74 62.45 62.45 0 0 1 6.02-12.19c2.92-5.01 5.79-9.73 6.29-14.9zm-58.17 77.18a18 18 0 0 0-2.47-4.22c-1.07-1.52-2.19-3-2.42-4.73a14 14 0 0 0-2.42 2.42c-1.46 1.74-3.1 3.72-5.79 4.22a6.58 6.58 0 0 1-1.53.12 9.41 9.41 0 0 1-4.22-1.13 3.68 3.68 0 0 0-2.42-.44c1 2.24 1.59 5.44 1.13 11.42a31.6 31.6 0 0 1 7.25 8.65c13.31-11.75 13.15-15.64 12.92-16.31zm-17.58-291.35h-41.23v28.35a20.85 20.85 0 0 0 1.63 8.66c1.58 4.55 3.44 9.68 2 26.56-1.74 20.3-.45 33.35.11 38 16.15 2.08 22.44-1.91 27.9-5.57a29.25 29.25 0 0 1 7.66-4.05 14.5 14.5 0 0 1 4.67-.62c1.18-8 4.72-31.62 7-44.55 1.8-10.58 1.8-10.58.23-11.77a25.7 25.7 0 0 1-3.54-3c-5.3-5.29-3.33-12.37-1.08-16.25zM474.37 201c-3 15.75 2.65 22 6.48 26 2.25 2.37 5.62 6 1.4 10-2.87 2.7-3.1 15.07-3.26 24.13-.11 7.43-.23 14.46-1.35 19.42-2 8.59-7.82 15.12-14 22-2.87 3.21-5.79 6.46-8.38 10-1.8 2.47-4.22 6-3.88 7.54.27 1.36 3.26 3.16 7 5.46l3.21 2c13.11 8.22 11.6 17 8.44 26.73-.11.33-.34.56-.44.89.15.29.44.46.5.79a126.93 126.93 0 0 0 5.73 20.25 2.7 2.7 0 0 1-.27 2.54 3.1 3.1 0 0 1-2.32 1.12c-4.94-.12-14.62 1.12-14.79 4.72-.12 2.37 4.45 6.87 8.11 10.53 5.44 5.46 11.52 11.54 12 18.06 1-.4 2-.91 3-1.24 6-1.86 11.94-2.36 17.67-2.88 8.11-.66 15.14-1.28 20.6-5.44 2.19-1.64 4.27-3.33 6.35-5 7.59-6.08 15.47-12.33 26.38-16.94 5-2.07 8.33-6.52 11.25-10.41 3.1-4.05 5.8-7.59 9.79-7.81a7.21 7.21 0 0 1 3.66.84c-.44-2.75-2.36-7.54-5.9-13.17a20.2 20.2 0 0 0-2.93-3c-3.15-3-6.48-6-5.9-9.62.16-1.29 1-3.09 3.64-4.39 2.21-1.06 2.83-5 3.56-9.5.78-5.17 1.8-11.52 5.67-17.1a27.42 27.42 0 0 1 7.2-6.75c3.61-2.59 6-4.28 6-9.12v-44.96c-27-13.16-92.65-47.2-103.45-52.83a122.15 122.15 0 0 1-10.77 7.14zm119.55 90.63c0 7.59-4.33 10.74-8.15 13.51a23.87 23.87 0 0 0-6 5.46c-3.16 4.49-4 10-4.73 14.84-.9 5.79-1.74 11.25-6.52 13.56a3.07 3.07 0 0 0-.74.44c.12.79 2.93 3.44 4.28 4.74a22.9 22.9 0 0 1 3.82 4.16c3.44 5.5 8.78 15.53 6 20.7 0 1.06 2.88 4.05 6.37 6.87 3.65-6.76 10-13.17 17.21-14.86 6.69-1.52 8.67 1.08 10.35 4.27 1.4 2.71 3.37 6.31 13.61 8.5-.68-5.9-1.57-18.62.06-37.52 1.35-15.69-.29-20.26-1.69-24.25a26.94 26.94 0 0 1-1.91-10.46v-31.11a2.74 2.74 0 0 1 2.71-2.69h22.94v-27h-57.61zm-127.2 51.14a17.17 17.17 0 0 0-5 7.43 15 15 0 0 0 3.44 1.46 25.62 25.62 0 0 0 1.56-8.94zm-8-10.63l-2.09-1.3c-.27 6.92.23 11.48 1.35 14.46a24 24 0 0 1 6.76-7.87 20.66 20.66 0 0 0-6.05-5.34zM491.09 469c6-4 14.46-3.1 21.2-2.42a59.06 59.06 0 0 0 6.42.38v-5.28c0-6.81 8-16.55 15.53-16.55 3.48 0 6 2.54 8.54 5.24 3.33 3.43 7 7.25 13.9 7.25a48.65 48.65 0 0 1 11.82 1.29c2.42.57 2.42.57 3.93-.77l1.69-1.53c3.6-3.37 7.26-6.8 14.69-4.22 2.53.91 3.54.12 5.67-1.51a17.41 17.41 0 0 1 7.61-3.83 35.19 35.19 0 0 1 5.9-.62c2.42-.06 2.81-.06 4.34-2 3.6-4.44 9.72-2 14.17-.16a21.33 21.33 0 0 0 4.61 1.51h2.42c1.35 0 2.86 0 4.5.12l-.85-6.3c-.56-4.45-6.58-8.78-12.87-13.28-5.19-3.71-11.09-8-15.37-13.22a32.8 32.8 0 0 0-11.94-9.79 27.21 27.21 0 0 1-9.62-7.38c-3-3.6-3.43-8.94-1.42-15.07-3.31-2.48-7.8-6.36-9-10.19a5.49 5.49 0 0 0-3-1.85c-1.53.05-3.66 2.93-5.75 5.68-3.21 4.22-7.14 9.45-13.45 12.1-10.22 4.38-17.48 10.13-25.14 16.2-2.08 1.69-4.22 3.37-6.47 5.06-6.7 5.13-14.79 5.8-23.35 6.52-5.45.46-11.07 1-16.53 2.65-12.1 3.78-18.35 14.17-17 28.58s12.21 24.87 19 30a15.53 15.53 0 0 1 5.82-6.61zM325 375.3c9.46 4.55 22.18 4 27.68-1.24l2-1.92c5.45-5.28 8.77-8.49 17.67-8.73 4.72 0 9.1 2.32 13.38 4.69a44.4 44.4 0 0 0 7.76 3.54c-.78-1-1.63-2-2.42-3a42.28 42.28 0 0 1-5.68-7.88c-2.08-4.22-2-9.62.12-14.85a24.51 24.51 0 0 1 3.66-6.08 19.38 19.38 0 0 1-7.61-3.44 9.81 9.81 0 0 0-6.58-2.25 14.37 14.37 0 0 0-9.22 2.81c-2.08 1.36-4.39 2.83-7.71 2.21-2.76-.56-4.27-2.87-5.79-5.19-2.65-4-5.64-8.6-16.09-7.59A26.16 26.16 0 0 0 318 336.64c-4.22 5.46-5.63 11.19-5.11 14.17 1.22 7.1 3.41 20.27 12.11 24.49zm616.71 314.57c-6.14 2.27-6.25 14.35-9.17 17.29s-11.37 6.58-13.23 11-4.95 11.93-11.75 14.29-9.73 10-19.86 11.77-15.52 6.46-16.76 10.12-2.94 9.33-5.63 12.49 4.16 22.28 1.24 29.36-18.12 22.52-20.31 30.81 5.23 23.85 3.43 28.4c-3.78 9.57 1 20 12 24.48 10.3 4.16 15.81-6.08 25.71-8.28 16.14-3.64 34.55-67.83 40.16-75.71s7.82-29.88 13-36.24 12-7.59 12.48-21.54-3.02-51.27-11.31-48.24z"/></svg>