<svg data-name="Layer 1" xmlns="http://www.w3.org/2000/svg" viewBox="0 0 1000 1000"><path d="M541.39 0a8.25 8.25 0 0 0-6.69 3.86L514.09 37a8.28 8.28 0 0 0-1.24 4.67l3.56 88.82-28.56 174.91-14.35 82.44a8.36 8.36 0 0 0-.1 1.41V452l-45.86 98.76a8.3 8.3 0 0 0-.11 6.71L447.81 605l-6.38 22.29a8.64 8.64 0 0 0-.33 2.26v46.61a9 9 0 0 0 .22 1.87l10.16 44-19 44.33-28.76 9.59a8.23 8.23 0 0 0-5.21 10.41 8.1 8.1 0 0 0 2.35 3.57l24.3 21.59L391 834.26a8.23 8.23 0 0 0-3.65 7.35l3.58 61a8.24 8.24 0 0 0 5 7.08l22.72 9.74 16.58 26.5s0 .08.05.13l32.26 50.19a8.26 8.26 0 0 0 8.95 3.54l28.68-7.18a8.18 8.18 0 0 0 3.82-2.15l32.27-32.29a8.24 8.24 0 0 0 0-11.65 8.37 8.37 0 0 0-2-1.46l-76.46-39.89 8.73-29.17 39.37-111a8.22 8.22 0 0 0-.16-5.9l-24.15-58.66 24.52-122.53 42.86-125a8.24 8.24 0 0 0 .24-4.51L536.83 372l35-90.91a8.24 8.24 0 0 0 .54-2.95v-64.47L600 189.23a8.12 8.12 0 0 0 2.41-3.75l9.88-32.29a8.25 8.25 0 0 0-5.48-10.28 8.51 8.51 0 0 0-2.4-.36h-18.1L568.1 82.27l5-24a8.22 8.22 0 0 0-3.65-8.61L562.07 45 549.55 5.73A8.25 8.25 0 0 0 541.39 0z"/></svg>