<svg data-name="Layer 1" xmlns="http://www.w3.org/2000/svg" viewBox="0 0 1000 1000"><path d="M929.41 135.42v.7c-1.19 74.47-193.3 134.72-430.09 134.72S70.4 210.59 69.21 136.12v-.7C69.19 60.63 261.76 0 499.3 0s430.11 60.63 430.11 135.42zM930.81 864.58v.71C929.6 939.75 737.49 1000 500.7 1000S71.8 939.75 70.61 865.29v-.71l-.3-190.78v.7c1.21 74.5 193.32 134.71 430.11 134.71S929.32 749 930.51 674.5v-.7z"/><path d="M929.84 622.65v.7c-1.19 74.47-193.3 134.72-430.09 134.72S70.83 697.82 69.64 623.35v-.7l-.28-190.79v.71c1.19 74.43 193.3 134.71 430.09 134.71S928.35 507 929.54 432.57v-.71z"/><path d="M929.91 378.47v.71c-1.2 74.46-193.3 134.71-430.1 134.71s-428.9-60.25-430.1-134.71v-.71l-.28-190.78v.71c1.2 74.46 193.3 134.71 430.09 134.71s428.9-60.25 430.1-134.71v-.71z"/></svg>