<svg data-name="Layer 1" xmlns="http://www.w3.org/2000/svg" viewBox="0 0 1000 1000"><path d="M826.32 355.25v455.28a15.67 15.67 0 0 1-15.27 15.26H189a15.67 15.67 0 0 1-15.27-15.26V188.42c0-7.83 6.85-14.21 15.27-14.21h454.67l50-50H189c-35.79 0-65.27 28.42-65.27 64.21v622.11c0 35.79 29.48 65.26 65.27 65.26h622.1c35.79 0 65.27-29.47 65.27-65.26V305.25z"/><path d="M435.65 450.22l-4.42 4.42a65 65 0 0 0-18.31 37.89l-12.63 90.92a14.67 14.67 0 0 0 16.41 16.42l90.3-12a65.14 65.14 0 0 0 37.89-18.31l4.42-4.42zm554.4-375.71l-64.4-63.78A35.43 35.43 0 0 0 900.39 0a34 34 0 0 0-25.26 10.73L813.88 72 457.75 428.12 572 542.41 917.44 197l72.61-72.62c13.27-13.25 13.27-35.98 0-49.87zM968 102.93l-39.78 39.14L858.08 72l39.78-39.8a4.86 4.86 0 0 1 3.14-1.26c1.26 0 1.9.63 3.16 1.26l64.41 64.41a4.84 4.84 0 0 1 1.26 3.16c-.61 1.23-1.24 1.89-1.83 3.16z"/></svg>