<svg xmlns="http://www.w3.org/2000/svg" viewBox="0 0 1000 1000"><path d="M948.75 324.14L879.25 221 676.59 423.64a20.76 20.76 0 0 1-29.26 0l-73.16-73.16a20.76 20.76 0 0 1 0-29.27l202.65-202.65-101-67.31c-16.83-11-8.78-36.58 11-37.31L978.74 0c12.44-.73 22 8.78 21.22 21.22l-13.9 291.9c-1.46 20.53-26.34 27.88-37.31 11.02z"/><path d="M826.32 355.25v455.28a15.67 15.67 0 0 1-15.27 15.26H189a15.67 15.67 0 0 1-15.27-15.26V188.42c0-7.83 6.85-14.21 15.27-14.21h454.67l50-50H189c-35.79 0-65.27 28.42-65.27 64.21v622.11c0 35.79 29.48 65.26 65.27 65.26h622.1c35.79 0 65.27-29.47 65.27-65.26V305.25z"/></svg>