<svg data-name="Layer 1" xmlns="http://www.w3.org/2000/svg" viewBox="0 0 1000 1000"><path d="M670.62 781.61h-28v53.3h28c21.13 0 31.2-10.07 31.2-26.65s-10.07-26.65-31.2-26.65zM547.93 578.5h-98.67c-7.28 0-15.8 4.78-15.8 12v13.53c0 7.26 8.52 13.42 15.8 13.42h98.67c7.28 0 15.53-6.16 15.53-13.42v-13.48c0-7.27-8.25-12.05-15.53-12.05z"/><path d="M515.66 0a14 14 0 1 1 0 27.94h-76.93a14 14 0 1 1 0-27.94H100v1000h800V0zm-27 43.27h77a14 14 0 0 1 0 27.92h-77a14 14 0 1 1 0-27.92zm77 203h-77a14 14 0 1 1 0-27.93h77a14 14 0 0 1 0 27.93zm12.48 74.39a14 14 0 0 1-14 14h-77a14 14 0 0 1 0-27.94h77a14 14 0 0 1 13.93 13.97zm-12.55-161.92h-77a14 14 0 1 1 0-27.94h77a14 14 0 0 1 0 27.94zM438.73 87.59h76.93a14 14 0 1 1 0 27.91h-76.93a14 14 0 1 1 0-27.91zm0 87.56h76.93a14 14 0 1 1 0 27.93h-76.93a14 14 0 1 1 0-27.93zm-1.52 88.37h77a13.95 13.95 0 1 1 0 27.89h-77a13.95 13.95 0 1 1 0-27.89zm0 87.54h77a14 14 0 1 1 0 27.94h-77a14 14 0 0 1 0-27.94zM429.8 950h-209v-47.17l104-120.89H224.08v-59.48H424.6v47.13l-104 120.9h109.2zm99.13 0h-76.7V722.46h76.7zm-91-300c-8.94 0-17.42-7.77-17.42-16.71V439c0-8.95 8.48-16.52 17.42-16.52H559.3c9 0 17.16 7.57 17.16 16.52v194.29c0 8.94-8.21 16.71-17.16 16.71zM675.5 894.06h-32.83V950H566V722.46h109.5c63.37 0 103.67 33.15 103.67 85.8s-40.3 85.8-103.67 85.8z"/></svg>