<svg data-name="Layer 1" xmlns="http://www.w3.org/2000/svg" viewBox="0 0 1000 1000"><path d="M100 1000h800V752H100zm532-213.43l41.75 102.25 42.75-102.25h58l-74 175h-58l-74-175zm-217 55c0-32.5 27.25-59 81.5-59 23.5 0 47.75 5 66 15.25l-17.75 42.75c-17.25-8.75-33.5-13-48.75-13-17.25 0-22.75 5-22.75 11 0 21 96.75 3.5 96.75 68 0 32-27.25 59-81.5 59-29.25 0-58.75-7.25-76.25-18l19-43c16.5 9.75 38.5 16 57.75 16 16.75 0 22.75-3.5 22.75-9.5 0-22-96.75-4.25-96.75-69.5zm-84.75-59c34.25 0 61.25 12.5 78.5 35l-37.25 33.25c-10.25-13-22.5-20.5-38.25-20.5-24.5 0-41 17-41 43.75s16.5 43.75 41 43.75c15.75 0 28-7.5 38.25-20.5l37.25 33.25c-17.25 22.5-44.25 35-78.5 35-56.25 0-97.5-37.75-97.5-91.5s41.25-91.5 97.5-91.5zM100 0v742h800V0zm166.67 691.71H150V575h116.67zm0-175H150V400h116.67zm0-175H150V225h116.67zm0-175H150V50h116.67zm291.66 525H325V575h233.33zm0-175H325V400h233.33zm0-175H325V225h233.33zm0-175H325V50h233.33zm291.67 525H616.67V575H850zm0-175H616.67V400H850zm0-175H616.67V225H850zm0-175H616.67V50H850z"/></svg>