<svg data-name="Layer 1" xmlns="http://www.w3.org/2000/svg" viewBox="0 0 1000 1000"><path d="M100 0v1000h800V0zm516.67 50H850v100H616.67zm0 150H850v100H616.67zm0 150H850v100H616.67zm0 150H850v100H616.67zM325 50h233.33v100H325zm0 150h233.33v100H325zm0 150h233.33v100H325zm0 150h233.33v100H325zM150 50h116.67v100H150zm0 150h116.67v100H150zm0 150h116.67v100H150zm0 150h116.67v100H150zm128.51 392.89c20.48 0 36.4-9.75 49.73-26.65l48.42 43.22C354.24 938.71 319.14 955 274.61 955c-73.12 0-126.75-49.07-126.75-119s53.63-118.94 126.75-118.94c44.53 0 79.63 16.25 102.05 45.5l-48.42 43.22c-13.33-16.9-29.25-26.65-49.73-26.65-31.85 0-53.3 22.1-53.3 56.87s21.45 56.89 53.3 56.89zM480.34 955c-38 0-76.38-9.42-99.13-23.4l24.7-55.9c21.45 12.68 50 20.8 75.08 20.8 21.77 0 29.57-4.55 29.57-12.35 0-28.6-125.77-5.52-125.77-90.34 0-42.25 35.42-76.7 106-76.7 30.55 0 62.07 6.5 85.8 19.82l-23.08 55.57c-22.42-11.37-43.55-16.89-63.37-16.89-22.43 0-29.58 6.5-29.58 14.3 0 27.3 125.78 4.55 125.78 88.39-.05 41.56-35.48 76.7-106 76.7zm275.6-5.2h-75.4l-96.2-227.49h82.55l54.27 132.92 55.58-132.92h75.4z"/></svg>