<svg data-name="Layer 1" xmlns="http://www.w3.org/2000/svg" viewBox="0 0 1000 1000"><path d="M100 1000h800V752H100zm450.75-214.7H635c48.75 0 79.75 25.5 79.75 66s-31 66-79.75 66h-25.25v43h-59zm-87.5 0h59v175h-59zm-178 138.75l80-93h-77.5V785.3H442v36.25l-80 93h84v45.75H285.25z"/><path d="M655.25 851.3c0-12.75-7.75-20.5-24-20.5h-21.5v41h21.5c16.25 0 24-7.75 24-20.5zM548.92 590.42H448.21c-7.43 0-16.12 4.88-16.12 12.3v13.81c0 7.41 8.69 13.7 16.12 13.7h100.71c7.43 0 15.85-6.29 15.85-13.7v-13.81c0-7.42-8.42-12.3-15.85-12.3z"/><path d="M516 0a14.26 14.26 0 1 1 0 28.52h-78.54a14.26 14.26 0 1 1 0-28.52H100v742h800V0zm-78.54 89.4H516a14.25 14.25 0 1 1 0 28.49h-78.54a14.25 14.25 0 1 1 0-28.49zm0 89.36H516a14.26 14.26 0 1 1 0 28.51h-78.54a14.26 14.26 0 1 1 0-28.51zM435.92 269h78.56a14.24 14.24 0 1 1 0 28.47h-78.56a14.24 14.24 0 1 1 0-28.47zm0 89.34h78.56a14.26 14.26 0 1 1 0 28.52h-78.56a14.26 14.26 0 0 1 0-28.52zm142.08 288c0 9.13-8.39 17.06-17.51 17.06H436.6c-9.13 0-17.78-7.93-17.78-17.06V448.07c0-9.14 8.65-16.86 17.78-16.86h123.93c9.12 0 17.51 7.72 17.51 16.86zm-12.57-304.77h-78.56a14.26 14.26 0 0 1 0-28.52h78.56a14.26 14.26 0 0 1 0 28.52zm1.57-90.19h-78.61a14.26 14.26 0 1 1 0-28.51H567a14.26 14.26 0 0 1 0 28.51zm0-89.38h-78.61a14.26 14.26 0 1 1 0-28.51H567a14.26 14.26 0 0 1 0 28.51zm0-89.35h-78.61a14.25 14.25 0 1 1 0-28.5H567a14.25 14.25 0 0 1 0 28.5z"/></svg>