<svg data-name="Layer 1" xmlns="http://www.w3.org/2000/svg" viewBox="0 0 1000 1000"><path d="M233.22 1000C104.37 999.92 0 895.4.08 766.56A233.28 233.28 0 0 1 68.25 601.9l212-212.12A233.3 233.3 0 0 1 571 358.28a227 227 0 0 1 39.16 31.5 66 66 0 0 1 0 93.64 68.32 68.32 0 0 1-93.65 0 100 100 0 0 0-141.31 0L162.4 696.05a100 100 0 0 0 141.47 141.48l125.81-126a16.68 16.68 0 0 1 18.17-3.67 280.27 280.27 0 0 0 106.64 20.67h6.67A16.66 16.66 0 0 1 573 757L398 932a231.79 231.79 0 0 1-164.78 68z"/><path d="M555.49 678.56h-12.66a232.19 232.19 0 0 1-24.83-2.34c-6.83-1.16-13.5-2.5-20.16-4.16l-9.84-2.67c-3.49-1-7.16-2.16-10.66-3.5s-7.17-2.5-10.66-4-7-2.83-10.5-4.5a231.48 231.48 0 0 1-66.66-46.65 66.45 66.45 0 0 1 0-94 68.32 68.32 0 0 1 93.65 0 100 100 0 0 0 141.31 0l54.66-54.32 1.33-1.5 156.31-156.13A100 100 0 0 0 695.3 163.32L569.82 288.63a16.66 16.66 0 0 1-18.16 3.66 280.12 280.12 0 0 0-106.48-20.83H439A16.72 16.72 0 0 1 426.85 243l174.8-174.67c91.11-91.11 238.83-91.11 329.94 0s91.11 238.83 0 329.94L719.46 610.4a233.23 233.23 0 0 1-108.14 61.32h-1.84l-9.66 2-5.33 1-11.49 1.67h-5.67c-4.33 0-8.16.83-11.83 1z"/></svg>