<svg data-name="Layer 1" xmlns="http://www.w3.org/2000/svg" viewBox="0 0 1000 1000"><path d="M984.06 843L774.4 633.28c-19-19-50.58-20-70.6-3.16l-60-60.06a353.57 353.57 0 0 0 70.59-212.82C714.34 160.21 554.19.07 357.17.07S0 160.21 0 357.24s160.15 357.17 357.17 357.17c79 0 152.77-26.34 212.83-70.59l60 60c-16.85 21.07-15.8 51.63 3.16 70.59l209.72 209.72c21.07 21.07 54.79 21.07 74.8 0l67.44-67.43c20.01-20.02 20.01-53.7-1.06-73.7zM356.12 609.05c-139.08 0-251.81-112.74-251.81-251.81S217 105.43 356.12 105.43s251.81 112.73 251.81 251.81-112.74 251.81-251.81 251.81z"/></svg>