<svg data-name="Layer 1" xmlns="http://www.w3.org/2000/svg" viewBox="0 0 1000 1000"><path d="M59.47 776.32L0 742.05v-101.8s42.34-120 44.36-114.93-5.55-12.6 0-18.65 34.77 35.78 37.3 34.77 5.54 2 9.57-.5 3.19 1.84 4-2.52-43.85-39.65-40.82-46.7 23.85-8.4 27.88-11.08-1.29-13.45 7.76-19.49 27.9-3 34.94-6.39 13.1-19.14 9.75-24.2-21.84-2.35-22.18 2-8.06 5.72-9.4 2-2.35-7.14-5.72-6.75 4.38-3.32 8.07-9.71 5.38-25.54 4.37-28.56-1-12.1 2.68-15.46 13.11-8.4 14.79-6.73 3.35 8.4-1 13.44 1.34 28.23 6.38 27.56 18.48-4.37 19.83-12.77 7.72-23.19 0-23.19-13.1 4-17.8-.34-6.39-9.75-4.37-14.11 6.38-27.89 9.4-27.89 19.49 19.49 24.53 17.14-6.72-14.45 0-17.14 20.5 9.4 21.17 5.37-22.19-12.73-26.55-13.42-5.71-6.38 5-7.05 20.53-1 21.52-3.69S221.44 275 231.18 273s21.17-4.71 21.51 0-10.76 8.4-1.35 12.43 4-11.09 9.07-11.09 22.51 4.71 25.2 14.79 8.06 30.24 2.69 40-17.81 32.26-30.92 32.59-19.15-3.36-19.15-4.7-3.69 12.1 2.36 12.76 8.39-4 13.77-1.68 6.05 23.52 1 29.57 8.74-6.05 12.1-13.78 6.72 6.05 9.07 11.43 10.08 12.43 10.76 4.7-16.47-21.83-18.48-25.86-3.7-7.4 4.7-12.1 13.44-4 19.15-9.41 17.14-21.5 18.48-26.88-7.39-13.78-9.41-22.18 5-8.74 7.73-5.71 28.23 7.4 34.94 3 11.42-25.73 22.18-30.5 23.51-.07 36.28-14.19 43-34.27 56.45-33.6 34.27-2 34.93 3.36-10.07 8.74 0 10.08 10.08-13.44 13.44-9.4 90.06 48.37 70.57 102.12c0 0-21.5 40.65-37 41s-26.88 22.18-15.79 24.19 6-6.71 13.77-10.41 14.09-3 17.12-6 26.57-23.19 27.23-27.89-2-12.77 3-15.79 20.51-3 23.86 1.34 17.82 17.14 18.47 20.49 1.68-5.37 7.39-5.37 9.4 5.71 14.79 6.05 13.12.67 12.78 5.37-21.49 20.83-24.87 20.16-8.73 1.69-5.73 4.38 7.41 2 8.43 6.05S633.32 406 636 406s8.06-.66 9.76-2.68-2.36-14.45 1.66-17.13 11.09-11.09 13.78-12.44 7.07-19.14 10.42-22.16 12.78-10.09 20.51-10.76 15.44-3.69 17.47 6.73 2.4 15.44 8.77 21.86 18.13 13.1 21.14 15.45.68 7.06-3 8.74 8.74-4.37 14.79-2.36 12.78 12.43 15.11 20.16 29.89 21.5 35.29 22.17 29.25 4 33.93 1.68 10.1-22.84 21.17-25.53 48.73-3 55.11 4.71 13.43 31.58 17.8 34.27 5.39 1.35 6.37 5-6 11.77 4 9.75 18.14-1.69 25.85 4 31.93 7.05 34 11.42-38 78.31-36.65 84.67 20.18-.32 23.54 2 0 23.52 0 23.52-1.35-8.42-6.38-8.74-6.38 2-8.74 8.06-19.82 0-25.87 1.35-2.68 7.06-7.71 5-4.72 8.06-16.14 8.74-21.49-5.71-27.56-8.4-10.09 5.72-13.77 3.69 1-8.73-2-10.74-51.75 2.69-54.1 5.37-126.68 36-141.12 41.35-53.77 29.23-59.15 33.93-7.06 5-10.73 1-21.87-26.88-16.14-40c0 0 20.17 1 21.48 1.36s-11.08-17.36-16.45-17.04-6.38 11.75-6.38 11.75-6.73 16.13-4.38 23.88-19.15 3.37-19.15 3.37-8.73 7.4-6 11.43 2.68 8.43 6.72 7.07 7.73-17.46 20.5-9.75 21.85 14.1 15.8 19.81-19.81 21.17-30.58 17.81-13.44-11.08-15.45-11.08 2 37-3 33.62-10.1-14.46-13.78-14.46 3.35 11.43-.32 10.76-7.41-12.1-13.77-12.78-22.19-1.69-35.29 8.05-18.82-.33-25.55-3.69-16.13 0-19.49 5.39-7.39-.33-8.06-2-58.8-35.62-58.8-35.62S372 702.4 367.93 702.4s-49.05-31.91-49.05-31.91 9.75-12.77 12.43-12.1 32.93 18.48 32.93 18.48 6.38-7.39 6.72-10.74-26.2-15.46-26.2-15.46-2.69-6-1-7.07 5.37-5 4.7-6.72S331 618.42 331 616.06s-5-10.09-6.73-11.44-16.13-2.36-16.46 3.69-5-15.11.67-18.82-15.12-12.43-19.5-8.74-7.72 14.46-4 16.79 15.12 19.83 17.14 20.17 7.73 2.38 9.75-.32 9.75-10.42 14.11 1 8.4 16.13-7.06 16.79-16.46-4.69-16.46-8.06-2.36 2.37-7.05 2.69-26.22-3.57-27.85-7.47-6.42-21.05-2.64-24.69 15-18.78 15-26 4.09-45.36-12.05-49.39-1.35 25.54 2 32.93 4.7 28.89-10.09 40.33c0 0-6.72 9.39-2 16.79s9.4 17.46 4 15.44-18.82-24.87-37.64-22.18-8.06 14.11-8.06 16.8-12.1 1.34-16.12-2.69-10.76-18.82-19.5-6.72c0 0 12.1 18.14-18.14 14.78 0 0-2.68-22.18-7.39-23.52s-3.35 22.18-2 24.17-2.69 5.39-6.05 5.39-14.11-12.09-14.11-12.09l-.66-10.08-9.41.67 2 11.42 10.09 12.09L118 652s-2.69-1.34-4-6.72-10.08-8.76-14.79-7.41-8.06-4.69-8.06-4.69-4.71-12.1-8.06-8.75-6-2.69-4-5.38 18.06-16.15 18.06-16.15.67-10.08-6.05-4S76 613.64 76 613.64l-8.06-7.07s10.76-12.41 11.76-12.41 2.68-5.38 2.68-5.38-5-5-8.4-1.35-9.08 12.77-9.08 12.77l-12.46-12.43-10.75 11.08 36 56.45s2.68 14.46-2.36 18.48-47.72 33.59-47.72 33.59 45.3 64.22 31.86 68.95z"/><path d="M463.17 728.43l51.91 42.33s15.12-13.1 16.13-11.08 11.6-20.66 8.07-23.19-8.07-1.52-14.62.5-8.56-1-13.11-2-6.82 4.55-10 2.51-21.28-15.11-21.28-15.11-20.16-2.52-23.19 0 6.09 6.04 6.09 6.04z"/><path d="M500 721.24l6.53-6.94s11.59-4.54 13.62 0 16.63 13.62 14.1 15.11-9.26 6.06-17 2S500 721.24 500 721.24zM89 712.3s14.11 15 17.47 27.07 32.25 36.26 34.28 37 11.42 3.35 15.12-2.36 22.18-22.17 22.18-22.17.33-22.86-6.05-27.22-18.83-12.27-18.83-12.27.35-4.87 2-6.56 5.72-5.37 5.72-5.37l8.39 6 11.09-.34v12.79s6 24.86 9.42 23.19 38.63-12.42 40-20.17S211 708.43 211 708.43s6.73-11.06 11.76-9.39c0 0-.17 6.88 3.7 7.89s17.3 9.58 17.8 10.92 9.25 1 13.45-5.53 9.58-9.25 1.17-11.93-2.68-5.7-.84-6.22 15.45 4.55 17.3 4.38 22-4.38 22-11.58-12.24-11.43-20.34-11.09l-14.11-11.76s-.66-16.27-11.26-17.3-8.57 2.37-14.46 2.18-15.78-2.68-16.13-3.85-9.91-1-11.42 3 4.36 9.25 4.71 9.76-3 8.89 3.36 15.8c0 0 5.37 2.85 5.54 5.4s-5.87 7-7.73 4.86-11.25-22.85-15.78-21.34-12.43 8.91-12.1 12.27-4.54 9.39-8.57 7.73l-8.7 7.37-9.4-6.36 15.45-15.81s7.9-19 12.78-18.33c0 0-21.68-2.84-30.58 1.88s-61.83 41.33-61.83 41.33S86 701.05 89 712.3z"/></svg>