<?xml version="1.0" encoding="utf-8"?><svg width="8000" height="7000" viewBox="0 0 8000 7000" xmlns="http://www.w3.org/2000/svg" xmlns:xlink="http://www.w3.org/1999/xlink"><view id="africa" viewBox="1000 0 1000 1000"/><svg viewBox="0 0 1000 1000" width="1000" height="1000" x="1000" xmlns="http://www.w3.org/2000/svg"><path d="M74.72 337.77a18.4 18.4 0 0 1 .4-6.14c-11.2-1.07-17.16-.27-28.74 5.18 3.62 5.06 7.88 10.24 12.14 15.19 3.89-6.68 7.16-8.82 15-9.66 1.04-.18 1.48-.18 1.2-4.57zm33 36.5a9.62 9.62 0 0 0-4.84-1.12c-6.31 0-13.56 4-19.35 10.59-.29.33-1 1.18-1.86 2.3.68 8.38 4.22 21.6 18.89 28.13 1 .44 1.76.83 2.6 1.29v-.11l10-18.06c4.26-7.65-1.16-20.29-5.46-23.02zm2.81-4.6c5 3.09 9.68 12.65 9.5 21.48 6.14-1 11.31 1.24 14.52 7 2.54 4.49.74 8.09-.34 10.22-.22.52-.62 1.24-.68 1.53a14.6 14.6 0 0 0 1.35.73c1.8.84 3.33 1.13 4.17.74a1.65 1.65 0 0 0 .79-.85 19.17 19.17 0 0 0 .39-2.65c1-12.2 8-14.85 10.91-15.47 0-.95-2.07-5.9-3.09-8.27-.51-1.23-1-2.47-1.4-3.42a12.6 12.6 0 0 1 2.25-11.77c.23-.27.5-.5.73-.73-3.83-13.33-9.23-28.07-11.59-29.76a16.32 16.32 0 0 0-3.78 2c-3.48 2.07-8.77 5.28-17.54 5.28h-.11c-5.29 0-8.56-1.12-10.24-3.37a5.79 5.79 0 0 1-1.13-3c-9.85 1.24-14.3-1.35-18.52-3.83a27.3 27.3 0 0 0-6.17-2.92c-.62.67-.68 2.13-.51 4.89.16 3.32.51 9.45-6 10.19s-8.22 1.85-11.42 7.76l-.46.89C70.46 365.73 78 374 80.47 379c6.75-7.15 14.79-11.37 22.28-11.37a16 16 0 0 1 7.76 2.04zM265 409.33c2.71-9.85 1.59-13.34-.16-18.57-.56-1.74-1.24-3.65-1.8-6-1.74-7-3.94-17-4.95-21.66-.51.06-1 .12-1.53.17-5.46.78-12.87 1.85-19.74.22-5.29-1.24-8.77-1.12-10.57.23-1.42 1.07-2.15 3.1-2.31 6.24-.17 3.44.78 8 1.69 12.32 1.62 7.88 3.31 16-.45 21.32-2.09 2.94-2.42 5.3-2.82 7.93a20.85 20.85 0 0 1-3.76 10.53c-2.77 3.82-2.15 5.23 2 12.88 1.36 2.53 3 5.57 4.84 9.34l1.41 2.58c9.28 3.1 17.22 2.31 32.12-7.47a64.47 64.47 0 0 1 9.12-5l-.74-1.24c-4.35-6.89-6.01-10.27-2.35-23.82zm-120 21.54c-3-.85-6.35-1.74-7.3-5-.91-3-.18-5.9.66-8.88h-.22a12.73 12.73 0 0 1-5.51-1.41 7.24 7.24 0 0 1-4.17-3.93c-.73-2.19.23-4.1 1-5.63 1-2 1.53-3.26.45-5.17-.89-1.57-3.6-6.31-10.74-4a16.4 16.4 0 0 1-1.24 3.14l-10 18v.06c11.36 6.75 15.46 14.13 22 22.34a33.87 33.87 0 0 0 19.35 11.75c-1.06-2.52 0-4.94.85-6.92a16.94 16.94 0 0 0 1.92-8.71c-.31-3.45-2.5-4.4-7.05-5.64zM214.25 419a15.32 15.32 0 0 0 2.8-8.11 20.09 20.09 0 0 1 3.78-10.34c2.36-3.33.95-10.3-.45-17.05-.06-.29-.11-.62-.17-.91-6.3-4.78-8.77-4.44-13.17-3.76-1.74.22-3.6.5-5.9.62-6.08 0-8.55-3.72-10.41-6.58-1.75-2.65-2.36-3.33-3.93-3.1h-.62a10.38 10.38 0 0 1-7.43-2.3c-1.46-1.08-2.08-1.59-5.29 0-8.44 4.1-10.12 4-16 3.31a3.38 3.38 0 0 0-.74-.06 4.32 4.32 0 0 0-3.48 1.69 7.46 7.46 0 0 0-1.36 6.53c.34.95.8 2 1.3 3.2 2.07 5 4.22 10 2.48 13.28a4.81 4.81 0 0 1-3.33 2.42c-3.77.73-6.08 4.51-6.64 10.63-.11 1.08-.27 2-.44 2.92 0 .12.05.17.05.29s-.11.27-.17.5a56.85 56.85 0 0 1-1.35 5.69c-.78 2.75-1.4 4.73-.84 6.47.33.45 2.36 1 3.6 1.35 4.16 1.13 10.4 2.87 10.92 10.46a21.35 21.35 0 0 1-2.42 11.3c-1.18 2.6-1.14 2.65-.4 3.22l3.15 1.85a29.64 29.64 0 0 0 14.17-5.4c15.25-10.63 35.44-7 47.43-2.86-1.29-2.54-2.48-4.78-3.43-6.59-4.25-7.67-6.5-11.91-1.71-18.67zM169 117.35c.35-2.87.79-6.8 1.08-9.39.84-8.39 13.94-11 25.54-13.4 4.5-.89 8.72-1.74 11.19-2.81 5.18-2.07 12.09-5.61 18.23-8.77 4.1-2.09 7.76-3.94 10.07-5 4.06-1.8 9.4-8 12.89-12.16.83-1 1.68-2 2.36-2.75 2.7-3.07 7.64-2.54 12.26-2.07 3.66.34 7.88.73 9.29-.78.95-1.08.62-2.36-1.07-6.37-1.64-3.81-3.65-8.59-2.53-14.46 1.35-6.63-.62-8.54-4.95-12.87-1.19-1.18-2.54-2.54-3.88-4.05l-2.32-2.26a28 28 0 0 1-6.35-1.57c-20.42-8.27-21.6-11-28.18-1.35s-14.85 19.3-25.32 22c-18.18 4.55-22.78 14.51-27 27.5s2 24.3-23.8 32.74c-15.46 5-21.51 8.87-25.59 13.47 12.32 1.12 33.07 2.92 41.45 3.19a35.19 35.19 0 0 1 6.63 1.16zm104.7-76.74c-.85 4.17.68 7.77 2.19 11.27 1.64 3.87 3.55 8.26.12 12.08-3.26 3.6-8.83 3-13.79 2.53-2.86-.27-6.85-.67-7.76.41-.67.72-1.47 1.68-2.3 2.63-4.05 4.73-9.68 11.25-14.85 13.57-2.26 1-5.8 2.81-9.79 4.82-6.25 3.16-13.28 6.76-18.62 9-2.93 1.24-7.44 2.13-12.16 3.08-8.27 1.7-20.81 4.22-21.26 8.67-.34 3.55-1.08 9.57-1.35 12.1a.67.67 0 0 0 .23.22 5.77 5.77 0 0 1 .89 3.27c8.83 7.82 67.52 59.58 81.4 69 9.74 6.58 23.4 19.63 34.38 30.1 6.13 5.85 11.48 11 13.9 12.72a25.41 25.41 0 0 1 4.84 5c3.25 4.06 5.84 7.26 17.77 4.95 16.08-3.15 24.31-8.65 34.66-15.7l3.54-2.36c10.81-7.2 42.86-27.17 62.28-36.9a22.69 22.69 0 0 1-3.83-6.19c-2-4.45-3.49-7.14-7.32-7.43-5.56-.33-11-4.32-14.9-11-3.1-5.24-5.29-12.5-3.26-16.88 2.58-5.46 9.95-30-.68-51-.11-.17 0-.4-.05-.62s-.23-.23-.23-.4S395.28 72 378.69 59c-5.17-4.05-7.59-7.82-7.49-11.53.23-5.18 5.07-8.44 9.73-11.54 3-2 6.14-4.11 7-6.14 1-2.3 1.18-6.06 1.41-10.06.35-6.14.85-13.28 4.45-18-6.55 2.27-13.36 5.2-21.79 3.9-17.89-2.71-32.64-4.28-50.8.16-9.06 2.2-35.32 14.46-56 15.19.68.68 1.42 1.53 2 2.09 4.71 4.44 8.37 8.1 6.45 17.54zm110.3-.39c-3.54 2.37-7.26 4.84-7.37 7.26-.05 1.8 1.8 4.28 5.4 7.09 14.89 11.71 19.38 31.43 20.62 39.16 1.92-.56 4.61-1.36 7.82-2.25 1.63-.46 2.42-4.57 3-7.82.89-4.72 2-10.14 6.41-11.42 5.4-1.58 8.38-7.1 8.32-15.53 0-.23-.06-1-.06-2-.5-.4-.95-.62-1.51-1.06-15.83-12.13-8.73-13.81-3.63-19.22s10.18-19.58-6-31.06A23 23 0 0 0 410 0c-2.59.85-5.34 1.57-7 2-6.86 1.24-7.76 7.88-8.27 17.83-.21 4.45-.5 8.67-1.8 11.87-1.41 3.51-5.24 6.05-8.93 8.52zm-108.66 334.9a36.38 36.38 0 0 1-3.1-7.64c-2.24-1.8-6-4.17-8.65-4.63 1.06 4.9 3.09 14 4.72 20.66a53.83 53.83 0 0 0 1.69 5.57c1.91 5.73 3.37 10.24.28 21.66-3.27 11.81-2 13.78 1.75 19.69l1 1.51.28.45c1.91-.67 3.82-1.34 5.79-1.91-2.53-6-1.29-13.39.12-21.27 1.18-6.64 2.42-13.49 1.51-19.63-.94-5.58-3.3-10.29-5.39-14.46zM103 184.13a2.6 2.6 0 0 1 1.41-2.13l14.12-7.82 6.81-31.57a2.71 2.71 0 0 1 2.65-2.13h38l3.6-15.88s.11-.1.11-.15 0-.23.06-.35c-.33-.68-1.63-2.07-7.53-2.3-9.46-.34-33.59-2.48-45.12-3.55-1.18 1.75-2.42 3.6-4 5.68-7.92 10.64-19.4 15.36-25.3 30.72S61.56 176.59 55.65 198c0 .29-.11.45-.16.74l46.13 4.9zM77.31 326.4a27.69 27.69 0 0 1 12.22 4.39c3.93 2.31 7.47 4.34 16.41 2.93.12-.35.18-.74.29-1.07a26.43 26.43 0 0 0 .9-3.66c.28-2.14-1.75-4.83-3.49-7.2-2.3-3.09-4.72-6.3-3.2-9.73 1.34-3-.34-16.49-10.8-24.2a75.25 75.25 0 0 1-11.59-10.51c-3.16-3.38-5.23-5.57-8.73-6.64-2.69-.79-5.34.27-8.94 1.74a40.65 40.65 0 0 1-13.05 3.49c-.89 5.51-1.3 10.24-9.06 16.76-3.93 3.33-5.17 8.17-4.78 13.57a31.62 31.62 0 0 0 9.56 1.86 15.74 15.74 0 0 0 2.42-.18 12.92 12.92 0 0 0 4.45-1.95c3.16-1.92 7.59-3.83 14.46-1.51l2 .66c7.82 2.59 17.55 5.8 18.34 12.89a6.16 6.16 0 0 1-1.33 4.96c-1.3 1.46-3.37 2.19-6.25 2.19a41.48 41.48 0 0 1-7.86-1l-.91-.17a35.13 35.13 0 0 1-5.29-1.47c-3-1-5.45-1.8-6.92-.5a13.4 13.4 0 0 1-9.51 3.38A40.87 40.87 0 0 1 41 325c-.74-.12-1.24-.23-1.86-.35.56 1.13 1.12 2.31 1.74 3.43.79 1.35 1.63 2.76 2.54 4.16l.21-.1c13.43-6.41 20.52-7.09 33.68-5.74zM421.39 77.47c-1.24.39-2.09 4.49-2.6 7.2-1 5-2 10.63-6.85 12L404 99c9.39 21.72 2.81 45.74-.5 52.72-.73 1.58-.12 6.52 3 11.82 2.92 5 6.91 8.09 10.57 8.32 7.2.45 9.91 6.3 11.87 10.52s2.59 5.84 5.07 5.69c5.67-.24 11.53 3.37 17.32 6.74 4.22 2.47 8.56 5 11.14 5 4.5 0 15-6.92 20.65-11.25a2.74 2.74 0 0 1 2.92-.29c.74.4 71.84 37.3 102.5 52.44V238a2.74 2.74 0 0 1 2.71-2.69h10.18l-1.63-25.44-7.33-135.21c-11.66-.56-20.66-.17-28.36-6.19-12.11-9.47-34.44.33-30.37 11.47s-5.07 25.71-24 11.54-18.58-5.07-26-8.44-3.39-16.2-23.29-20.93c-16.43-3.88-18.06 1-27-3.94-.37 10.12-4.65 17.17-12.06 19.3zM70.79 265.64c4.9 1.47 7.82 4.51 11.13 8.11a71.31 71.31 0 0 0 10.86 9.84 33.17 33.17 0 0 1 10.64 13.56c.39-.73.72-1.52 1.07-2.36 1.45-3.54 3.37-8.44 10.12-7.88a13.9 13.9 0 0 1 7.94 3c1.8 1.3 3.37 2.42 9.06 2.19l7.42-.27c3.88-.17 3.88-.17 6.07-.17h.06c2.81 0 35.21 1.35 44.11 1.68l2.13-7.93-3-2.47a2.74 2.74 0 0 1-.95-2.14l2.25-119a2.69 2.69 0 0 1 2.69-2.64h14.52c-14.06-12.15-27.12-23.63-33.14-29l-3 13.56a2.65 2.65 0 0 1-2.63 2.08h-38l-6.64 30.6a2.88 2.88 0 0 1-1.35 1.8l-13.89 7.71-1.58 20.81a2.65 2.65 0 0 1-1 1.86 2.84 2.84 0 0 1-1.74.61h-.29L54.2 204c-3 16.43 2.48 21.6 3.09 31.45.67 11-1.69 20.42-7.1 31.05a23.39 23.39 0 0 0-1.62 4 37.17 37.17 0 0 0 9.73-2.92c4.05-1.71 7.94-3.28 12.49-1.94zm-18.33 52.55c3.08-2.82 7.7-2.14 12.19-.62a38.57 38.57 0 0 0 4.63 1.3l.89.16a44.35 44.35 0 0 0 6.87.91 4.1 4.1 0 0 0 2.25-.39s.11-.18 0-.74c-.39-3.66-9.35-6.58-14.69-8.32l-2.08-.68c-4.72-1.58-7.08-.68-9.91 1a17.34 17.34 0 0 1-6.29 2.65 22.56 22.56 0 0 1-3.33.27 30.93 30.93 0 0 1-8.59-1.35 49.07 49.07 0 0 0 2 6.36c1.47.34 3.16.68 5.36 1 4.24.58 8.24.7 10.7-1.55zm598.33 623.72c-1.74 1-4.38.79-6.46.46-.12 0-.16-.06-.28-.06-.11.22-.23.56-.34.78-.9 2.14-2.48 5.74-7 6.36l-.74.06c-2 0-3.87-1-5.84-3.15-3.49-3.72-7.59-12-7.43-14.23.17-2.6 2.53-3.55 4.27-4.28 1.59-.68 3.27-1.35 4.28-2.92 5.29-8.11 10.69-9.51 14.35-9.85l.9-.06c6.08 0 14.74 6.13 15.35 9.91s-8.8 15.8-11.06 16.98zm36.12-36.63h-.78c-7.43 0-12.71-3.66-13.62-9.39-1-6.35 5-12.66 8.27-16l.73-.73c2.82-3 6.08-2.48 8.79-1.12.05-.18 0-.29.05-.51l.57-2.2c1.39-5.73 3.14-12.82 0-19.29s-5-15.13-5.75-19.29a36 36 0 0 1-14.4-2.09c-2.48-.84-4.22-1.36-6.3-1.18-1.64.23-1.85.56-2.47 1.58-1.47 2.25-3.21 4.21-9.06 4.44-3.33.11-4.16 1.52-5.75 4s-3.64 5.81-8.71 7.49c-3.37 1.13-5 4.11-6.7 7.32-2 3.66-4.22 7.88-9.39 8.65-3.54.57-5 3.39-6.64 7.38a12.13 12.13 0 0 1-2.59 4.61c-2.69 2.47-6.91 2.47-14.52 2.36-1.62 0-3.48-.06-5.5-.06-6.92 0-9-2.3-10.58-4.72-.62-.9-.62-.9-1.4-.9-2 0-2 0-3.56 2.7a88.13 88.13 0 0 1-5.28 8.32c-5.46 7.72-13.67 9.58-20 9.58a27.38 27.38 0 0 1-8.11-1.14 4 4 0 0 1-2.54-2.3c-.77-1.92.12-3.82 1.07-5.85a13.59 13.59 0 0 0 1.7-5.29c.1-2.92-2.26-6.3-5-8.32v40.84a2.74 2.74 0 0 1-.9 2 2.87 2.87 0 0 1-2.08.68c.12 0-2.08.17-6.46 3.48a25.64 25.64 0 0 1-18.57 4.45 14.58 14.58 0 0 1-10-6.87c-2-3.31-3.54-4.28-4-4-.91.12-2.65 2.25-3.95 7.49l-.72 2.81a63.08 63.08 0 0 1 6.24 16.53c1.8 9 14.4 15.31 13.51 23.41s-7.61 19.58 5.85 29.26c7.2 5.17 11.24 9.89 23 3.37s37.36-7.43 46.36-4.51 14.62-4.49 18.9-5.4 16.65 4.51 41.63-20.92 37.81-39.61 45.22-45.23c4.4-3.32 8.33-11.42 10.86-19a30.12 30.12 0 0 1-7.82-2 11.43 11.43 0 0 1-9.6 5.56zm272-570c-.62.11-1.18.34-1.8.46l-.39 1.45c-1.58 6.7-27.35 59.8-42.2 77.53-2.86 3.37-5.46 6.64-7.82 9.62-10 12.49-17.21 21.54-27.62 21.54h-.45c-7.37 0-15.87 5.64-22 9.74a66.76 66.76 0 0 1-7 4.33 16.06 16.06 0 0 1-2.81 1 24.67 24.67 0 0 1-10.18 15.53v42.32c0 12.15.85 13.27 6.91 18 6.64-9.1 12.61-17.1 16-21 10.34-11.94 72-59.64 80.78-90.92s26.32-55.57 25-68.18 6.87-23.43-6.41-21.41zM795.83 678.45c-5.57 0-9.11 1.8-12.54 3.55-2.92 1.47-6 3-9.74 3a17.42 17.42 0 0 1-8.94-2.42 10.2 10.2 0 0 0-5.4-1.63 22.92 22.92 0 0 0-6.19 1.3 42.93 42.93 0 0 1-1.8 4.27c-1.86 3.83-4 8.21-3.16 15.41a36.66 36.66 0 0 0 3.21 11.48 13.57 13.57 0 0 1 1.57 5.57c3.1 2 6.59 5.62 5.58 10.4a19.72 19.72 0 0 0 .23 5.92c.5 4.16 1.24 10.46-4.39 11.47-1.3.23-2.81 3.15-3.84 5.06-1.51 2.81-3.14 6-6.17 6a4.71 4.71 0 0 1-.91-.11c-3-.62-8.6-4.34-10.8-9.45a11.07 11.07 0 0 1 1-10.63c2.87-4.45 2.64-8.9 1.24-11.14a2.89 2.89 0 0 0-3-1.57c-5.8.62-9-2.48-11.26-4.73-.51-.5-1-.85-1.4-1.24-5.4 1.57-25.49 7.42-33.48 10.52-3.55 1.41-4.22 2-4.32 2.26a16.06 16.06 0 0 1 1 1.84 34 34 0 0 1 1.91 4.74c.06.16-.06.27-.06.45s.18.21.18.39v4.56l8.26-.52a3 3 0 0 1 1.92.62c3 2.54 9.06 6.58 12.6 6.81 3.37.23 6.58 2.31 8.89 5.74a16.45 16.45 0 0 1 2 14.4c-3.95 11.32-5.24 18.29-3.89 20.82a13.84 13.84 0 0 1 1.12 10.52 9.41 9.41 0 0 1-4.43 5.63c-2.32 1.18-3.6 3.25-4 6.35-.39 3.32-3 6.93-8.6 12.15a103.68 103.68 0 0 0-7.93 8.44c.56 3.27 2.36 12.6 5.46 19 4 8.22 1.9 16.72.39 22.95l-.51 2.15c-.67 2.81-.11 5.23.45 7.82a25.12 25.12 0 0 1 .79 7c.39.95 4.44 2.3 9.06 2.81a33.2 33.2 0 0 0 1.12-7.65c-.23-7 2.81-12.37 27.22-21.6 11.94-4.51 9.68-13.51 10.59-25s-11.71-36.68-3.39-43.66 38-32.41 48-35.78 35.54-14.63 35.77-31.51c.23-16.3 1.24-56.31-1.74-64.85-5.95 5.01-17.43 12.09-27.67 12.09zm-105.71 206c-3.48-2.57-4.22-2.13-4.72-1.57l-.73.78c-2.19 2.32-7.38 7.72-6.82 11.48.74 4.84 7.61 4.9 8.9 4.78a5.74 5.74 0 0 0 5.45-3.7 5 5 0 0 1-.78-3 20.92 20.92 0 0 0-.68-5.46 31.11 31.11 0 0 1-.62-3.35zm141-365.61v-43.91a2.65 2.65 0 0 1 1.52-2.42 18.45 18.45 0 0 0 8.49-10.92 29 29 0 0 1-8-2.59l-2.59-1.12c-2.86-1.13-8.83 5.07-11.75 8.09-2.65 2.71-4 4.06-5.46 4.51-2 .67-3.66-.06-5.07-.62a17.75 17.75 0 0 0-8.67-1.47c-6.85.17-15.06-3.7-22.72-7.59-2.93-1.45-5.79-2.92-8.6-4.1-7.61-3.22-14.13-2.81-19.92-2.48-1.35.06-2.65.17-4 .17s-2.36.95-3.64 2.81a64.84 64.84 0 0 0 3.93 6.93c4.4 7 9.85 15.68 9 23.85-.67 6.35-3.93 11.81-7.14 17.15a56.12 56.12 0 0 0-5.34 10.92c4.27 1.46 7.82 4 7.93 7.43.05 1.23-.4 4.27-5.57 5.56a9.46 9.46 0 0 0-3.66 1.74l48.43 28.14a2.65 2.65 0 0 1 1.36 2.3v5.62c3.31 2.48 13.61 10 21.72 16 .11-.23.21-.45.33-.68 2.2-3.49 15.93-23.4 28.53-41-7.33-5.7-9.13-7.96-9.13-22.36zM635.73 927.85a13.77 13.77 0 0 1-6.73 4.95c-.23.11-.5.22-.73.34 1.12 3 5.69 10.85 7.7 11 1.42-.17 1.92-1.12 2.77-3.15.62-1.52 1.34-3.22 3.14-3.94a6.38 6.38 0 0 1 1.47-.28 17.14 17.14 0 0 1 2 .23 11.62 11.62 0 0 0 2.86.15c1.63-1.12 7.09-8.82 8.1-11.42-1.3-1.62-6.35-5.34-9.84-5.34-3.15.37-6.81 1.44-10.74 7.46zM445.86 756.32c6.13 0 8.32 2.58 9.95 4.56 1.13 1.35 1.7 2 3.77 2h55.81a21.45 21.45 0 0 1 12.09 3.82c1.42.9 2.54 1.58 3.43 1.58 8.73 0 32-.91 45.3-4.57-1.13-1.18-2.31-2.42-3.49-3.6-6.75-6.85-8.94-9.27-8.94-11.58V705a2.72 2.72 0 0 1 2.69-2.69h14.63c4.16 0 11.19-1.3 11.19-9.79V678.8c-2.81.22-6.13.73-9.62 1.3-2.24.33-4.61.72-7 1.06-2.65.39-5.63.51-7.2-1.52s-.67-4.56.16-6.8a12.11 12.11 0 0 0 1.14-5c-.29-2.6-2-4.11-3.72-5.58s-3.21-2.81-3.21-5v-31c-2.92 0-7.76-.1-12-.1-1.74 0-5.34 0-5.9-3.72-.24 0-1-.23-2.6-.45s-4-.28-5.17.67-1.47 2.94-1.68 5.24c-.29 2.58-2.77 11-24.43 10.07a17 17 0 0 1-12.43-6.2c-6.29-7.2-7.64-18.56-7.43-20.86s0-3.61-.66-4.28a2.93 2.93 0 0 0-2.09-.62h-55.82c5.13 9.29 9.57 18.39 11.71 25 5.56 17.55-4.06 14.86 7.25 39.16s-20.93 31.22-19.75 52c.91 16-11.36 20.64-9.16 36.51h.56a80.74 80.74 0 0 0 11.48-1.24 57.33 57.33 0 0 1 11.14-1.12zM380.54 430c-1.41.12-3.38 1.41-5.12 2.6-2.58 1.74-5 3.37-7.59 2.53a5.21 5.21 0 0 1-3.22-3.54c-1.06-3-4.21-5.85-6.46-5.91-1.24 0-2.31 1.13-3.16 3.37-3.93 10.69-11.92 19.36-20.46 22.61 3.08 4.06 6.85 6.7 12.7 5.63 16-2.8 25.21-6 30.55-3.54.06-.91.11-1.86.17-2.71.39-6.91.91-13.61 6.37-19.51a5 5 0 0 0-3.78-1.53zm-30.6-2.75c2.19-6 6.08-6.91 8.21-6.91h.06c5.07 0 9.9 4.94 11.53 9.5a20.35 20.35 0 0 0 2.7-1.68c2.3-1.58 4.89-3.33 7.76-3.5a9.59 9.59 0 0 1 8.16 3.5c3.82-2.71 9-5.24 16.38-7.43-.74-1.74-1.47-3.54-2.26-5.07-3.72-7.88-6.92-14.62-3.82-26.33a16 16 0 0 0-1.41-12c-5.07.35-9.89-2.13-14.17-4.49-3.78-2.09-7.2-4.06-10.64-4-6.8.18-8.95 2.26-14.06 7.2l-2 2c-4.22 4-10.69 5.73-17.33 5.73a39 39 0 0 1-16.43-3.6 20.7 20.7 0 0 1-7.92-7.14c-14.34 20.26-13.73 33.08-12.83 47.77.11 2.24.29 4.55.39 6.91v.17a97 97 0 0 1 10.91.85c9.62 1.4 13.73 10.75 18.29 18.45l.84-.23c7.11-2.47 14.15-10.23 17.64-19.68zm69.76 143.13a8.44 8.44 0 0 0 1.46.18c.23-.9-1.07-3.6-1.75-5.06-1.57-3.33-3.31-7-2-10.47a7.38 7.38 0 0 1 4.4-4.16 42.64 42.64 0 0 0 7.64-4.16c2.09-1.41 3.89-2.6 6.76-2.6 3.37 0 4.84 3 5.79 5 1.29 2.71 1.58 2.59 2.42 2.42a15.32 15.32 0 0 1 7.54.11 5.24 5.24 0 0 0 1.24.22s.28-.39.74-1.34c2.52-5.34 9.39-19.86 3.08-22.9-4.94-2.42-7.42-5.18-7.53-8.32s2.08-6.2 6.81-9.06c1.57-1 1.51-1.92 1.24-2.65a5.43 5.43 0 0 0-5.25-3.16c-.89.12-1.8.35-2.63.52-2.77.62-5.63 1.24-7.76-.79-1.86-1.74-2.32-4.67-1.47-10.07a14.37 14.37 0 0 1 .56-1.64H419.7v13.84A2.74 2.74 0 0 1 417 509h-26.62c-1.69 8.55-3.76 18.79-7.65 21.77-6.23 4.73 17.73 27.34 26 37.81.89 1.12 2 2.64 3.21 4.32 2.58-3.18 5.9-2.79 7.76-2.52zM311.75 367.69a68 68 0 0 1-4.18-16 8.87 8.87 0 0 1 0-1.63c-4.67-3.83-7.36-4.45-8.77-4.22s-2.75 1.63-4.05 4.11c-2.48 4.66-6 6.69-9.85 8.88a42 42 0 0 0-6.7 4.45 2.24 2.24 0 0 0-.95 2.31c.18 1.8 1.41 4.28 2.87 7.14 2.2 4.28 4.84 9.62 5.8 16.15 1 7-.28 14.28-1.58 21.37-1.3 7.37-2.54 14.3-.5 18.5l.44.62a73.7 73.7 0 0 1 12.49-1.37c-.1-2.48-.22-4.67-.39-6.82-.89-15.68-1.69-30.42 15.37-53.49zM506 915.08a9.21 9.21 0 0 0 6.41 4.33 19.46 19.46 0 0 0 14.23-3.41 24.59 24.59 0 0 1 7.37-4.16v-82.5a2.74 2.74 0 0 1 2.71-2.71h11.13v-46.46a2.77 2.77 0 0 1 2.3-2.7l31.73-4.38a2.92 2.92 0 0 1 2 .56l3.83 2.92c2.75-2.47 9-6.13 19.24-6.19-1.29-1.57-2.59-2.63-3.66-2.69a17.2 17.2 0 0 1-5.74-1.3c-3.31-1.18-6.76-2.36-15.58 1.07-15.36 6.07-50.8 6.13-51.15 6.13-2.41 0-4.37-1.18-6.23-2.36-2.42-1.47-5-3-9.29-3h-55.78a9.17 9.17 0 0 1-7.93-3.94c-1.28-1.57-2.13-2.58-5.79-2.58a50.51 50.51 0 0 0-10.24 1 79.9 79.9 0 0 1-11.75 1.29 66.35 66.35 0 0 0 5.19 12.23c17.21 31.9 31.05 46.59 33.76 59.25s-3 15 2.69 26.32 2.21 25.32 6.93 33.59 6.47 10.18 8.95 12.72a64.75 64.75 0 0 1 7.53 9.62c2.14-6.82 5.24-9 7.66-9.41 3.4-.32 6.61 1.86 9.48 6.76zM443.88 584a6.77 6.77 0 0 1 5.29.95 7.49 7.49 0 0 1 6.87-2.81 7.22 7.22 0 0 1 5.51 5.34 7.4 7.4 0 0 0 2.93.29 8.78 8.78 0 0 0 6.64-4.33c4.1-7.26 8.32-9.74 12-11.31.5-1.24.68-5.12.79-8 .27-7.14.62-15.25 4.61-19 7.93-7.49 19.74-21.6 19.74-29.93v-2.82c-.05-9.39-.17-19.13 7.32-29 1.86-2.42 2.59-6.7 2.92-11a53.82 53.82 0 0 1-6.69-.39c-5.91-.62-13.34-1.3-17.72 1.57-4.56 3-5.18 7.26-5.86 11.75-.56 4.12-1.24 8.78-5.73 11-3.6 1.8-9.85-.68-17.67-4.1a39.57 39.57 0 0 0-4.67-1.86l-1.51-.29c-2.48-.5-7.71-1.57-10.59.46a6.2 6.2 0 0 0-2.3 4.32c-.68 4.39-.12 5.36-.12 5.4.24 0 1.81-.39 2.83-.62a28.42 28.42 0 0 1 3-.56 10.7 10.7 0 0 1 11.07 6.7c1.24 3.54-.11 7-3.54 9.06-3.16 1.91-4.28 3.42-4.22 4.16s1.24 2.14 4.51 3.77c11 5.4 2.8 22.9-.35 29.48-2.59 5.52-5.34 5.29-8.27 4.73a10.07 10.07 0 0 0-5.12-.12c-5.29 1.3-7.36-3-8.49-5.28a7.68 7.68 0 0 0-1.13-2c-.95.06-1.57.45-3.49 1.75a43 43 0 0 1-8.54 4.66 2.78 2.78 0 0 0-1.47 1.14c-.5 1.24.79 4 1.86 6.18 1.45 3.15 3 6.42 1.74 9.29-1.8 4.16-5.51 3.54-7.31 3.21-2-.35-2.37-.35-3.1.72l-.62 1c2.2 3.26 4.57 6.86 7.1 10.86 3.82-4 10.34-7.72 15.74-7.31a8.91 8.91 0 0 1 6.04 2.94zm-6.41 2.42c-3.77-.45-9 2.81-11.86 6l-.57.68c1.52 2.47 3 5 4.44 7.53h3.72c-.74-4.25-1.52-10.49 4.27-14.26zm217.95-379.34c25-1.35 52.88-.9 60.3 0 3.15.23 10-5.45 16.37-11.19 3.54-3.15 7.53-6.54 11.59-9.56-.28-.35-.56-.58-.85-.91-10.35-12.15-10.8-25.65-31.05-54s6.2 2.24 8.56-17.33S716 82 710.55 77s-15.2 7.09-22.61 2.37-17.94-7.13-28.36-1.73-20.25 6.74-44.22.33a95 95 0 0 0-17.44-2.92l7 132.09c7.56.33 30.69 1.01 50.5-.06zM445 486c4.78-3.31 11.47-1.91 14.74-1.29.5.11.89.17 1.18.23 1.18.17 2.8.85 6.13 2.3 3 1.36 11.19 4.9 13.11 4.22 1.86-.95 2.24-3.15 2.81-6.91.17-1.08.34-2.21.56-3.39-8.38-6.07-21-17.83-22.61-34.93-1.24-13.5 3.6-24.3 12.93-30.44a2.45 2.45 0 0 1-.45-1.35c.29-4.67-5.46-10.34-10.57-15.41-5.28-5.28-9.91-9.85-9.68-14.57.34-7.65 10.57-9.39 16.44-9.78a132.91 132.91 0 0 1-3.78-13.34 45.25 45.25 0 0 1-8 6.53 41.73 41.73 0 0 0-6.81 5.4c-2 2.13-3.37 7-4.73 11.7-2 7.21-4.16 14.74-9.62 17.55-4 2.08-8.44 11-11.63 17.55-2.93 6-4.57 9.23-6.47 10.57-3.83 2.83-6.75-.89-8-2.46-1.8-2.32-2.48-2.82-3.66-2.42-22.51 6.52-23 14.62-23.58 25.77-.05 1.39-.15 2.86-.27 4.32v2.7c2.42 3 4.44 6.35 9.39 9.39 4.55 2.77 4.84 11.6 3.77 19.07h47.88c.31-.39.48-.78.92-1.01zM295.76 341.25a7.42 7.42 0 0 1 2.09-.68c3.09-.62 6.52.52 10.57 3.33a32.27 32.27 0 0 1 5.34-10.53 31.14 31.14 0 0 1 21.89-12.31c13.79-1.3 18.34 5.79 21.09 10 .73 1.12 1.75 2.71 2.32 2.82 1.06.16 1.85-.17 3.75-1.41 2.6-1.63 6.08-3.93 12.33-3.66a15 15 0 0 1 9.57 3.27c2.07 1.51 4.16 2.92 10.74 3.2a41.71 41.71 0 0 0 5.28-2.64c5.52-3 11.83-6.48 17.62-4.62a20.75 20.75 0 0 1 6.65 3.78c2.19 1.69 3.42 2.65 7 2.09 4.56-.73 12.33-4.95 17.32-7.93a8.14 8.14 0 0 1-3.19-4.84c-.68-3.37 1.23-6.87 4.83-11.76 2.76-3.77 5.79-7.15 8.72-10.47 5.69-6.35 11.09-12.37 12.77-19.57 1-4.39 1.13-11.42 1.24-18.29.22-12.21.39-23.67 4.94-27.95.17-.4-.89-1.53-1.63-2.36-3.71-3.95-10.24-11.09-8.38-26.79a17.31 17.31 0 0 1-6 1.41c-4.05 0-8.77-2.81-13.84-5.8-4.72-2.81-10.13-6-14-6-18.21 8.44-54.51 31.07-66 38.77l-3.49 2.37c-10.45 7-19.46 13.16-36.62 16.47l-1.13.17a96.52 96.52 0 0 0 .51 12.1c.91 11.09 1.8 22.56-3 28.63-4.55 5.75-14 7.77-23.17 9.68-5.35 1.12-10.42 2.19-13.85 3.89-6.19 3-12 1.9-17.61.83l-1.86-.33c-1.74 5.12 2.54 10.42 8 16.21 3.42 3.65 5.69 6.07 4.89 8.82-.44 1.63-.62 2.65-.39 3 .05.12.62.85 3.76 1.24l2.26.29c4.69.46 7.38 1.25 8.68 5.57zm277.41 334.68a10.91 10.91 0 0 0 1.68-.17c2.36-.34 4.73-.68 6.93-1.06a93.64 93.64 0 0 1 13.11-1.47h.1a19.2 19.2 0 0 1 4.17.39c2.25.57 4.38 2 6.86 3.65 3.66 2.48 8.26 5.52 14.75 6.76 7.14 1.35 10.06.06 12.64-1.07a12.82 12.82 0 0 1 4.06-1.29c3.2-.51 5 2.3 6.47 4.5 1.86 2.81 3.83 5.74 8.44 6.12 6.64.57 8.94 6 10.45 9.62 1.7 4.07 2 4 3.21 3.5a10.36 10.36 0 0 1 6.87-.23 44.2 44.2 0 0 0-.11-8.16c-.06-1.13-.17-2.13-.23-3.14-.17.06-.28.11-.45.16-3.09 1.24-8.21 3.27-12-.56-4.51-4.5-3.83-12.49-3.37-18.34.1-1.47.22-2.75.22-3.83 0-4.49 0-13.84-2.54-17.54-.72-1-1.63-3.27.06-6.54 2.76-5.23 12.33-12.25 26.17-14.29-.57-3.42-2.42-5.55-5.13-8.38a38.57 38.57 0 0 1-7.42-10c-5.51-11-5.51-24.08-3.66-41.52.84-7.93-.34-9.85-1.23-11.42-.12-.17-.18-.39-.29-.56a.06.06 0 0 0-.06-.06.07.07 0 0 1 0-.11c-1.24-2.25-1.8-4.55-.27-10.46 2.24-8.88 5.51-11 8.44-12.33a2.28 2.28 0 0 0 .73-.38 63.52 63.52 0 0 0 .66-6.76 124.5 124.5 0 0 1 2.32-18.33c1.74-8.27 8.21-14.19 13.38-19 2.42-2.24 4.72-4.38 5.52-5.84.56-1.13-.12-2.37-1.86-5.12-1.63-2.59-3.72-6.07-4-10.52-3.83-.62-6.42-4.38-8.55-7.93-1.52-2.47-3.1-5.07-5-6.25-1.63-1.06-6.64-.44-10.74 0-7.09.84-14.46 1.69-17.27-3.09-2.25-3.72-9.39-3.78-13.22-3.72h-2.31a19.85 19.85 0 0 1-6.4-1.91c-2.94-1.18-6.87-2.75-7.94-1.46-2.92 3.6-5.13 3.93-8.38 4a26.94 26.94 0 0 0-5 .51 12.5 12.5 0 0 0-5.35 2.76c-2.47 1.86-5.45 4.16-10.74 2.36-4.28-1.52-5.75-.17-9.23 3.1L576 462.1c-3.43 3-5.46 2.75-8.78 2a40.27 40.27 0 0 0-10.6-1.1c-9.16 0-14.11-5.19-17.77-9-1.74-1.85-3.43-3.55-4.67-3.55-4.39 0-10.12 7-10.12 11.15v1.51c0 1.47 0 3.27-.06 5.07a3.57 3.57 0 0 1 0 .8c-.17 6.06-1 13.26-4.22 17.54-6.37 8.38-6.31 16.43-6.19 25.7v2.88c0 13.56-20.6 33-21.43 33.86-2.42 2.25-2.71 9.8-2.93 15.31-.28 6.74-.46 11.19-3.6 12.55s-6.36 3.09-9.85 9.21a14.24 14.24 0 0 1-13.67 7.05c-3-.35-5.17-1.92-5.78-4.17a2 2 0 0 0-1.3-1.52c-.68-.18-1.47.44-2.2 1.52s-1.86 2.52-3.66 2.52a4.43 4.43 0 0 1-2.87-1.68c-.27-.39-.73-1-3.87.17-5.07 1.8-4.78 5.11-3.89 10.36 0 .16.06.27.06.39h49.73a7.86 7.86 0 0 1 6.07 2.33c2.31 2.47 2.25 6 2 8.44-.11 1.62 1.19 11.24 6.3 16.93a11.85 11.85 0 0 0 8.5 4.17c13.27.67 18.5-2.81 18.79-5.23.27-2.59.68-6.48 3.72-8.9 2.18-1.75 5.17-2.36 9.21-1.8 3.66.46 6.31 1.35 7.09 4.12h.73c6.58 0 14.75.15 14.75.15a2.74 2.74 0 0 1 2.64 2.71v33.61c.11-.12.79.5 1.35.95 2 1.74 5 4.39 5.57 9.06.33 2.8-.67 5.45-1.47 7.54-.14.33-.24.78-.41 1.18zM393.32 497.37a26.88 26.88 0 0 0-1.86 6.07h22.78v-11.13h-19.12a23 23 0 0 1-1.8 5.06zM110.73 339.12c.17.23 1.18 1.24 6 1.24h.1c7.26 0 11.42-2.48 14.75-4.51 2.58-1.57 5-3 7.88-2.48 4 .74 9.1 11.6 15.08 32.13a7.44 7.44 0 0 1 3-.17c5.61.73 6.23.79 13.55-2.75 5.67-2.77 8.38-1.35 10.92.5a6.35 6.35 0 0 0 2.07 1.13 123.64 123.64 0 0 1 3.15-15.86c1.47-5.24 4.9-7.37 7.94-9.23 2.87-1.74 5.57-3.43 7.76-7.82 3-6.08 5.52-6.87 9-7.32 2.13-.27 4.55-.62 9-4.61a85.51 85.51 0 0 1 35.83-18.85c5.24-1.18 10-.27 14.57.56 5.17 1 9.62 1.86 14.23-.38 4.06-2 9.41-3.1 15.08-4.28 7.88-1.69 16.76-3.55 20.09-7.76 3.49-4.4 2.58-15.7 1.8-24.82a117.33 117.33 0 0 1-.46-11.92c-.5 0-1.06.11-1.57.11-8.83 0-12.1-4.05-15.08-7.7a21.21 21.21 0 0 0-3.81-4c-2.65-2-7.88-6.87-14.41-13.18-10.24-9.78-24.25-23.17-33.64-29.52-6.81-4.63-23.57-18.68-40.28-33h-18.16l-2.19 115 3.31 2.75a2.67 2.67 0 0 1 .85 2.76l-3.15 11.7a2.69 2.69 0 0 1-2.71 2c-14.85-.62-43.59-1.8-46-1.8-2.13 0-2.13 0-5.91.17l-7.49.27c-7 .23-9.67-1.24-12.42-3.19a9.11 9.11 0 0 0-5.23-2c-2.36-.18-3.1.67-4.67 4.49a19.11 19.11 0 0 1-4 6.59c1 4.56.91 8.6-.12 10.91-.1.67 1.59 3 2.59 4.33 2.25 3 5.13 6.87 4.51 11.19a29.67 29.67 0 0 1-1 4.39c-.65 1.89-1.27 4.19-.76 4.93zM238.1 358.3c5.9 1.36 12.48.39 17.78-.34a38.94 38.94 0 0 1 7.42-.67c3.48.16 7.14 2.31 9.79 4a7.69 7.69 0 0 1 1.69-2.25 46 46 0 0 1 7.49-5c3.37-1.91 6-3.43 7.7-6.69a19.71 19.71 0 0 1 1.07-1.75c-.29-4-.57-4.27-4.79-4.72l-2.3-.29c-3.89-.5-6.31-1.68-7.6-3.66-1.52-2.36-.9-5.22-.39-7a36 36 0 0 0-3.49-4.1c-4.51-4.78-11.59-12.37-9.56-20.6a21.33 21.33 0 0 0-5 .35 80.49 80.49 0 0 0-33.47 17.6c-5.69 5.07-9.23 5.57-11.87 5.9-2.09.29-2.87.41-4.84 4.4-2.86 5.74-6.7 8.1-9.79 10-2.81 1.76-4.67 2.89-5.58 6.08a121.4 121.4 0 0 0-2.92 14.81c2.88.83 4.51 3.37 5.81 5.28 1.8 2.75 2.8 4.28 5.73 4.11a41.47 41.47 0 0 0 5.28-.51c4.4-.67 7.71-.9 12.6 1.8a31.6 31.6 0 0 1-.27-5.4c.22-4.84 1.69-8.21 4.44-10.29 3.26-2.3 7.97-2.69 15.07-1.06zm477-145.87c-7.26-.9-34.6-1.3-59.41 0-8.09.45-16.71.57-24.64.57-11.31 0-21-.29-25.71-.45l1.47 22.78h47.42a2.74 2.74 0 0 1 2.7 2.7v29.71h17.55a2.75 2.75 0 0 1 2.6 1.85l6.29 18.9A2.63 2.63 0 0 1 683 291c-.17.29-4.45 6.37-.29 10.47a23.31 23.31 0 0 0 2.93 2.48c4.27 3.14 4 4.72 1.85 17-2.24 13.27-6 38-7 45.12a22.09 22.09 0 0 1 2.86 1.86c2 1.41 3.54 2.53 6 2.53 5.91 0 11.15-4.95 16-15.14 1.84-3.89 1.39-7.76 1-11.24-.5-4.57-1.23-10.81 6.8-12.27 4.84-.9 8-.45 10.3 1.41 3.38 2.69 3.89 7.76 4.16 14.61.4 8.85 2.26 12.84 9.74 18.86a14.65 14.65 0 0 1 3.09-4.11c1.69-1.68 3-3 3.37-7.2.68-8.16 5.63-13.78 11.37-20.31 1.64-1.85 3.38-3.83 5.07-6 4.33-5.4 4-14.3 3.65-23.8a104.9 104.9 0 0 1 .28-16.26c1.8-14.45 15.08-25 22.95-30.15-1.12-1.08-2.3-2.14-3.65-3.32-9.45-8.1-13.5-4.5-17.55-30.61-3.44-22.16-10.13-26.55-18.46-34.76-4 3-7.92 6.3-11.69 9.62-8.36 7.52-14.72 13.26-20.68 12.64zm-168 677.79c4 .95 14.81 1.63 20.77-6.76 2.52-3.6 3.93-6.07 5-7.87 2.2-3.89 3.33-5.46 8.22-5.46a6.3 6.3 0 0 1 5.91 3.37c.78 1.24 1.45 2.26 6 2.26 2 0 3.87 0 5.56.06 5.4.1 9.67.1 10.75-.91a17.6 17.6 0 0 0 1.24-2.65c1.57-3.82 3.93-9.62 10.8-10.69 2.41-.39 3.6-2.36 5.45-5.84s4.33-8.11 9.79-9.9c3.21-1.08 4.45-3 5.79-5.24 1.76-2.81 4-6.35 10.14-6.58 3.49-.12 4-.84 4.72-2a11.07 11.07 0 0 1 2-2.36 33.93 33.93 0 0 0-7.2-4.38c-4.55-2.26-9.28-4.56-11.48-10.23a11.05 11.05 0 0 1 .35-9.35 1.33 1.33 0 0 1 .21-.45 26.56 26.56 0 0 0-5.28-2c-11.42-3.48-15.08-10.63-17.44-15.35a15.55 15.55 0 0 0-2-3.43 43.94 43.94 0 0 1-3.89-5.9c-.44-.8-1.06-1.75-1.68-2.77a9.6 9.6 0 0 0-1.36-.11c-14-.84-19 5.8-19.24 6.07a2.62 2.62 0 0 1-1.8 1.07 2.58 2.58 0 0 1-2-.5l-4.84-3.71-28.3 3.94v46.8a2.73 2.73 0 0 1-2.69 2.65h-11.13v34.89c5.28 2.3 10.63 8.67 10.35 14.86a18.46 18.46 0 0 1-2.26 7.36 6.53 6.53 0 0 1-.45 1.11zm222.34-600.5a99.18 99.18 0 0 0-.23 15.37c.34 10 .73 20.42-4.84 27.33-1.74 2.19-3.54 4.22-5.23 6.14-5.28 6-9.45 10.8-10 17.21a15.21 15.21 0 0 1-4.84 10.53 8.51 8.51 0 0 0-3 5.22 90.27 90.27 0 0 0-.73 9.23c-.35 8.43-.68 15.75-4.67 18a16.94 16.94 0 0 1-6.08 1.84c-2.2.35-2.86.56-3.26 1.24-1.19 2.26-1.13 3.33-1 3.54s.95.62 3.25.62c6.81 0 11.48 6.58 15.2 12a28.81 28.81 0 0 0 3.88 5c2.08 1.62 3.26 4.33 4.5 7.2 1.74 4.16 3.15 6.92 5.74 7.08a7.87 7.87 0 0 1 6.41 3.33c1.51 2.25 1.69 5.46.74 9.45a36.15 36.15 0 0 1 5.11 1.68c2.92 1.24 5.9 2.77 8.94 4.28 6.87 3.43 13.9 7 19.65 7h.5c6-.16 9 1 11 1.86.74.34 1.18.52 1.35.46.35-.23 2-1.92 3.22-3.16 4.89-5 11.69-11.81 17.71-9.29l2.71 1.19c4.72 2.14 7.31 3.26 11.81 1.08a70.58 70.58 0 0 0 6.41-4c6.75-4.49 16-10.63 25-10.63h.45c7.76 0 14-7.76 23.4-19.51 2.42-3 5.06-6.31 7.94-9.74a118.36 118.36 0 0 0 8.59-12.15c-4.94-.23-13.66-1.41-28.8-5.29-22.55-5.74-26.54-11.76-30.37-17.67a38.2 38.2 0 0 0-3.49-4.72c-5.57-5.91-6.08-10.3-4.33-14.29L840 360.33a2.75 2.75 0 0 1-3.31-1.85 28.87 28.87 0 0 1 0-13.57c1.57-6.18 6.64-11.42 15.29-16.2a189.49 189.49 0 0 0-14.4-12.37c-10.36-8.56-35.1-14.41-38.25-31-2.13-11.32-4.34-17.23-8.44-22.4-10.08 6.24-20.1 16.06-21.44 26.78zm72.28 56.6a23.49 23.49 0 0 0-.5 8.09l15.52-4.16c-1-2.3-1.06-4.55.62-6.46 2.65-3 1.24-6.92-1.91-11-7.91 4.3-12.45 8.63-13.72 13.53zm18.51 21.43a39.89 39.89 0 0 1 4.12 5.46c3.42 5.23 6.64 10.18 27.22 15.36 21.21 5.35 28.68 5.29 30.83 5.06 12-20 25.26-47.25 28.46-55.75-9 4.22-16.92 11.48-30.82 11.13-17.79-.44-27.68 13.74-39.84 14.19-6.91.21-15.19-3.72-20-8.5-4.34 5.07-5.46 7.2.04 13.05zM713.41 705.07c3-2.19 6.58-10.69 7.2-17.44a4.5 4.5 0 0 0-1.45-4.28 8.42 8.42 0 0 1-2.38-7.93 6.31 6.31 0 0 1 4.06-4.94c1.3-.62 3.37-1.75 1.4-15.37a18.37 18.37 0 0 1-3.37-1.24c-2-1-3.87-1.9-5.69-2.81-5.5-2.81-10.28-5.23-14.17-5.67a9.72 9.72 0 0 1-3.72-1.3.93.93 0 0 1-.38-.23 16.42 16.42 0 0 1-4-3.87c-.74-1-1.7-2.15-2.21-2.15-13 0-23.62 5.29-28 10.24-1.47 1.63-1.69 2.65-1.63 2.87 3.14 4.56 3.43 12.94 3.43 20.48 0 1.18-.12 2.65-.23 4.27-.39 4.78-.89 11.37 1.8 14.07 1.18 1.18 3.44.45 6.19-.67 2.25-.91 4.34-1.75 6.14-.46A3.83 3.83 0 0 1 678 692c0 1.35.11 3 .23 4.72.27 4.45.62 8.62-.41 11.25-1.45 3.83-4.66 2.87-5.9 2.59a5.68 5.68 0 0 0-4 0 7.73 7.73 0 0 1-2.81.51c-4.28 0-6.08-4.28-7.26-7-1.58-3.77-2.82-6.08-6-6.37-7.26-.61-10.41-5.4-12.5-8.54a12.15 12.15 0 0 0-1.63-2.2c-.33.17-1.12.51-2.13 1-3 1.34-7.08 3.14-15.93 1.45-7.53-1.45-12.82-5-16.7-7.59a20.9 20.9 0 0 0-5.17-2.92h-.18v13.61c0 11.19-8.55 15.19-16.59 15.19h-11.86v40.8c.41.72 4.45 4.84 7.38 7.82 1.86 1.86 3.71 3.76 5.34 5.62 9.29-3.25 13.9-1.86 17.56-.62a12.13 12.13 0 0 0 4 1c4.17.05 7.55 3.87 10.47 8.32 2 .22 3.93.39 5.58.62 8.59 1.12 11.46 1.51 16.7-5.07 4.22-5.23 9.57-8.71 13.9-11.48 3.93-2.52 7.36-4.72 7.82-6.91 1.34-6.31 8.15-9.85 19.69-10.86-.12-.29-.29-.68-.41-.95-1-2.09-1.9-4.06-1.06-6.25s3.38-3.66 7.31-5.17c7-2.77 22.17-7.26 30.16-9.62-1.64-1.53-2.92-3.27-2.92-5.3a6.1 6.1 0 0 1 2.73-4.58zm-2 54.35c-1.28-2-3.08-3.27-4.72-3.33-5.52-.33-12.43-5.4-14.91-7.37l-10.13.62a2.86 2.86 0 0 1-2-.72 2.66 2.66 0 0 1-.83-2v-4.57c-9.18.68-14.81 3.1-15.58 6.81-1 4.4-5.25 7.15-10.19 10.36-4.22 2.69-9 5.79-12.6 10.35-7.14 8.95-12.6 8.21-21.6 7l-1.24-.17a38.24 38.24 0 0 0 2.87 4.39 20.23 20.23 0 0 1 2.75 4.55c2.26 4.39 5 9.8 14.24 12.66 5.68 1.74 7.92 3 8.89 5.07.83 1.86.11 3.54-.39 4.78a5.94 5.94 0 0 0-.23 5.29c1.41 3.66 4.66 5.28 8.77 7.31 3.6 1.75 7.6 3.82 10.8 7.65a21.4 21.4 0 0 1 7 1.35 30.48 30.48 0 0 0 13.69 1.81 107.42 107.42 0 0 1 8.44-9c4.38-4 6.7-7 6.91-8.79.56-4.84 2.93-8.48 6.87-10.51a4.1 4.1 0 0 0 1.8-2.42 8.62 8.62 0 0 0-.73-6.41c-2.75-5.19.05-15.14 3.54-25.1a11.34 11.34 0 0 0-1.39-9.61zm37.86-36.18a18.81 18.81 0 0 1-2.07.12c-2.93 0-6.93-.62-8.5-3.66-.73-1.47-1.35-4.1-2.3-8.28-1-4.38-2.42-10.46-3.78-12.54-2.69-4.17-.39-9.68 1.24-13.73a22.86 22.86 0 0 0 1.24-3.43c.62-3.09 1.47-7.82-1.12-10.91-3.39-4.11-3.89-9.68-3.66-15.08-.79.06-1.63.11-2.59.11 1.8 13.67-.18 17.56-4.61 19.63-.91.46-.91.46-1 1-.35 1.8.06 2.24 1.12 3.42a9.78 9.78 0 0 1 2.76 8.41c-.73 7.49-4.55 17.72-9.44 21.28-.12 1.18 3.48 3.54 4.66 4.32a20.22 20.22 0 0 1 3.1 2.7c2 2 3.37 3.6 6.85 3.16a8.25 8.25 0 0 1 8.11 4.1c2.81 4.55 2.25 11.31-1.29 16.88a5.58 5.58 0 0 0-.51 5.62 13.67 13.67 0 0 0 6.35 6.13 22.6 22.6 0 0 0 1.75-3c1.69-3.21 3.77-7.14 7.66-7.88.56-.67.16-3.81 0-5.51a25.31 25.31 0 0 1-.12-7.71c.46-2.45-2.58-4.47-3.82-5.15zm-12.2-187.9c-.4 1.24-.85 2.6-1.41 4.34l-.85 2.75a37.15 37.15 0 0 0-1.4 8.77c-.23 3.56-.56 7.94-5 7.94a6.45 6.45 0 0 1-2.75-.62c-6-2.31-9.5-2.19-13.28.4A6.25 6.25 0 0 1 709 560a5.66 5.66 0 0 1-4.94-3.21c-2.09-3.54-2.36-9.33-.62-12.49 1.18-2.14 2.07-6 .73-8.77-3.26-.05-6-.23-8.1-.34a29 29 0 0 0-4.73-.12c4.11 6.64 5.68 11.6 4.5 15.25a7.4 7.4 0 0 1-4.73 4.73 1.48 1.48 0 0 0-.39.17 16.69 16.69 0 0 0 1.24 1.86 21.36 21.36 0 0 1 3.2 5.67c1.7 5.13-3.08 12.27-15.41 23a39 39 0 0 1 3.38 13.28c.22 5.67.22 5.67 2.58 8.49.85.95 1.86 2.25 3.21 4 4.17 5.52 5.29 10.24 7 17.39.68 2.92 1.59 6.46 2.77 10.68.27.12.5.35.77.35 4.84.56 10 3.19 16 6.23 1.8.91 3.66 1.86 5.62 2.81 3.38 1.64 6.3 1.47 9.11 1.24 1-.06 2-.1 3.1-.06h.11a8 8 0 0 1 6.36 2.94l.79 1c3.43 4.16 7.65 9.29 7.59 24 .73-.18 1.68-.51 2.47-.74a29.17 29.17 0 0 1 8.44-1.74 15.22 15.22 0 0 1 7.94 2.24 12.08 12.08 0 0 0 6.41 1.81c2.48 0 4.61-1.07 7.31-2.47 3.66-1.86 8.16-4.16 15-4.16 9.29 0 20.13-7.2 24.64-11.59-4.39-6.25-11.09-14.69-9.62-27.35 1.8-15.53 1.12-18.9-3.37-24.3-3.44-4.1-1.24-14.75 1.57-22-9.91-7.26-23.69-17.38-23.69-17.38a2.82 2.82 0 0 1-1.13-2.2v-5.46zm-329.67-122c1.12 2.36 2.31 4.95 3.43 7.76a15.21 15.21 0 0 1 4 3.66 11.46 11.46 0 0 0 .84 1.06 59.92 59.92 0 0 0 4.45-8.21c3.93-8 8.38-17.09 14-20 3.37-1.74 5.29-8.38 6.91-14.17 1.57-5.58 3-10.8 6-14a50.45 50.45 0 0 1 7.65-6.12c3.1-2.14 6-4.22 8.05-6.93-8.22-2.8-12.21-8.49-11.59-25.37-5 2.92-13 7.26-18.39 8.11-5.81.89-8.61-1.24-11.09-3.16a15.61 15.61 0 0 0-5.06-2.92c-3.5-1.18-8.72 1.68-13.28 4.16a42.76 42.76 0 0 1-6.58 3.21c-2.24.78-4.89 3.82-6.36 7.42-1.57 3.83-1.63 7.6-.28 10.41a35.93 35.93 0 0 0 5 6.76c5.28 6.23 11.81 14 8.77 25.47-2.57 9.96.02 15.36 3.56 22.84zm339.27 270.24a4.25 4.25 0 0 1-2.27-.73 4.12 4.12 0 0 1-1.57-3.55c.29-13.72-3.09-17.77-6.35-21.71l-.79-1c-.11 4 .29 8.09 2.48 10.68 4.22 5.07 2.92 11.81 2.25 15.41a21.42 21.42 0 0 1-1.57 4.51c-1.19 2.92-2.87 6.91-1.69 8.71 1.84 2.93 3.2 8.67 4.49 14.29a53.51 53.51 0 0 0 1.92 7.1c.33.39 1.86.66 3.66.66a22.92 22.92 0 0 0-.91-2.25 41.23 41.23 0 0 1-3.6-13c-1-8.77 1.58-14.12 3.66-18.39a2.12 2.12 0 0 1 .29-.73zm-55.87-134.8c.27-.89.17-3.82-3.6-10.12-1.53 1.85-3.33 3.38-5.69 3.71a5.33 5.33 0 0 1-1 .06 10 10 0 0 1-4.61-1.51 6.94 6.94 0 0 1-2.65 2.13c-1.51.68-3.66 1.63-5.46 8.77a21.94 21.94 0 0 0-.67 3.89 8.11 8.11 0 0 1 6.41.67 4 4 0 0 0 2.47.57c.8-.18 1.7-1.24 2.6-2.37 2-2.36 5-6 10.8-4.56.95-.39 1.29-.84 1.4-1.24zm53-25.71a26 26 0 0 0-7.53-2.81 13.64 13.64 0 0 1-7.08-3.42c-1-.79-1.07-.85-1.53-.85-1.07 0-3.1.67-6 2.09-7.42 3.54-8.44 4.22-9.39 4.89a33 33 0 0 1-3.1 1.8 6.56 6.56 0 0 0-3 3.76 1.59 1.59 0 0 0 .68 1.59c.27.21.33.61.61.89a2.58 2.58 0 0 1 .62.91c3 4.43 2.6 10.68.06 15.23-1.12 2-.11 6.76.89 7.65 5.87-3.82 10.86-4 18.51-1.12.06 0 .12.05.17.05.12-.73.23-1.8.29-2.75a43 43 0 0 1 1.63-10l.85-2.7a44.5 44.5 0 0 1 2.92-8h.06c1.69-3.09 4.05-5.17 8.71-6.35a4.46 4.46 0 0 0 1.67-.86zm-70.77 89.12a33.65 33.65 0 0 0 6.53 8.71c3 3.16 5.74 6.37 6.53 11.6.84-.06 1.63-.17 2.53-.17a5.47 5.47 0 0 1 2.88.84c-.23-1-.52-2.08-.74-3-1.63-7-2.59-10.74-6.08-15.36a47.55 47.55 0 0 0-3-3.76c-3.15-3.72-3.54-4.62-3.88-11.71-.28-6.08-3.43-14.4-8.27-20-1.12 13.66-.78 24.24 3.54 32.85zm75-163.43a66 66 0 0 1 11.88.23c.57-2.42.78-4.45.1-5.4-.1-.23-.56-.85-2.24-.91-6.08-.39-8.56-6.12-10.36-10.34-.89-2.09-1.8-4.28-2.81-5.07a30.36 30.36 0 0 1-5-6.13c-3-4.34-6.68-9.74-10.45-9.74h-.68c-3.66 0-6.13-1.06-7.43-3.14-1.4-2.26-1.12-5.28.85-8.94 1.68-3.16 4.72-3.6 7.14-4a10.44 10.44 0 0 0 4.22-1.23c1.41-1.13 1.74-9.22 2-13.56.11-3 .27-5.79.61-8.26-10.18-7.82-13.1-13.11-13.56-24.26-.22-4.89-.51-9.33-2.13-10.62-1-.74-2.93-.91-6-.35-2.8.52-3 1-2.42 6.37.45 4 1 8.94-1.46 14.17-5.85 12.27-12.66 18.23-20.93 18.23-4.22 0-7-2-9.17-3.6-2.58-1.86-4.27-3.1-8-2a25.1 25.1 0 0 0-6.25 3.37c-6.18 4.12-13.9 9.29-33.64 6.19-16.26-2.54-19.35-8.5-21.2-12-1.13-2.13-1.18-2.25-4.34-1.51-6.08 1.39-13 8.54-15.58 16.31-1.47 4.27-1.3 7.87.39 10 2.71 3.27 5.18 4.49 8 6a37.72 37.72 0 0 1 13.61 11.13c3.83 4.72 9.12 8.55 14.29 12.27 7.31 5.23 14.18 10.24 15.08 17l1.06 8c2.94.91 5.69 2.36 7.43 5.24 1.07 1.75 7.65 1 12 .51 5.69-.68 11.09-1.3 14.29.83 2.82 1.86 4.72 5 6.58 7.94 1.64 2.65 3.49 5.63 5.07 5.63h.06c2-.12 3.48-1.08 5.23-2.15 2.19-1.34 4.6-2.92 8.26-2.92a14.43 14.43 0 0 1 7.49 2 5.45 5.45 0 0 0 2.81.9 19.76 19.76 0 0 0 4.95-1.52c3.43-1.35 7.71-3 12.43-3 2 0 3-1.36 5-4.45s4.27-6.74 9.11-6.86c1.16-.19 2.46-.3 3.74-.36zm.23 38.6c.68-6.31-4.22-14.13-8.15-20.43-1.08-1.74-2.09-3.32-2.94-4.78a8.8 8.8 0 0 1-7 3.49c-3.72 0-7.32 1.41-10.46 2.65-2.59 1-4.84 1.9-6.93 1.9a10.72 10.72 0 0 1-5.28-1.51 9.28 9.28 0 0 0-5-1.36c-2.08 0-3.55.91-5.35 2.09a20.66 20.66 0 0 1-3.93 2c.12 3.27 1.63 5.86 3.2 8.34 1.91 3 4.12 6.46 2.09 10.45-1.18 2.36-3.72 4.73-6.64 7.43-4.61 4.28-10.42 9.57-11.81 16.15a125.11 125.11 0 0 0-2.21 17.55c-.1 1.69-.21 3-.33 4.27 1.75 1.24 2.75 1.52 3.26 1.41.85-.12 1.91-1.12 3.44-3.26a8.81 8.81 0 0 1 1.57-1.64c.11-.11.11-.27.23-.39s.11 0 .17 0c2.75-2.31 6-2.19 10.4-1.8 1.35.11 2.87.17 4.67.23a6 6 0 0 1-.22-2.42c.5-3.78 3.76-6.76 5.85-7.82a22.13 22.13 0 0 0 2.59-1.53c1.18-.78 2.3-1.57 10.07-5.29 8.55-4.1 11.3-2.19 13.33-.38a10.07 10.07 0 0 0 3.1 1.74 62.45 62.45 0 0 1 6.02-12.19c2.92-5.01 5.79-9.73 6.29-14.9zm-58.17 77.18a18 18 0 0 0-2.47-4.22c-1.07-1.52-2.19-3-2.42-4.73a14 14 0 0 0-2.42 2.42c-1.46 1.74-3.1 3.72-5.79 4.22a6.58 6.58 0 0 1-1.53.12 9.41 9.41 0 0 1-4.22-1.13 3.68 3.68 0 0 0-2.42-.44c1 2.24 1.59 5.44 1.13 11.42a31.6 31.6 0 0 1 7.25 8.65c13.31-11.75 13.15-15.64 12.92-16.31zm-17.58-291.35h-41.23v28.35a20.85 20.85 0 0 0 1.63 8.66c1.58 4.55 3.44 9.68 2 26.56-1.74 20.3-.45 33.35.11 38 16.15 2.08 22.44-1.91 27.9-5.57a29.25 29.25 0 0 1 7.66-4.05 14.5 14.5 0 0 1 4.67-.62c1.18-8 4.72-31.62 7-44.55 1.8-10.58 1.8-10.58.23-11.77a25.7 25.7 0 0 1-3.54-3c-5.3-5.29-3.33-12.37-1.08-16.25zM474.37 201c-3 15.75 2.65 22 6.48 26 2.25 2.37 5.62 6 1.4 10-2.87 2.7-3.1 15.07-3.26 24.13-.11 7.43-.23 14.46-1.35 19.42-2 8.59-7.82 15.12-14 22-2.87 3.21-5.79 6.46-8.38 10-1.8 2.47-4.22 6-3.88 7.54.27 1.36 3.26 3.16 7 5.46l3.21 2c13.11 8.22 11.6 17 8.44 26.73-.11.33-.34.56-.44.89.15.29.44.46.5.79a126.93 126.93 0 0 0 5.73 20.25 2.7 2.7 0 0 1-.27 2.54 3.1 3.1 0 0 1-2.32 1.12c-4.94-.12-14.62 1.12-14.79 4.72-.12 2.37 4.45 6.87 8.11 10.53 5.44 5.46 11.52 11.54 12 18.06 1-.4 2-.91 3-1.24 6-1.86 11.94-2.36 17.67-2.88 8.11-.66 15.14-1.28 20.6-5.44 2.19-1.64 4.27-3.33 6.35-5 7.59-6.08 15.47-12.33 26.38-16.94 5-2.07 8.33-6.52 11.25-10.41 3.1-4.05 5.8-7.59 9.79-7.81a7.21 7.21 0 0 1 3.66.84c-.44-2.75-2.36-7.54-5.9-13.17a20.2 20.2 0 0 0-2.93-3c-3.15-3-6.48-6-5.9-9.62.16-1.29 1-3.09 3.64-4.39 2.21-1.06 2.83-5 3.56-9.5.78-5.17 1.8-11.52 5.67-17.1a27.42 27.42 0 0 1 7.2-6.75c3.61-2.59 6-4.28 6-9.12v-44.96c-27-13.16-92.65-47.2-103.45-52.83a122.15 122.15 0 0 1-10.77 7.14zm119.55 90.63c0 7.59-4.33 10.74-8.15 13.51a23.87 23.87 0 0 0-6 5.46c-3.16 4.49-4 10-4.73 14.84-.9 5.79-1.74 11.25-6.52 13.56a3.07 3.07 0 0 0-.74.44c.12.79 2.93 3.44 4.28 4.74a22.9 22.9 0 0 1 3.82 4.16c3.44 5.5 8.78 15.53 6 20.7 0 1.06 2.88 4.05 6.37 6.87 3.65-6.76 10-13.17 17.21-14.86 6.69-1.52 8.67 1.08 10.35 4.27 1.4 2.71 3.37 6.31 13.61 8.5-.68-5.9-1.57-18.62.06-37.52 1.35-15.69-.29-20.26-1.69-24.25a26.94 26.94 0 0 1-1.91-10.46v-31.11a2.74 2.74 0 0 1 2.71-2.69h22.94v-27h-57.61zm-127.2 51.14a17.17 17.17 0 0 0-5 7.43 15 15 0 0 0 3.44 1.46 25.62 25.62 0 0 0 1.56-8.94zm-8-10.63l-2.09-1.3c-.27 6.92.23 11.48 1.35 14.46a24 24 0 0 1 6.76-7.87 20.66 20.66 0 0 0-6.05-5.34zM491.09 469c6-4 14.46-3.1 21.2-2.42a59.06 59.06 0 0 0 6.42.38v-5.28c0-6.81 8-16.55 15.53-16.55 3.48 0 6 2.54 8.54 5.24 3.33 3.43 7 7.25 13.9 7.25a48.65 48.65 0 0 1 11.82 1.29c2.42.57 2.42.57 3.93-.77l1.69-1.53c3.6-3.37 7.26-6.8 14.69-4.22 2.53.91 3.54.12 5.67-1.51a17.41 17.41 0 0 1 7.61-3.83 35.19 35.19 0 0 1 5.9-.62c2.42-.06 2.81-.06 4.34-2 3.6-4.44 9.72-2 14.17-.16a21.33 21.33 0 0 0 4.61 1.51h2.42c1.35 0 2.86 0 4.5.12l-.85-6.3c-.56-4.45-6.58-8.78-12.87-13.28-5.19-3.71-11.09-8-15.37-13.22a32.8 32.8 0 0 0-11.94-9.79 27.21 27.21 0 0 1-9.62-7.38c-3-3.6-3.43-8.94-1.42-15.07-3.31-2.48-7.8-6.36-9-10.19a5.49 5.49 0 0 0-3-1.85c-1.53.05-3.66 2.93-5.75 5.68-3.21 4.22-7.14 9.45-13.45 12.1-10.22 4.38-17.48 10.13-25.14 16.2-2.08 1.69-4.22 3.37-6.47 5.06-6.7 5.13-14.79 5.8-23.35 6.52-5.45.46-11.07 1-16.53 2.65-12.1 3.78-18.35 14.17-17 28.58s12.21 24.87 19 30a15.53 15.53 0 0 1 5.82-6.61zM325 375.3c9.46 4.55 22.18 4 27.68-1.24l2-1.92c5.45-5.28 8.77-8.49 17.67-8.73 4.72 0 9.1 2.32 13.38 4.69a44.4 44.4 0 0 0 7.76 3.54c-.78-1-1.63-2-2.42-3a42.28 42.28 0 0 1-5.68-7.88c-2.08-4.22-2-9.62.12-14.85a24.51 24.51 0 0 1 3.66-6.08 19.38 19.38 0 0 1-7.61-3.44 9.81 9.81 0 0 0-6.58-2.25 14.37 14.37 0 0 0-9.22 2.81c-2.08 1.36-4.39 2.83-7.71 2.21-2.76-.56-4.27-2.87-5.79-5.19-2.65-4-5.64-8.6-16.09-7.59A26.16 26.16 0 0 0 318 336.64c-4.22 5.46-5.63 11.19-5.11 14.17 1.22 7.1 3.41 20.27 12.11 24.49zm616.71 314.57c-6.14 2.27-6.25 14.35-9.17 17.29s-11.37 6.58-13.23 11-4.95 11.93-11.75 14.29-9.73 10-19.86 11.77-15.52 6.46-16.76 10.12-2.94 9.33-5.63 12.49 4.16 22.28 1.24 29.36-18.12 22.52-20.31 30.81 5.23 23.85 3.43 28.4c-3.78 9.57 1 20 12 24.48 10.3 4.16 15.81-6.08 25.71-8.28 16.14-3.64 34.55-67.83 40.16-75.71s7.82-29.88 13-36.24 12-7.59 12.48-21.54-3.02-51.27-11.31-48.24z"/></svg><view id="alert" viewBox="5000 1000 1000 1000"/><svg viewBox="0 0 1000 1000" width="1000" height="1000" x="5000" y="1000" xmlns="http://www.w3.org/2000/svg"><path d="M987.81 851.06l-435.88-755c-28.56-49.47-75.3-49.47-103.87 0l-435.87 755C-16.37 900.54 7 941 64.13 941h871.75c57.12 0 80.5-40.46 51.93-89.94zM501.3 805.47h-.65c-28 0-48.88-20.84-48.88-51.47 0-29.32 20.86-50.82 49.53-50.82s49.53 21.5 49.53 50.82c0 30.63-20.83 51.47-49.53 51.47zm45.62-365.54C534.54 509.65 524.76 580 515 655c-2 7.82-28.67 8.49-30 0-9.76-74.92-20.18-145.3-32.58-215-3.9-24.75-5.86-36.5-5.86-47.56 0-15.65 11.09-28 53.44-28h.64c40.41 0 52.78 12.37 52.78 28 .01 10.99-2.59 22.74-6.5 47.49z"/></svg><view id="arrow-down" viewBox="0 1000 1000 1000"/><svg viewBox="0 0 1000 1000" width="1000" height="1000" y="1000" xmlns="http://www.w3.org/2000/svg"><path d="M143.23 524.15l225.73 44V38.26A38.38 38.38 0 0 1 407.22 0h191.3a38.38 38.38 0 0 1 38.26 38.26v529.89l220-44c36.34-7.65 59.3 36.35 34.43 63.13L527.74 987.09c-15.31 17.21-40.17 17.21-55.48 0L108.8 587.28c-24.87-28.7-1.91-70.78 34.43-63.13z"/></svg><view id="arrow-down-circle" viewBox="1000 1000 1000 1000"/><svg viewBox="0 0 1000 1000" width="1000" height="1000" x="1000" y="1000" xmlns="http://www.w3.org/2000/svg"><path d="M500 1000c275.79 0 500-224.21 500-500S775.79 0 500 0 0 224.21 0 500s224.21 500 500 500zM304.21 513.68l124.21 24.21V246.32a21.12 21.12 0 0 1 21.05-21.06h105.27a21.12 21.12 0 0 1 21 21.06v291.57l121.05-24.21c20-4.21 32.63 20 18.95 34.74l-200 220c-8.42 9.47-22.11 9.47-30.53 0l-200-220c-13.63-15.79-1-38.95 19-34.74z"/></svg><view id="arrow-left" viewBox="2000 0 1000 1000"/><svg viewBox="0 0 1000 1000" width="1000" height="1000" x="2000" xmlns="http://www.w3.org/2000/svg"><path d="M475.85 143.23l-44 225.77h529.89a38.38 38.38 0 0 1 38.26 38.22v191.3a38.38 38.38 0 0 1-38.26 38.26H431.85l44 220c7.65 36.34-36.35 59.3-63.13 34.43L12.91 527.74c-17.21-15.31-17.21-40.17 0-55.48L412.72 108.8c28.7-24.87 70.78-1.91 63.13 34.43z"/></svg><view id="arrow-left-circle" viewBox="2000 1000 1000 1000"/><svg viewBox="0 0 1000 1000" width="1000" height="1000" x="2000" y="1000" xmlns="http://www.w3.org/2000/svg"><path d="M500 1000c275.79 0 500-224.21 500-500S775.79 0 500 0 0 224.21 0 500s224.21 500 500 500zm-48.42-285.26l-220-200c-9.47-8.42-9.47-22.11 0-30.53l220-200c14.74-13.68 38.95-1 34.74 19l-24.21 121h291.57a21.12 21.12 0 0 1 21.06 21.05v105.27a21.12 21.12 0 0 1-21.06 21.05H462.11l24.21 124.21c4.21 20-18.95 32.63-34.74 18.95z"/></svg><view id="arrow-right" viewBox="0 2000 1000 1000"/><svg viewBox="0 0 1000 1000" width="1000" height="1000" y="2000" xmlns="http://www.w3.org/2000/svg"><path d="M524.15 856.77l44-225.73H38.26A38.38 38.38 0 0 1 0 592.78v-191.3a38.38 38.38 0 0 1 38.26-38.26h529.89l-44-220c-7.65-36.34 36.35-59.3 63.13-34.43l399.81 363.47c17.21 15.31 17.21 40.17 0 55.48L587.28 891.2c-28.7 24.87-70.78 1.91-63.13-34.43z"/></svg><view id="arrow-right-circle" viewBox="1000 2000 1000 1000"/><svg viewBox="0 0 1000 1000" width="1000" height="1000" x="1000" y="2000" xmlns="http://www.w3.org/2000/svg"><path d="M1000 500C1000 224.21 775.79 0 500 0S0 224.21 0 500s224.21 500 500 500 500-224.21 500-500zM513.68 695.79l24.21-124.21H246.32a21.12 21.12 0 0 1-21.06-21.05V445.26a21.12 21.12 0 0 1 21.06-21.05h291.57l-24.21-121c-4.21-20 20-32.63 34.74-19l220 200c9.47 8.42 9.47 22.11 0 30.53l-220 200c-15.79 13.68-38.95 1.05-34.74-18.95z"/></svg><view id="arrow-up" viewBox="2000 2000 1000 1000"/><svg viewBox="0 0 1000 1000" width="1000" height="1000" x="2000" y="2000" xmlns="http://www.w3.org/2000/svg"><path d="M856.77 475.85l-225.77-44v529.89a38.38 38.38 0 0 1-38.22 38.26h-191.3a38.38 38.38 0 0 1-38.26-38.26V431.85l-220 44c-36.34 7.65-59.3-36.35-34.43-63.13L472.26 12.91c15.31-17.21 40.17-17.21 55.48 0L891.2 412.72c24.87 28.7 1.91 70.78-34.43 63.13z"/></svg><view id="arrow-up-circle" viewBox="3000 0 1000 1000"/><svg viewBox="0 0 1000 1000" width="1000" height="1000" x="3000" xmlns="http://www.w3.org/2000/svg"><path d="M500 0C224.21 0 0 224.21 0 500s224.21 500 500 500 500-224.21 500-500S775.79 0 500 0zm195.79 486.32l-124.21-24.21v291.57a21.12 21.12 0 0 1-21.05 21.06H445.26a21.12 21.12 0 0 1-21.05-21.06V462.11l-121 24.21c-20 4.21-32.63-20-19-34.74l200-220c8.42-9.47 22.11-9.47 30.53 0l200 220c13.68 15.79 1.05 38.95-18.95 34.74z"/></svg><view id="back" viewBox="3000 1000 1000 1000"/><svg viewBox="0 0 1000 1000" width="1000" height="1000" x="3000" y="1000" xmlns="http://www.w3.org/2000/svg"><path d="M152.62 540.76L796.2 942.64c32.22 19.9 73.93-2.85 73.93-40.76V98.12c0-37.91-41.71-60.66-73.93-40.76L152.62 459.24a47.89 47.89 0 0 0 0 81.52z"/></svg><view id="back-to-start" viewBox="3000 2000 1000 1000"/><svg viewBox="0 0 1000 1000" width="1000" height="1000" x="3000" y="2000" xmlns="http://www.w3.org/2000/svg"><path d="M282.49 540.76l643.58 401.88c32.23 19.9 73.93-2.85 73.93-40.76V98.12c0-37.91-41.7-60.66-73.93-40.76L282.49 459.24a47.89 47.89 0 0 0 0 81.52zM78.63 50A78.43 78.43 0 0 0 0 128.63v742.74A78.43 78.43 0 0 0 78.63 950a78.43 78.43 0 0 0 78.63-78.63V128.63A78.43 78.43 0 0 0 78.63 50z"/></svg><view id="chart-upward" viewBox="0 3000 1000 1000"/><svg viewBox="0 0 1000 1000" width="1000" height="1000" y="3000" xmlns="http://www.w3.org/2000/svg"><path d="M786.87 134.24l40.1 58.7L935.25 0 712.28 14.15l36.98 60.42L64.75 535.62M812.01 251.6H935.2V1000H812.01zM562.93 383.92h123.19V1000H562.93zM313.84 498.01h123.19v501.98H313.84zM64.75 625.79h123.19v374.19H64.75z"/></svg><view id="check" viewBox="1000 3000 1000 1000"/><svg viewBox="0 0 1000 1000" width="1000" height="1000" x="1000" y="3000" xmlns="http://www.w3.org/2000/svg"><path d="M900.54 129.05a96.67 96.67 0 0 0-66.46 29.2C680.27 312.39 517.44 486.46 363.83 643.11L158.4 473.94A96.76 96.76 0 0 0 35.13 623.13l.42.34L309.45 849a96.68 96.68 0 0 0 129.9-6.54C613.18 668.28 801.15 464.94 971 294.69a96.68 96.68 0 0 0-70.49-165.64z"/></svg><view id="check-circle" viewBox="2000 3000 1000 1000"/><svg viewBox="0 0 1000 1000" width="1000" height="1000" x="2000" y="3000" xmlns="http://www.w3.org/2000/svg"><path d="M500 0C223.86 0 0 223.86 0 500s223.86 500 500 500 500-223.86 500-500S776.14 0 500 0zm329.72 356.29C710.81 475.46 579.23 617.8 457.54 739.74a67.67 67.67 0 0 1-90.93 4.58L174.89 586.43l-.3-.24a67.73 67.73 0 0 1 86.29-104.43l143.8 118.42c107.53-109.66 221.51-231.51 329.18-339.41a67.74 67.74 0 0 1 46.52-20.44 67.68 67.68 0 0 1 49.34 116z"/></svg><view id="chevron-down" viewBox="3000 3000 1000 1000"/><svg viewBox="0 0 1000 1000" width="1000" height="1000" x="3000" y="3000" xmlns="http://www.w3.org/2000/svg"><path d="M789.36 177L499.41 467l-290-290c-18.86-19-50.41-19-69.29 0L14.05 303c-18.91 18.91-18.91 49.38 1 69.34l450.74 450.71c18.91 18.91 50.43 18.91 69.34 0l450.69-450.69c18.91-18.91 18.91-50.43 0-69.34L859.75 177c-21.01-19-51.48-19-70.39 0z"/></svg><view id="chevron-down-circle" viewBox="4000 0 1000 1000"/><svg viewBox="0 0 1000 1000" width="1000" height="1000" x="4000" xmlns="http://www.w3.org/2000/svg"><path d="M500 0C224.21 0 0 224.21 0 500s224.21 500 500 500 500-224.21 500-500S775.79 0 500 0zm267.2 449.81L519.32 697.69a27.2 27.2 0 0 1-38.13 0L233.31 449.81c-11-11-11-27.73-.58-38.13l69.34-69.34a27.2 27.2 0 0 1 38.13 0l159.48 159.47 159.47-159.47c10.4-10.4 27.16-10.4 38.71 0l69.34 69.34a27.2 27.2 0 0 1 0 38.13z"/></svg><view id="chevron-left" viewBox="4000 1000 1000 1000"/><svg viewBox="0 0 1000 1000" width="1000" height="1000" x="4000" y="1000" xmlns="http://www.w3.org/2000/svg"><path d="M823.05 789.36l-290-289.95 290-290c18.91-18.91 18.91-50.43 0-69.34L697 14.05c-18.91-18.91-49.38-18.91-69.34 1L177 465.79c-19 18.91-19 50.43 0 69.34l450.64 450.69c18.91 18.91 50.43 18.91 69.34 0l126.07-126.07c18.95-21.01 18.95-51.48 0-70.39z"/></svg><view id="chevron-left-circle" viewBox="4000 2000 1000 1000"/><svg viewBox="0 0 1000 1000" width="1000" height="1000" x="4000" y="2000" xmlns="http://www.w3.org/2000/svg"><path d="M500 0C224.21 0 0 224.21 0 500s224.21 500 500 500 500-224.21 500-500S775.79 0 500 0zm157.66 659.15c10.4 10.4 10.4 27.16 0 38.71l-69.34 69.34a27.2 27.2 0 0 1-38.13 0L302.31 519.32a27.2 27.2 0 0 1 0-38.13l247.88-247.88c11-11 27.73-11 38.13-.58l69.34 69.34a27.2 27.2 0 0 1 0 38.13L498.18 499.68z"/></svg><view id="chevron-right" viewBox="4000 3000 1000 1000"/><svg viewBox="0 0 1000 1000" width="1000" height="1000" x="4000" y="3000" xmlns="http://www.w3.org/2000/svg"><path d="M177 210.64l290 290-290 290c-19 18.81-19 50.36 0 69.24L303 986c18.91 18.91 49.38 18.91 69.34-1.05l450.71-450.74c18.91-18.91 18.91-50.43 0-69.34L372.36 14.18c-18.91-18.91-50.43-18.91-69.34 0L177 140.25c-19 21.01-19 51.48 0 70.39z"/></svg><view id="chevron-right-circle" viewBox="0 4000 1000 1000"/><svg viewBox="0 0 1000 1000" width="1000" height="1000" y="4000" xmlns="http://www.w3.org/2000/svg"><path d="M500 0C224.21 0 0 224.21 0 500s224.21 500 500 500 500-224.21 500-500S775.79 0 500 0zm197.69 518.81L449.81 766.69c-11 11-27.73 11-38.13.58l-69.34-69.34a27.2 27.2 0 0 1 0-38.13l159.48-159.48-159.48-159.47c-10.4-10.4-10.4-27.16 0-38.71l69.34-69.34a27.2 27.2 0 0 1 38.13 0l247.88 247.88a27.2 27.2 0 0 1 0 38.13z"/></svg><view id="chevron-up" viewBox="1000 4000 1000 1000"/><svg viewBox="0 0 1000 1000" width="1000" height="1000" x="1000" y="4000" xmlns="http://www.w3.org/2000/svg"><path d="M210.64 823.05l290-290 290 290c18.91 18.91 50.43 18.91 69.34 0L986 697c18.91-18.91 18.91-49.38-1.05-69.34L534.21 177c-18.91-19-50.43-19-69.34 0L14.18 627.64c-18.91 18.91-18.91 50.43 0 69.34l126.07 126.07c21.01 18.95 51.48 18.95 70.39 0z"/></svg><view id="chevron-up-circle" viewBox="2000 4000 1000 1000"/><svg viewBox="0 0 1000 1000" width="1000" height="1000" x="2000" y="4000" xmlns="http://www.w3.org/2000/svg"><path d="M500 0C224.21 0 0 224.21 0 500s224.21 500 500 500 500-224.21 500-500S775.79 0 500 0zm267.27 588.32l-69.34 69.34a27.2 27.2 0 0 1-38.13 0L500.32 498.18 340.85 657.66c-10.4 10.4-27.16 10.4-38.71 0l-69.34-69.34a27.2 27.2 0 0 1 0-38.13l247.88-247.88a27.2 27.2 0 0 1 38.13 0l247.88 247.88c10.98 10.98 10.98 27.73.58 38.13z"/></svg><view id="circle" viewBox="3000 4000 1000 1000"/><svg viewBox="0 0 1000 1000" width="1000" height="1000" x="3000" y="4000" xmlns="http://www.w3.org/2000/svg"><circle cx="500" cy="500" r="500"/></svg><view id="circle-open" viewBox="4000 4000 1000 1000"/><svg viewBox="0 0 1000 1000" width="1000" height="1000" x="4000" y="4000" xmlns="http://www.w3.org/2000/svg"><path d="M500 50a450.13 450.13 0 0 1 175.15 864.66 450.13 450.13 0 0 1-350.3-829.32A447.21 447.21 0 0 1 500 50m0-50C223.86 0 0 223.86 0 500s223.86 500 500 500 500-223.86 500-500S776.14 0 500 0z"/></svg><view id="copy" viewBox="5000 0 1000 1000"/><svg viewBox="0 0 1000 1000" width="1000" height="1000" x="5000" xmlns="http://www.w3.org/2000/svg"><path d="M395.25 147.74h431.67v660.39h148.06V0H395.25v147.74z"/><path d="M217.84 191.87V1000h564.9V191.87zM611.2 616.73h-90.12v90.12a20.8 20.8 0 1 1-41.59 0v-90.12h-90.12a20.8 20.8 0 1 1 0-41.59h90.12V485a20.8 20.8 0 1 1 41.59 0v90.12h90.12a20.8 20.8 0 1 1 0 41.59z"/></svg><view id="copy-to-clipboard" viewBox="0 0 1000 1000"/><svg viewBox="0 0 1000 1000" width="1000" height="1000" xmlns="http://www.w3.org/2000/svg"><path d="M747.71 138.23c.45.88.62 1.89 1 2.78a93.49 93.49 0 0 1 4.85 13c.65 2.15 1.49 4.18 2 6.4a94.87 94.87 0 0 1-92.52 116H336.93a94.37 94.37 0 0 1-92.52-116c.5-2.22 1.34-4.25 2-6.4a93.49 93.49 0 0 1 4.85-13c.42-.89.59-1.9 1-2.78H137.14V1000h725.72V138.23zM638.23 664.15H525.92v112.32a25.92 25.92 0 1 1-51.84 0V664.15H361.77a25.92 25.92 0 1 1 0-51.84h112.31V500a25.92 25.92 0 1 1 51.84 0v112.31h112.31a25.92 25.92 0 0 1 0 51.84z"/><path d="M336.93 224.63h326.14a43.2 43.2 0 0 0 0-86.4H622a25.92 25.92 0 0 1-25.91-25.92V34.56A34.61 34.61 0 0 0 561.56 0H438.44a34.61 34.61 0 0 0-34.56 34.56v77.75A25.92 25.92 0 0 1 378 138.23h-41a43.2 43.2 0 1 0 0 86.4z"/></svg><view id="database" viewBox="5000 2000 1000 1000"/><svg viewBox="0 0 1000 1000" width="1000" height="1000" x="5000" y="2000" xmlns="http://www.w3.org/2000/svg"><path d="M929.41 135.42v.7c-1.19 74.47-193.3 134.72-430.09 134.72S70.4 210.59 69.21 136.12v-.7C69.19 60.63 261.76 0 499.3 0s430.11 60.63 430.11 135.42zm1.4 729.16v.71C929.6 939.75 737.49 1000 500.7 1000S71.8 939.75 70.61 865.29v-.71l-.3-190.78v.7c1.21 74.5 193.32 134.71 430.11 134.71S929.32 749 930.51 674.5v-.7z"/><path d="M929.84 622.65v.7c-1.19 74.47-193.3 134.72-430.09 134.72S70.83 697.82 69.64 623.35v-.7l-.28-190.79v.71c1.19 74.43 193.3 134.71 430.09 134.71S928.35 507 929.54 432.57v-.71z"/><path d="M929.91 378.47v.71c-1.2 74.46-193.3 134.71-430.1 134.71s-428.9-60.25-430.1-134.71v-.71l-.28-190.78v.71c1.2 74.46 193.3 134.71 430.09 134.71s428.9-60.25 430.1-134.71v-.71z"/></svg><view id="download" viewBox="5000 3000 1000 1000"/><svg viewBox="0 0 1000 1000" width="1000" height="1000" x="5000" y="3000" xmlns="http://www.w3.org/2000/svg"><path d="M250.26 616.87l158 30.79V276.74a26.87 26.87 0 0 1 26.8-26.74H569a26.86 26.86 0 0 1 26.78 26.78v370.88l154-30.79c25.44-5.36 41.51 25.44 24.1 44.18L519.42 940.92c-10.72 12.05-28.12 12.05-38.84 0L226.16 661.05c-17.41-20.05-1.34-49.54 24.1-44.18z"/><path d="M955.75 50H45.26A44.93 44.93 0 0 0 0 95.3v358.93a44.93 44.93 0 0 0 45.26 45.27H281a45.27 45.27 0 0 0 0-90.5H90.52V139.51h820V409h-191.6a45.27 45.27 0 0 0 0 90.53H954.7a44.93 44.93 0 0 0 45.3-45.3V95.3C1001 70 981 50 955.75 50z"/></svg><view id="edit" viewBox="5000 4000 1000 1000"/><svg viewBox="0 0 1000 1000" width="1000" height="1000" x="5000" y="4000" xmlns="http://www.w3.org/2000/svg"><path d="M826.32 355.25v455.28a15.67 15.67 0 0 1-15.27 15.26H189a15.67 15.67 0 0 1-15.27-15.26V188.42c0-7.83 6.85-14.21 15.27-14.21h454.67l50-50H189c-35.79 0-65.27 28.42-65.27 64.21v622.11c0 35.79 29.48 65.26 65.27 65.26h622.1c35.79 0 65.27-29.47 65.27-65.26V305.25z"/><path d="M435.65 450.22l-4.42 4.42a65 65 0 0 0-18.31 37.89l-12.63 90.92a14.67 14.67 0 0 0 16.41 16.42l90.3-12a65.14 65.14 0 0 0 37.89-18.31l4.42-4.42zm554.4-375.71l-64.4-63.78A35.43 35.43 0 0 0 900.39 0a34 34 0 0 0-25.26 10.73L813.88 72 457.75 428.12 572 542.41 917.44 197l72.61-72.62c13.27-13.25 13.27-35.98 0-49.87zM968 102.93l-39.78 39.14L858.08 72l39.78-39.8a4.86 4.86 0 0 1 3.14-1.26c1.26 0 1.9.63 3.16 1.26l64.41 64.41a4.84 4.84 0 0 1 1.26 3.16c-.61 1.23-1.24 1.89-1.83 3.16z"/></svg><view id="external" viewBox="0 5000 1000 1000"/><svg viewBox="0 0 1000 1000" width="1000" height="1000" y="5000" xmlns="http://www.w3.org/2000/svg"><path d="M948.75 324.14L879.25 221 676.59 423.64a20.76 20.76 0 0 1-29.26 0l-73.16-73.16a20.76 20.76 0 0 1 0-29.27l202.65-202.65-101-67.31c-16.83-11-8.78-36.58 11-37.31L978.74 0c12.44-.73 22 8.78 21.22 21.22l-13.9 291.9c-1.46 20.53-26.34 27.88-37.31 11.02z"/><path d="M826.32 355.25v455.28a15.67 15.67 0 0 1-15.27 15.26H189a15.67 15.67 0 0 1-15.27-15.26V188.42c0-7.83 6.85-14.21 15.27-14.21h454.67l50-50H189c-35.79 0-65.27 28.42-65.27 64.21v622.11c0 35.79 29.48 65.26 65.27 65.26h622.1c35.79 0 65.27-29.47 65.27-65.26V305.25z"/></svg><view id="forward" viewBox="1000 5000 1000 1000"/><svg viewBox="0 0 1000 1000" width="1000" height="1000" x="1000" y="5000" xmlns="http://www.w3.org/2000/svg"><path d="M847.38 459.24L203.8 57.36c-32.22-19.9-73.93 2.85-73.93 40.76v803.76c0 37.91 41.71 60.66 73.93 40.76l643.58-401.88a47.89 47.89 0 0 0 0-81.52z"/></svg><view id="forward-to-end" viewBox="2000 5000 1000 1000"/><svg viewBox="0 0 1000 1000" width="1000" height="1000" x="2000" y="5000" xmlns="http://www.w3.org/2000/svg"><path d="M717.51 459.24L73.93 57.36C41.7 37.46 0 60.21 0 98.12v803.76c0 37.91 41.7 60.66 73.93 40.76l643.58-401.88a47.89 47.89 0 0 0 0-81.52zM921.37 50a78.43 78.43 0 0 0-78.63 78.63v742.74A78.43 78.43 0 0 0 921.37 950a78.43 78.43 0 0 0 78.63-78.63V128.63A78.43 78.43 0 0 0 921.37 50z"/></svg><view id="globe" viewBox="3000 5000 1000 1000"/><svg viewBox="0 0 1000 1000" width="1000" height="1000" x="3000" y="5000" xmlns="http://www.w3.org/2000/svg"><path d="M500 0C224.21 0 0 224.21 0 500s224.21 500 500 500 500-224.21 500-500S775.79 0 500 0zm426.32 500c0 40-6.32 79-16.85 115.79-64.21-7.37-132.63-12.63-203.15-15.79 3.15-33.68 4.21-66.32 4.21-100s-1.06-66.32-4.21-100c71.57-3.16 138.94-8.42 203.15-15.79C920 421.05 926.32 460 926.32 500zM500 926.32c-42.11 0-98.95-95.79-124.21-255.79 82.1-2.11 166.32-2.11 249.47 0C600 830.53 542.11 926.32 500 926.32zM73.68 500c0-40 6.32-78.95 16.85-115.79 64.21 7.37 131.58 12.63 203.15 15.79-3.15 33.68-4.21 66.32-4.21 100s1.06 66.32 4.21 100c-71.57 3.16-140 8.42-204.21 15.79C80 579 73.68 540 73.68 500zM500 73.68c42.11 0 99 95.79 124.21 255.79-82.1 2.11-167.37 2.11-248.42 0 25.26-160 82.1-255.79 124.21-255.79zM636.84 500c0 33.68-1.05 66.32-4.21 96.84-87.37-2.1-178.95-2.1-266.31 0-2.11-30.52-4.21-63.16-4.21-96.84s1.05-66.32 4.21-96.84c44.21 1 88.42 2.1 133.68 2.1s89.47-1.05 133.68-2.1c2.11 30.52 3.16 63.16 3.16 96.84zm245.27-187.37c-59 6.32-120 10.53-184.22 13.69-13.68-90.53-37.89-174.74-72.63-233.69a423.81 423.81 0 0 1 256.85 220zm-507.37-220c-34.74 60-58.95 143.16-72.63 234.74-64.22-3.16-126.32-7.37-185.27-13.69 51.58-105.26 144.21-186.31 257.9-221.05zm-257.9 593.69c58.95-6.32 120-10.53 185.27-13.69 13.68 91.58 37.89 174.74 72.63 234.74-113.69-34.74-206.32-115.79-257.9-221.05zm508.42 221c34.74-60 59-143.16 72.63-233.69 64.22 3.16 125.27 7.37 184.22 13.69a423.81 423.81 0 0 1-256.85 220.05z"/></svg><view id="globe-with-marker" viewBox="4000 5000 1000 1000"/><svg viewBox="0 0 1000 1000" width="1000" height="1000" x="4000" y="5000" xmlns="http://www.w3.org/2000/svg"><path d="M631.29 108.08A103.58 103.58 0 1 1 527.7 211.65a103.15 103.15 0 0 1 103.59-103.57zm-25.13 455.1c11.51 17.76 38.7 17.76 50.25 0l158-245.86a207.89 207.89 0 0 0 28.24-110.9C839.5 97.62 751.6 6.55 642.78.29 520.4-6 418.89 90.25 418.89 211.6c0 38.69 10.46 74.28 28.22 105.67z"/><path d="M572.44 354.54a120.84 120.84 0 0 0 39.37 13.52 325.6 325.6 0 0 0-39.37-13.52zm162.65 190.19c.62 1.24 1.25 2.47 1.86 3.72-1.51.17-3 .31-4.56.47L699 601q28.62-2.36 56-5.49a267.09 267.09 0 0 1 0 152.16c-42.19-4.85-87.14-8.33-133.48-10.42 2-20.9 2.69-41.2 2.77-62a34.17 34.17 0 0 1-22.23-14.89l-27.62-42.7c1 17.21 1.46 35.3 1.45 53.9 0 22.13-.7 43.57-2.79 63.63-57.4-1.41-117.57-1.43-175-.07-1.38-20.06-2.75-41.5-2.74-63.63a620.72 620.72 0 0 1 2.64-63.68c29 .7 58.09 1.41 87.83 1.42 27.83 0 55-.59 82.23-1.22l-31-47.93c-44.37.69-89.51.46-132.82-.68 9.68-61.15 26.37-108 44.09-136.52L415.43 372q-5.28-9.35-9.81-19.12c-142.49 35.87-248.25 165-248.31 318.49-.06 181.21 147.2 328.58 328.41 328.65S814.3 852.8 814.37 671.59a326.72 326.72 0 0 0-49.45-173.3zm-331.46-141c-22.83 39.47-38.76 94.1-47.77 154.27-42.19-2.09-83-4.88-121.73-9 33.92-69.19 94.8-122.42 169.5-145.22zm-197.9 267.64a277.42 277.42 0 0 1 11.09-76.08c42.19 4.86 86.45 8.34 133.48 10.43-2.08 22.13-2.78 43.57-2.79 65.7s.68 43.58 2.75 65.71c-47 2.06-92 5.5-134.19 10.32-6.21-24.21-10.35-49.8-10.34-76.08zM234 793.8c38.73-4.14 78.85-6.89 121.73-8.95 9 60.18 24.86 114.82 47.67 154.26C328.75 916.25 267.9 863 234 793.8zm251.7 157.79c-27.67 0-65-63-81.55-168.1 53.94-1.37 109.28-1.34 163.91.06-16.59 105.12-54.66 168.05-82.32 168.04zm82.31-12.42c22.83-39.42 38.76-94 47.78-153.53 42.18 2.09 82.3 4.87 121 9a278.49 278.49 0 0 1-168.74 144.53z"/></svg><view id="info" viewBox="5000 5000 1000 1000"/><svg viewBox="0 0 1000 1000" width="1000" height="1000" x="5000" y="5000" xmlns="http://www.w3.org/2000/svg"><path d="M500 50a450.13 450.13 0 0 1 175.15 864.66 450.13 450.13 0 0 1-350.3-829.32A447.21 447.21 0 0 1 500 50m0-50C223.86 0 0 223.86 0 500s223.86 500 500 500 500-223.86 500-500S776.14 0 500 0z"/><path d="M607 291.38q25.9-24.11 25.9-58.45T607 174.38q-25.9-24.33-62.34-24.38c-24.22 0-45.17 8.16-62.54 24.38s-26 35.71-26 58.55 8.73 42.38 26 58.45 38.32 24.12 62.54 24.12 45.08-8.06 62.34-24.12zm-39.8 537.18c31.17-14.58 47.65-42 31.47-54.52-9.33-7.21-21.55 4.72-30.47 4.72-19.16 0-32.67-3.13-40.41-9.45s-11.61-18.16-11.61-35.57c0-7 1.09-17.15 3.47-30.64s5.17-25.62 8.14-36.16l37-131.13a218.49 218.49 0 0 0 7.44-39.64c1.29-14.53 2-24.58 2-30.25q0-41.42-29.09-67.41c-19.25-17.25-46.85-26-82.58-26a191.29 191.29 0 0 0-63.13 10.59c-43.38 15.22-33.75 53-24.12 53 19.55 0 32.65 3.33 39.6 9.95s10.52 18.26 10.52 35.12a165.55 165.55 0 0 1-3.43 30.96c-2.29 11.25-5 23.23-8.34 35.82l-37.24 131.62q-4.77 20.74-7.15 37.21a239.86 239.86 0 0 0-2.18 32.29q0 40.51 29.87 66.9c20 17.66 50.63 34 86.56 34 23.33.03 56.68-8.67 83.68-21.41z"/></svg><view id="link" viewBox="6000 0 1000 1000"/><svg viewBox="0 0 1000 1000" width="1000" height="1000" x="6000" xmlns="http://www.w3.org/2000/svg"><path d="M233.22 1000C104.37 999.92 0 895.4.08 766.56A233.28 233.28 0 0 1 68.25 601.9l212-212.12A233.3 233.3 0 0 1 571 358.28a227 227 0 0 1 39.16 31.5 66 66 0 0 1 0 93.64 68.32 68.32 0 0 1-93.65 0 100 100 0 0 0-141.31 0L162.4 696.05a100 100 0 0 0 141.47 141.48l125.81-126a16.68 16.68 0 0 1 18.17-3.67 280.27 280.27 0 0 0 106.64 20.67h6.67A16.66 16.66 0 0 1 573 757L398 932a231.79 231.79 0 0 1-164.78 68z"/><path d="M555.49 678.56h-12.66a232.19 232.19 0 0 1-24.83-2.34c-6.83-1.16-13.5-2.5-20.16-4.16l-9.84-2.67c-3.49-1-7.16-2.16-10.66-3.5s-7.17-2.5-10.66-4-7-2.83-10.5-4.5a231.48 231.48 0 0 1-66.66-46.65 66.45 66.45 0 0 1 0-94 68.32 68.32 0 0 1 93.65 0 100 100 0 0 0 141.31 0l54.66-54.32 1.33-1.5 156.31-156.13A100 100 0 0 0 695.3 163.32L569.82 288.63a16.66 16.66 0 0 1-18.16 3.66 280.12 280.12 0 0 0-106.48-20.83H439A16.72 16.72 0 0 1 426.85 243l174.8-174.67c91.11-91.11 238.83-91.11 329.94 0s91.11 238.83 0 329.94L719.46 610.4a233.23 233.23 0 0 1-108.14 61.32h-1.84l-9.66 2-5.33 1-11.49 1.67h-5.67c-4.33 0-8.16.83-11.83 1z"/></svg><view id="menu" viewBox="6000 1000 1000 1000"/><svg viewBox="0 0 1000 1000" width="1000" height="1000" x="6000" y="1000" xmlns="http://www.w3.org/2000/svg"><path d="M0 167.37a87.16 87.16 0 0 0 87.37 87.37h825.26a87.16 87.16 0 0 0 87.37-87.37A87.16 87.16 0 0 0 912.63 80H87.37A87.16 87.16 0 0 0 0 167.37zm87.37 420h825.26A87.16 87.16 0 0 0 1000 500a87.16 87.16 0 0 0-87.37-87.37H87.37A87.16 87.16 0 0 0 0 500a87.16 87.16 0 0 0 87.37 87.37zm0 332.63h825.26a87.16 87.16 0 0 0 87.37-87.37 87.16 87.16 0 0 0-87.37-87.37H87.37A87.16 87.16 0 0 0 0 832.63 87.16 87.16 0 0 0 87.37 920z"/></svg><view id="minus" viewBox="6000 2000 1000 1000"/><svg viewBox="0 0 1000 1000" width="1000" height="1000" x="6000" y="2000" xmlns="http://www.w3.org/2000/svg"><path d="M1000 500c0 67.87-56.56 124.43-124.43 124.43H124.43C56.56 624.43 0 567.87 0 500s56.56-124.43 124.43-124.43h751.14c67.87 0 124.43 56.56 124.43 124.43z"/></svg><view id="minus-circle" viewBox="6000 3000 1000 1000"/><svg viewBox="0 0 1000 1000" width="1000" height="1000" x="6000" y="3000" xmlns="http://www.w3.org/2000/svg"><path d="M500 0C224.21 0 0 224.21 0 500s224.21 500 500 500 500-224.21 500-500S775.79 0 500 0zm232.63 500c0 31.58-26.31 57.89-57.89 57.89H325.26c-31.58 0-57.89-26.31-57.89-57.89 0-31.58 26.31-57.89 57.89-57.89h349.48c31.58 0 57.89 26.31 57.89 57.89z"/></svg><view id="plus" viewBox="6000 4000 1000 1000"/><svg viewBox="0 0 1000 1000" width="1000" height="1000" x="6000" y="4000" xmlns="http://www.w3.org/2000/svg"><path d="M1000 500c0 67.87-56.56 124.43-124.43 124.43H624.43v251.14c0 67.87-56.56 124.43-124.43 124.43s-124.43-56.56-124.43-124.43V624.43H124.43C56.56 624.43 0 567.87 0 500s56.56-124.43 124.43-124.43h251.14V124.43C375.57 56.56 432.13 0 500 0s124.43 56.56 124.43 124.43v251.14h251.14c67.87 0 124.43 56.56 124.43 124.43z"/></svg><view id="plus-circle" viewBox="6000 5000 1000 1000"/><svg viewBox="0 0 1000 1000" width="1000" height="1000" x="6000" y="5000" xmlns="http://www.w3.org/2000/svg"><path d="M500 0C224.21 0 0 224.21 0 500s224.21 500 500 500 500-224.21 500-500S775.79 0 500 0zm232.63 500c0 31.58-26.31 57.89-57.89 57.89H557.89v116.85c0 31.58-26.31 57.89-57.89 57.89-31.58 0-57.89-26.31-57.89-57.89V557.89H325.26c-31.58 0-57.89-26.31-57.89-57.89 0-31.58 26.31-57.89 57.89-57.89h116.85V325.26c0-31.58 26.31-57.89 57.89-57.89 31.58 0 57.89 26.31 57.89 57.89v116.85h116.85c31.58 0 57.89 26.31 57.89 57.89z"/></svg><view id="save" viewBox="0 6000 1000 1000"/><svg viewBox="0 0 1000 1000" width="1000" height="1000" y="6000" xmlns="http://www.w3.org/2000/svg"><path d="M533.33 211.11h88.89a22.22 22.22 0 0 0 22.22-22.22V22.22A22.22 22.22 0 0 0 622.22 0h-88.89a22.22 22.22 0 0 0-22.22 22.22v166.67a22.23 22.23 0 0 0 22.22 22.22z"/><path d="M992.14 158.81L841.19 7.86C836.87 3.53 828.33 0 822.22 0h-77.78a22.29 22.29 0 0 0-22.22 22.22v188.89a66.68 66.68 0 0 1-66.66 66.67H344.44a66.68 66.68 0 0 1-66.66-66.67V22.22A22.29 22.29 0 0 0 255.56 0H111.11A111.12 111.12 0 0 0 0 111.11v777.78A111.13 111.13 0 0 0 111.11 1000h777.78A111.14 111.14 0 0 0 1000 888.89V177.78c0-6.12-3.53-14.65-7.86-18.97zM816.67 794.44a22.24 22.24 0 0 1-22.23 22.23H205.56a22.24 22.24 0 0 1-22.23-22.23V472.22A22.22 22.22 0 0 1 205.56 450h588.88a22.22 22.22 0 0 1 22.23 22.22z"/><path d="M700 616.67H300a16.67 16.67 0 1 0 0 33.33h400a16.67 16.67 0 1 0 0-33.33zm0 88.89H300a16.67 16.67 0 1 0 0 33.33h400a16.67 16.67 0 1 0 0-33.33zm0-177.78H300a16.67 16.67 0 1 0 0 33.33h400a16.67 16.67 0 1 0 0-33.33z"/></svg><view id="search" viewBox="1000 6000 1000 1000"/><svg viewBox="0 0 1000 1000" width="1000" height="1000" x="1000" y="6000" xmlns="http://www.w3.org/2000/svg"><path d="M984.06 843L774.4 633.28c-19-19-50.58-20-70.6-3.16l-60-60.06a353.57 353.57 0 0 0 70.59-212.82C714.34 160.21 554.19.07 357.17.07S0 160.21 0 357.24s160.15 357.17 357.17 357.17c79 0 152.77-26.34 212.83-70.59l60 60c-16.85 21.07-15.8 51.63 3.16 70.59l209.72 209.72c21.07 21.07 54.79 21.07 74.8 0l67.44-67.43c20.01-20.02 20.01-53.7-1.06-73.7zM356.12 609.05c-139.08 0-251.81-112.74-251.81-251.81S217 105.43 356.12 105.43s251.81 112.73 251.81 251.81-112.74 251.81-251.81 251.81z"/></svg><view id="settings" viewBox="2000 6000 1000 1000"/><svg viewBox="0 0 1000 1000" width="1000" height="1000" x="2000" y="6000" xmlns="http://www.w3.org/2000/svg"><path d="M967.4 394.32h-65.19c-13.67 0-26.29-9.46-30.5-22.08a278.53 278.53 0 0 0-18.92-44.16c-6.31-12.62-4.21-27.34 5.25-36.81L904.31 245a31.74 31.74 0 0 0 0-45.22L800.21 95.69a31.74 31.74 0 0 0-45.22 0L708.73 142c-9.47 9.46-24.19 11.56-36.81 5.25a397 397 0 0 0-44.16-18.92c-13.67-4.21-22.08-16.83-22.08-30.5V32.6A32.76 32.76 0 0 0 573.08 0H426.92a32.76 32.76 0 0 0-32.6 32.6v65.19c0 13.67-9.46 26.29-22.08 30.5a278.53 278.53 0 0 0-44.16 18.92c-12.62 6.31-27.34 4.21-36.81-5.25L245 95.69a31.74 31.74 0 0 0-45.22 0L95.69 199.79a31.74 31.74 0 0 0 0 45.22L142 291.27c9.46 9.47 11.56 25.24 5.25 36.81a397 397 0 0 0-18.92 44.16c-4.21 13.67-16.83 22.08-30.5 22.08H32.6A32.76 32.76 0 0 0 0 426.92v146.16a32.76 32.76 0 0 0 32.6 32.6h65.19c13.67 0 26.29 9.46 30.5 22.08a278.53 278.53 0 0 0 18.92 44.16c6.31 12.62 4.21 27.34-5.25 36.81L95.69 755a31.74 31.74 0 0 0 0 45.22l104.1 104.1a31.74 31.74 0 0 0 45.22 0L291.27 858c9.47-9.46 24.19-11.56 36.81-5.25a397 397 0 0 0 44.16 18.92c13.67 4.21 22.08 16.83 22.08 30.5v65.23a32.76 32.76 0 0 0 32.6 32.6h146.16a32.76 32.76 0 0 0 32.6-32.6v-65.19c0-13.67 9.46-26.29 22.08-30.5a278.53 278.53 0 0 0 44.16-18.92c12.62-6.31 27.34-4.21 36.81 5.25L755 904.31a31.74 31.74 0 0 0 45.22 0l104.1-104.1a31.74 31.74 0 0 0 0-45.22L858 708.73c-9.46-9.47-11.56-24.19-5.25-36.81a397 397 0 0 0 18.92-44.16c4.21-13.67 16.83-22.08 30.5-22.08h65.23a32.76 32.76 0 0 0 32.6-32.6V425.87c0-17.87-14.72-31.55-32.6-31.55zM500.53 760.25c-144.06 0-260.78-116.72-260.78-260.77S356.47 238.7 500.53 238.7 761.3 355.42 761.3 499.48 644.58 760.25 500.53 760.25z"/></svg><view id="shaking-hands" viewBox="3000 6000 1000 1000"/><svg viewBox="0 0 1000 1000" width="1000" height="1000" x="3000" y="6000" xmlns="http://www.w3.org/2000/svg"><path d="M296.79 125.18c-.59 57.39-52.49 108.5-109.23 107.47-57.33-1-108.28-53.11-107.31-109.65 1-58.5 50.66-106.72 109.55-106.35C248.08 17 297.38 67 296.79 125.18zm173.27 402.29c-.44.32-.86.59-1.28.9l-6.51 4.27c-11.29 7.5-45.82 30.31-31.59 82.05.22.91.53 1.81.75 2.66-12-6.82-24.25-13.59-36.55-19.66-14.87-7.51-27.28-15.23-37.94-23.76a167.75 167.75 0 0 1-16.63-15.77c-2-2.14-3.94-4.16-5.92-6.14-3.24 15.79-3.35 33.74-3.35 51.21-.11 8.37-.11 16.31-.42 24-1.29 27-2.35 54.3-3.25 81-1.81 56.16-2.71 112-2.71 165.81-.17 64.32-45 109.23-109 109.23l-27.22.11-26.86-.11c-64.3 0-109.12-45-109.22-109.17l.06-116.42a67.24 67.24 0 0 1-.59-8.21c-1.13-33.73-2.67-68.15-4.16-101.44l-.22-5.76c-.2-5.33-.42-10.45-.73-15.78a34.78 34.78 0 0 0-4.25-6.49 6 6 0 0 0-.9-1.28c-3.26-3.78-6.93-7.46-10.72-11.3-8.62-8.61-17.53-17.5-21.53-27.42A107.37 107.37 0 0 1 1 540.36c-1.28-72.95-1.28-133.3 0-190 .11-3.77.11-7.51.11-11.23-.11-21-.11-40.87 21.74-54.46 11.94-7.46 26-10.7 39.59-14a207 207 0 0 0 20.09-5.38c1.27-.37 3.25-1.12 5.59-2 11.83-4.31 22.9-8.25 27.65-8.25a11.85 11.85 0 0 1 2 .21c6.92 1.92 9.15 8.63 9.9 10.81l.54 1.61c.42 1.44 1.22 3.78 2.18 6.92l6.45 20.68c7.13 22.91 17 55.09 23.12 74.17l2.35-18.07c1.06-8.09 2.13-16 3-23.07l1.28-9.53a3.48 3.48 0 0 1 .1-1.39c.86-6.29 1.44-10.82 1.61-12.58-.75-1.91-1.61-3.72-2.35-5.54l-.7-1.48-.36-.86c-.54-1.28-1.12-2.66-1.76-3.89l-1.2-2.03c-1.12-2.34-2.51-5-2.51-8.41 0-.39 1.81-7.94 4-11.52l-.17-.11 1.08-1.39a8 8 0 0 1 4.84-3l.86-.43 1.38.15a7.29 7.29 0 0 1 2.34-.31c2-.16 7.58-.16 14.6-.16s12.69 0 15 .16a6.09 6.09 0 0 1 2 .31H207l.86.44a7.66 7.66 0 0 1 5.22 3.56c.37.44.59 1.12 1.65 3.79 2.3 6.13 2.56 7.45 2.56 8.47 0 3.41-1.38 6.07-2.45 8.25l-1 1.6c-.85 1.92-1.49 3.26-2 4.53l-.42 1a14.77 14.77 0 0 0-.59 1.6l-.38.73c-.68 1.5-1.38 3.05-2 4.55.16 1.65.75 6.23 1.48 12.41a5.77 5.77 0 0 1 .22 1.65l.11.42c1.12 9.17 2.66 20.57 4.15 31.92l2.45 18.11c4.31-13.95 10.82-34.79 16.89-54.13l1.92-6.13c7.94-25.79 12.89-41.61 13.42-43.05.75-2.18 3.05-8.94 10-10.81 3.78-1.07 15 2.66 28.82 7.72a19.73 19.73 0 0 1 5.76 1.22l28.33 8.59c10.18 3.08 20.68 6.29 31 9.64 20.66 6.6 33.13 21.1 36.92 42.94l5 28.35c3.41 19.34 6.66 37.94 9.86 55.89 1.49 8.05 2.18 16.74 3 25.16 1.28 16 2.72 32.6 9.16 46.19 6.82 14.27 20.68 23.82 34.1 33 2.83 1.81 5.49 3.74 8.05 5.55 3.45 2.63 7.08 5.29 10.97 8.02zm233.15-402.29c.59 57.39 52.49 108.5 109.23 107.47 57.33-1 108.28-53.11 107.31-109.65-1-58.5-50.66-106.72-109.55-106.35C751.92 17 702.62 67 703.21 125.18zm-222.13 435.9l6.45-4.25c19.77-13.17 38.9-26.75 53.34-37.2 2.56-1.86 5.27-3.72 8-5.59 13.42-9.22 27.33-18.76 34.15-33 6.46-13.53 7.83-30.16 9.22-46.19a252.33 252.33 0 0 1 2.94-25.15c3.24-18 6.49-36.55 9.9-55.84l5-28.34c3.79-21.86 16.2-36.34 36.92-42.94 10.28-3.32 20.84-6.51 31-9.61l28.18-8.67a19.79 19.79 0 0 1 5.81-1.17c13.86-5.07 25-8.86 28.77-7.74 7 1.87 9.33 8.64 10.08 10.82.48 1.44 5.43 17.32 13.42 43.11l1.87 6.07c6 19.35 12.52 40.23 16.94 54.14l2.35-18.07c1.54-11.4 3-22.79 4.2-32v-.44c0-.53.11-1.06.17-1.7.8-6.23 1.39-10.71 1.54-12.36-.64-1.54-1.27-3.08-2-4.53l-.31-.8c-.22-.53-.44-1.07-.7-1.6l-.43-1c-.54-1.28-1.16-2.66-2.08-4.53l-.95-1.65a17.92 17.92 0 0 1-2.4-8.26c0-1.07.31-2.34 2.56-8.42 1.06-2.71 1.32-3.35 1.71-3.83a8.18 8.18 0 0 1 5.21-3.63l.8-.42h1.71a5.9 5.9 0 0 1 2-.32c2.35-.16 7.94-.16 15-.16s12.63 0 14.65.16a6.67 6.67 0 0 1 2.29.32l1.44-.17.79.44a8.31 8.31 0 0 1 4.91 3l1.07 1.39-.11.06c2.13 3.63 4 11.13 4 11.57 0 3.41-1.34 6.07-2.51 8.41l-1.18 2.13c-.58 1.17-1.22 2.56-1.76 3.83l-.31.86-.7 1.54c-.79 1.82-1.59 3.63-2.4 5.49.22 1.81.75 6.29 1.56 12.57a5.71 5.71 0 0 1 .11 1.45l1.21 9.48c.92 7 2 15 3.1 23.06l2.39 18.04c6-19 16-51.21 23.12-74.12l6.46-20.68c.95-3.08 1.7-5.48 2.18-6.92l.48-1.61c.75-2.18 3-8.94 10-10.81a7.89 7.89 0 0 1 2-.26c4.79 0 15.82 3.89 27.65 8.25 2.34.86 4.32 1.61 5.59 2 6.29 2.13 13 3.73 20.15 5.38 13.58 3.2 27.65 6.5 39.47 13.91 21.91 13.64 21.85 33.51 21.8 54.51 0 3.68 0 7.4.11 11.23 1.28 56.71 1.28 117.06 0 190a106.58 106.58 0 0 1-8.33 39.68c-4 9.92-13 18.81-21.53 27.44-3.84 3.84-7.46 7.47-10.66 11.3a9.21 9.21 0 0 0-1 1.28 44.87 44.87 0 0 0-4.27 6.49c-.26 5.28-.53 10.45-.73 15.79l-.28 5.74c-1.48 33.31-3 67.67-4.1 101.45-.1 2.94-.32 5.81-.63 8.16l.1 116.36c-.16 64.26-45 109.18-109.28 109.18l-26.8.11-27.22-.11c-64 0-108.81-44.92-109-109.18 0-53.86-.9-109.65-2.76-165.81-.85-26.74-2-54-3.25-81-.37-7.67-.37-15.55-.42-24-.06-17.42-.11-35.37-3.36-51.1-2 2-3.94 4-5.92 6.13-5.17 5.39-10.49 11-16.57 15.78-10.66 8.47-23.07 16.19-37.94 23.71-18.27 9.11-36.5 19.5-54.24 29.62l-1.27.75c-9.39 5.32-19.08 10.92-28.73 16.14-7.13 3.94-13.16 5.81-18.86 5.81-14.12 0-22.11-11.57-24.77-15.35a96 96 0 0 1-13.81-29c-6.22-23.34 1.77-34 17.7-44.61z"/></svg><view id="share" viewBox="4000 6000 1000 1000"/><svg viewBox="0 0 1000 1000" width="1000" height="1000" x="4000" y="6000" xmlns="http://www.w3.org/2000/svg"><path d="M664.39 609.84c-7.37 0-15.8-1.05-22.12-3.16v74.76c0 25.27-21 46.33-46.32 46.33H150.57c-25.27 0-46.33-21.06-46.33-46.33V345.56c0-25.27 21.06-46.32 46.33-46.32h129.5c29.49-36.86 63.18-72.66 101.08-104.24H150.57A150.53 150.53 0 0 0 0 345.56v335.88A150.54 150.54 0 0 0 150.57 832h444.32a150.54 150.54 0 0 0 150.57-150.56V568.78l-26.32 21.06c-15.8 12.63-34.75 20-54.75 20z"/><path d="M992.89 255L676 4.42c-12.64-10.53-31.59-1-31.59 15.79V156C429.59 168.67 290.6 383.47 224.27 518.24c-9.48 20 14.74 37.91 30.53 23.16 74.76-66.33 205.32-150.56 389.58-155.83v134.78c0 16.84 19 25.27 31.59 15.79l316.92-250.59c9.48-8.43 9.48-23.17 0-30.55z"/></svg><view id="table" viewBox="5000 6000 1000 1000"/><svg viewBox="0 0 1000 1000" width="1000" height="1000" x="5000" y="6000" xmlns="http://www.w3.org/2000/svg"><path d="M929.85 378.47v.71c-1.2 74.47-193.3 134.71-430.09 134.71S70.85 453.65 69.65 379.18v-.71c0-74.79 192.56-135.42 430.11-135.42s430.09 60.63 430.09 135.42z"/><path d="M930.36 621.53v.7C929.15 696.7 737.05 757 500.25 757S71.36 696.7 70.16 622.23v-.7l-.28-190.79v.71c1.2 74.46 193.3 134.71 430.09 134.71s428.9-60.25 430.1-134.71v-.71z"/></svg><view id="trash" viewBox="6000 6000 1000 1000"/><svg viewBox="0 0 1000 1000" width="1000" height="1000" x="6000" y="6000" xmlns="http://www.w3.org/2000/svg"><path d="M151.46 174.27l48 753.22c2.33 40.93 38.59 72.51 80.7 72.51h439.72c43.28 0 78.37-31.58 80.7-72.51l48-753.22zM641.52 653.8a44.48 44.48 0 0 1 0 63.16c-8.19 9.36-19.88 12.86-31.58 12.86s-22.22-4.67-31.58-12.86L500 637.43l-79.53 78.36c-8.19 9.36-19.89 12.86-31.58 12.86a45.17 45.17 0 0 1-31.58-12.86 44.48 44.48 0 0 1 0-63.16l78.36-78.36-78.36-79.53a44.66 44.66 0 1 1 63.16-63.16L500 511.11l78.36-78.36a44.66 44.66 0 1 1 63.16 63.16l-78.36 79.53zM873.1 57.31H667.25l-7-39.77A20.21 20.21 0 0 0 640.35 0H363.16c-10.53 0-18.72 8.19-21.05 18.71l-5.85 38.6H126.9A26 26 0 0 0 101.17 83v30.41a26 26 0 0 0 25.73 25.73h746.2a26 26 0 0 0 25.73-25.73V83a26 26 0 0 0-25.73-25.69z"/></svg><view id="user" viewBox="7000 0 1000 1000"/><svg viewBox="0 0 1000 1000" width="1000" height="1000" x="7000" xmlns="http://www.w3.org/2000/svg"><circle cx="500" cy="383.71" r="164.21"/><path d="M500 0C224.21 0 0 224.21 0 500s224.21 500 500 500 500-224.21 500-500S775.79 0 500 0zm270.23 862.67L731.78 694.2C716 624.1 652.64 574.35 581.41 574.35H419.72A153.75 153.75 0 0 0 269.35 694.2L230.9 862.67C121.23 780.13 50 650.11 50 503.12c0-247.61 201.26-450 450-450 247.61 0 450 201.26 450 450 0 146.99-71.23 277.01-179.77 359.55z"/></svg><view id="x" viewBox="7000 1000 1000 1000"/><svg viewBox="0 0 1000 1000" width="1000" height="1000" x="7000" y="1000" xmlns="http://www.w3.org/2000/svg"><path d="M956.34 755.87a142.82 142.82 0 0 1 0 202.82c-26.29 30-63.85 41.31-101.41 41.31s-71.36-15-101.41-41.31l-251.64-255.4-255.4 251.64c-26.29 30.05-63.85 41.31-101.41 41.31S70 981.22 43.66 954.93a142.82 142.82 0 0 1 0-202.82l251.65-251.64-251.65-255.4A143.42 143.42 0 0 1 246.48 42.25l255.4 255.4L753.52 46a143.42 143.42 0 1 1 202.82 202.83l-251.65 255.4z"/></svg><view id="x-circle" viewBox="7000 2000 1000 1000"/><svg viewBox="0 0 1000 1000" width="1000" height="1000" x="7000" y="2000" xmlns="http://www.w3.org/2000/svg"><path d="M500 0C223.86 0 0 223.86 0 500s223.86 500 500 500 500-223.86 500-500S776.14 0 500 0zm212.2 619a66.42 66.42 0 0 1 0 94.31C700 727.26 682.51 732.5 665 732.5s-33.18-7-47.15-19.21l-117-118.76-118.76 117c-12.22 14-29.69 19.21-47.15 19.21a67.47 67.47 0 0 1-47.16-19.21 66.42 66.42 0 0 1 0-94.31l117-117-117-118.76a66.69 66.69 0 0 1 94.31-94.31l118.78 118.76 117-117a66.69 66.69 0 1 1 94.33 94.29L595.18 502z"/></svg></svg>