<svg version="1" xmlns="http://www.w3.org/2000/svg" width="1333.333" height="1333.333" viewBox="0 0 1000.000000 1000.000000"><path d="M795.8 24.5c-.2.1-4.1.5-8.8.9-4.7.4-9.6.8-11 1.1-2.7.4-8.5 1.3-14 2.1-1.9.3-4.1.7-4.9 1-.8.2-3 .7-5 1-13.6 2.2-43.9 13.1-60.1 21.7-41.6 22-71.9 52.9-91.9 93.8-4.9 10.2-11.7 27.9-13.7 35.8-1.5 6.3-4.3 17.6-4.2 17.6.1 0-1.5 10.3-1.9 12-1.7 8.3-2.3 37.8-1 53 1 12.1 1.9 18.1 5.2 34.1 1.4 6.4 8.1 26.4 11.5 34 17 38.3 41.2 67.1 76.2 90.6 8.4 5.7 28.7 16.4 39.8 21.1 14.6 6.2 39.5 12.8 61 16.1 17.3 2.7 64.4 2.8 77.6.2 1.2-.2 4.5-.7 7.5-1.1 3-.3 8.2-1.3 11.5-2 3.4-.8 7.3-1.6 8.5-1.9 27.8-5.1 65.9-23.5 90.4-43.6 5.1-4.1 24.9-24.2 28.4-28.8 3.3-4.2 3.3-4.4 1.5-6-1.1-1-10.2-9.1-20.4-18.2s-20.1-17.9-22-19.6c-1.9-1.7-8.4-7.5-14.5-12.9-6-5.4-14.8-13.2-19.4-17.4-9.8-8.9-12.1-10.6-12.1-9.1 0 2.3-23.8 24.8-32 30.2-12.1 8.1-27.1 14.3-38.5 16.2-9.3 1.5-12.8 1.8-20.4 1.8-52.7-.4-88.5-31.9-96.6-85.1-1.3-8.4-1.4-34.7-.1-40.1.3-1.4 1.1-5 1.7-8 3.9-19.2 12.6-35.7 25.8-49 17.8-18 41.2-27 70-27 21.3 0 41.2 6.4 60.1 19.4 7.4 5.1 23.3 20 28.1 26.5l2.5 3.4 28.9-25.9c16-14.2 36.1-32.1 44.7-39.8l15.8-14-1.9-2.9c-1-1.5-5.8-7.2-10.7-12.4-29.5-31.9-69.3-53.6-115.9-63.1-9.4-1.9-12.9-2.5-22.2-3.7-2.1-.2-6.3-.7-9.3-1.1-5-.6-43.6-1.4-44.2-.9zM0 243.5V453h2.3c3.6.1 137.1.1 138.2.1.7-.1 1-70.2 1-209.4V34.5l-70.8-.3L0 34v209.5zM177.9 35.7c-.1 2.1-.1 102.8 0 105.9l.1 2.1h60.3c33.2 0 60.8.2 61.3.5.5.4.9 61 .9 154.7V453l3.5.1c3.6 0 131.8 0 135.8-.1h2.2V298.5c0-146.4.1-154.5 1.8-154.6.9 0 28.5-.1 61.2-.2l59.5-.2.2-54.8.2-54.7H371.4c-183.5 0-193.4.1-193.5 1.7zM725.9 537.5c-.2.2-4.6.6-9.8 1-5.2.4-10.4.9-11.5 1.1-1.2.2-4.1.6-6.6.9-2.5.3-6.7 1-9.5 1.5-2.7.5-6.1 1.1-7.5 1.4-9.2 1.6-27.5 7-38.9 11.5-24.3 9.7-48.6 26.7-61.4 42.9-2.3 3-5.2 6.5-6.4 8-6.8 8.1-16.8 30.8-19.8 45.2-2.6 12.6-3.6 32.4-2.1 42.5.2 1.6.7 5.2 1.1 8 1.2 8.3 5.4 21.5 9.6 30 11.9 24 36.1 44.5 67.4 56.9 3.9 1.6 7.9 3.2 9 3.7 8.8 3.7 38 11.6 61 16.4 14.6 3 13.2 2.7 24 5 34.7 7.2 51.1 14.1 56.4 23.6 3.9 6.9 2.6 15.6-3.1 20.4-2.6 2.3-10.9 6.1-15.3 7-1.6.4-3.9.9-5 1.1-10.6 2.3-45.9 2.3-59.5 0-1.4-.3-5.9-1-10-1.6-15.9-2.5-53-12.8-60.7-16.9-1-.5-5.2-2.3-9.3-4.1-4.1-1.7-12-5.5-17.5-8.4l-10-5.2-4 9.1c-2.1 4.9-5.3 12.1-7.1 16-1.7 3.8-7.9 17.8-13.7 31-5.8 13.2-12.8 29.1-15.6 35.4-5.9 13.4-6.9 11.4 9.8 19.7 32.8 16.2 75.4 27.6 122.6 32.8 23.3 2.6 64.5 2.7 84.5.2 15.6-2 15.5-2 23.5-3.6 2.8-.6 5.9-1.2 7-1.4 13-2.5 41-12.6 51.5-18.6 2.5-1.4 6.2-3.4 8.3-4.5 12.1-6.3 32.1-24.1 41.9-37.2 11.3-15.4 20.1-36.5 22.4-53.8.3-2.8.8-5.9 1-7 .6-2.6.6-27.4 0-28.3-.2-.4-.7-3.2-1.1-6.2-.4-3-1.8-9.2-3.1-13.7-11.3-39-41.7-64.6-96.9-81.7-7.6-2.3-34.1-9.1-39.5-10-1.4-.2-8.3-1.6-15.5-3.1-7.1-1.5-14.1-2.8-15.5-3.1-1.4-.2-3.6-.7-5-1-1.4-.3-3.6-.8-5-1.1-7.6-1.3-23.5-5.8-29.9-8.4-14.1-5.6-20.2-12.3-19.4-21.1 1-11.4 9.9-18.6 27.8-22.4 9.1-1.9 33.9-2.6 45-1.3 14 1.6 17.1 2 21.5 3 2.5.6 5.6 1.3 7 1.5 7.5 1.4 32.2 8.9 37.5 11.4 1.1.5 6.5 2.8 12 5.1s12.2 5.2 14.8 6.6c4.5 2.2 6.7 2.3 6.7.3 0-.5 3-8 6.6-16.7 3.6-8.7 8.1-19.4 9.9-23.8 9.1-22.3 15.7-38.2 16.5-40 2.1-4.4 8-19 8-19.6 0-.7-12.5-7-21.5-10.9-17.9-7.8-41.9-15-65-19.5-4.3-.8-28.9-4.2-36.5-5-6.8-.7-55.5-1.6-56.1-1zM78.7 546.8c-1 .2-1.7 1.3-1.8 2.5v414.5l.1 2.3 119.3-.4c65.5-.2 120.1-.6 121.2-.9 1.1-.3 4.7-.9 8-1.2 31.9-3.6 65.8-14 92-28.1 30.9-16.7 57.4-41.7 74.7-70.5 15.1-25.1 24.4-55.8 27.3-89.5 1.1-12 .4-42.1-1-49-.2-1.1-.7-4.3-1-7-.4-2.8-1-6.6-1.5-8.5-.5-1.9-1.1-4.9-1.4-6.5-1-5.8-6.8-24-10.3-32.5-19.5-47.3-58.8-85-109.8-105.4-7.6-3.1-26.4-9.4-29.9-10-1.1-.2-6.1-1.3-11.1-2.5-10.3-2.3-18.6-3.8-26.5-4.7-3-.3-6.6-.7-8-1-8.3-1.3-35.6-1.7-131.4-1.8-59 0-108 0-108.9.2zm215.8 111.4c16.1 2.1 33.2 8.4 45.1 16.5 14.3 9.8 26.5 26.5 32.3 44.3 5.3 16.7 6.9 42.4 3.6 60-4 21.5-12.7 38.3-26.4 51.3-12.2 11.5-26.8 18.7-46.1 22.8-9.7 2-13.4 2.2-47.5 2.3l-37 .1v-98c-.1-53.9.1-98.5.3-99.2.5-1.5 64.8-1.6 75.7-.1z"/></svg>